<svg width="12" height="24" viewBox="0 0 12 24" fill="none" xmlns="http://www.w3.org/2000/svg">
<path opacity="0.4" d="M6.00654 12L8.65357 14.648L4.14654 19.1719C3.9388 19.3818 3.65616 19.5007 3.36079 19.5023C3.06542 19.5039 2.78152 19.388 2.57154 19.1803L2.5631 19.1719L1.50795 18.1087C1.40375 18.0046 1.32108 17.881 1.26469 17.7449C1.20829 17.6088 1.17926 17.4629 1.17926 17.3156C1.17926 17.1683 1.20829 17.0224 1.26469 16.8864C1.32108 16.7503 1.40375 16.6266 1.50795 16.5225L6.00654 12Z" fill="#B40D1A"/>
<path d="M2.55845 4.83138L1.50001 5.89732C1.39581 6.00145 1.31315 6.12509 1.25675 6.26118C1.20035 6.39726 1.17133 6.54313 1.17133 6.69044C1.17133 6.83775 1.20035 6.98362 1.25675 7.11971C1.31315 7.2558 1.39581 7.37944 1.50001 7.48357L8.6536 14.6484L10.5 12.7968L10.5028 12.794C10.7128 12.5821 10.83 12.2954 10.8286 11.997C10.8272 11.6987 10.7073 11.4131 10.4953 11.2031L4.14236 4.8281L4.13439 4.81966C3.924 4.61212 3.63981 4.49663 3.34428 4.49856C3.04876 4.50049 2.76611 4.6197 2.55845 4.82998V4.83138Z" fill="#B40D1A"/>
</svg>
