<svg width="96" height="96" viewBox="0 0 96 96" fill="none" xmlns="http://www.w3.org/2000/svg">
<circle cx="48" cy="48" r="48" fill="#FFFCF7"/>
<g clip-path="url(#clip0_824_133)">
<path opacity="0.4" d="M65.5078 41.0991L54.9009 51.706L51.1875 47.9935L43.5938 55.5872L40.4062 52.4063L48 44.8125L44.2875 41.1L54.9009 30.4932L65.5078 41.0991Z" fill="#B30D19"/>
<path d="M39.8437 51.8784C39.5659 51.6 39.2359 51.3792 38.8727 51.2285C38.5095 51.0778 38.1201 51.0002 37.7268 51.0002C37.3336 51.0002 36.9442 51.0778 36.5809 51.2285C36.2177 51.3792 35.8877 51.6 35.6099 51.8784L24.8765 62.6362C24.314 63.1988 23.998 63.9617 23.998 64.7573C23.998 65.5528 24.314 66.3158 24.8765 66.8784L29.1112 71.1215C29.3891 71.3999 29.7191 71.6207 30.0824 71.7714C30.4457 71.9221 30.8352 71.9997 31.2285 71.9997C31.6219 71.9997 32.0113 71.9221 32.3747 71.7714C32.738 71.6207 33.068 71.3999 33.3459 71.1215L44.0821 60.3637C44.6446 59.8011 44.9606 59.0381 44.9606 58.2426C44.9606 57.447 44.6446 56.6841 44.0821 56.1215L39.8437 51.8784ZM40.5459 41.6296C40.7542 41.8384 41.0016 42.0041 41.2741 42.1172C41.5465 42.2302 41.8386 42.2884 42.1335 42.2884C42.4285 42.2884 42.7206 42.2302 42.993 42.1172C43.2654 42.0041 43.5129 41.8384 43.7212 41.6296L55.3696 29.9624C55.7915 29.5405 56.0286 28.9682 56.0286 28.3715C56.0286 27.7748 55.7915 27.2025 55.3696 26.7806L53.2499 24.6562C53.0415 24.4473 52.794 24.2816 52.5215 24.1686C52.249 24.0555 51.9568 23.9973 51.6618 23.9973C51.3668 23.9973 51.0746 24.0555 50.8021 24.1686C50.5296 24.2816 50.2821 24.4473 50.0737 24.6562L38.4318 36.3262C38.0099 36.7481 37.7729 37.3204 37.7729 37.9171C37.7729 38.5138 38.0099 39.0861 38.4318 39.5081L40.5459 41.6296ZM71.2499 42.6899L69.1312 40.5693C68.923 40.3603 68.6756 40.1944 68.4031 40.0812C68.1307 39.968 67.8386 39.9097 67.5435 39.9097C67.2485 39.9097 66.9564 39.968 66.6839 40.0812C66.4115 40.1944 66.1641 40.3603 65.9559 40.5693L54.3112 52.2365C53.8893 52.6584 53.6522 53.2307 53.6522 53.8274C53.6522 54.4241 53.8893 54.9964 54.3112 55.4184L56.4281 57.539C56.6363 57.7481 56.8838 57.914 57.1564 58.0272C57.4289 58.1404 57.7211 58.1986 58.0162 58.1986C58.3113 58.1986 58.6035 58.1404 58.876 58.0272C59.1486 57.914 59.396 57.7481 59.6043 57.539L71.2499 45.8718C71.6719 45.4499 71.9089 44.8776 71.9089 44.2809C71.9089 43.6842 71.6719 43.1119 71.2499 42.6899Z" fill="#B30D19"/>
</g>
<defs>
<clipPath id="clip0_824_133">
<rect width="48" height="48" fill="white" transform="translate(24 24)"/>
</clipPath>
</defs>
</svg>
