<svg width="96" height="96" viewBox="0 0 96 96" fill="none" xmlns="http://www.w3.org/2000/svg">
<circle cx="48" cy="48" r="48" fill="#FFFCF7"/>
<g clip-path="url(#clip0_824_108)">
<path opacity="0.4" d="M44.9391 62.8847L46.5 56.25L43.5 51H52.5L49.5 56.25L51.0609 62.8847L48 69L44.9391 62.8847ZM48 48C50.3734 48 52.6935 47.2962 54.6668 45.9776C56.6402 44.6591 58.1783 42.7849 59.0866 40.5922C59.9948 38.3995 60.2324 35.9867 59.7694 33.6589C59.3064 31.3312 58.1635 29.193 56.4853 27.5147C54.8071 25.8365 52.6689 24.6936 50.3411 24.2306C48.0133 23.7676 45.6005 24.0052 43.4078 24.9135C41.2151 25.8217 39.3409 27.3598 38.0224 29.3332C36.7038 31.3066 36 33.6266 36 36C36 39.1826 37.2643 42.2349 39.5147 44.4853C41.7652 46.7357 44.8174 48 48 48Z" fill="#B30D19"/>
<path d="M56.9812 51.0563L48 69L39.0187 51.0563C32.3344 51.375 27 56.8406 27 63.6V67.5C27 68.6935 27.4741 69.8381 28.318 70.682C29.1619 71.5259 30.3065 72 31.5 72H64.5C65.6935 72 66.8381 71.5259 67.682 70.682C68.5259 69.8381 69 68.6935 69 67.5V63.6C69 56.8406 63.6656 51.375 56.9812 51.0563Z" fill="#B30D19"/>
</g>
<defs>
<clipPath id="clip0_824_108">
<rect width="42" height="48" fill="white" transform="translate(27 24)"/>
</clipPath>
</defs>
</svg>
