<svg width="96" height="96" viewBox="0 0 96 96" fill="none" xmlns="http://www.w3.org/2000/svg">
<circle cx="48" cy="48" r="48" fill="#FFFCF7"/>
<g clip-path="url(#clip0_824_225)">
<path opacity="0.4" d="M25.1634 46.1541L30.6103 43.6875L45.7631 50.5566C46.4656 50.876 47.2283 51.0413 48 51.0413C48.7717 51.0413 49.5344 50.876 50.2369 50.5566L65.3906 43.6875L70.8366 46.1559C72.3881 46.8591 72.3881 49.2028 70.8366 49.9059L48.9975 59.8031C48.6842 59.9459 48.3438 60.0197 47.9995 60.0197C47.6552 60.0197 47.3149 59.9459 47.0016 59.8031L25.1634 49.9041C23.6119 49.2009 23.6119 46.8572 25.1634 46.1541Z" fill="#B30D19"/>
<path d="M25.1634 37.875L47.0016 47.7844C47.3148 47.9275 47.6551 48.0016 47.9995 48.0016C48.3439 48.0016 48.6843 47.9275 48.9975 47.7844L70.8356 37.875C72.3872 37.1709 72.3872 34.8262 70.8356 34.125L48.9984 24.2175C48.6852 24.0743 48.3448 24.0002 48.0005 24.0002C47.6561 24.0002 47.3157 24.0743 47.0025 24.2175L25.1634 34.125C23.6119 34.8281 23.6119 37.1737 25.1634 37.875ZM70.8366 58.1353L65.4112 55.6762L50.2369 62.5547C49.5344 62.8741 48.7717 63.0394 48 63.0394C47.2283 63.0394 46.4656 62.8741 45.7631 62.5547L30.5897 55.6762L25.1634 58.1353C23.6119 58.8384 23.6119 61.1822 25.1634 61.8853L47.0016 71.7844C47.3149 71.9271 47.6552 72.001 47.9995 72.001C48.3438 72.001 48.6842 71.9271 48.9975 71.7844L70.8412 61.8853C72.3881 61.1822 72.3881 58.8384 70.8366 58.1353Z" fill="#B30D19"/>
</g>
<defs>
<clipPath id="clip0_824_225">
<rect width="48" height="48" fill="white" transform="translate(24 24)"/>
</clipPath>
</defs>
</svg>
