<svg width="128" height="128" viewBox="0 0 128 128" fill="none" xmlns="http://www.w3.org/2000/svg">
<g clip-path="url(#clip0_244_388)">
<path opacity="0.4" d="M9.9751 49.1776C12.5603 39.8103 17.5314 31.274 24.4027 24.4027C31.274 17.5314 39.8103 12.5603 49.1776 9.9751C48.106 12.6124 47.7575 15.4879 48.168 18.3048C48.5784 21.1218 49.733 23.7782 51.5126 26.0001C45.5654 27.9698 40.1612 31.3028 35.7314 35.733C31.3017 40.1632 27.9692 45.5677 26.0001 51.5151C23.7785 49.7351 21.1221 48.5801 18.3052 48.1692C15.4882 47.7583 12.6126 48.1064 9.9751 49.1776ZM80.0001 16.0001C80.0078 19.635 78.7728 23.1633 76.5001 26.0001C82.445 27.9715 87.8467 31.3052 92.2742 35.7353C96.7017 40.1654 100.032 45.5691 102 51.5151C104.222 49.7351 106.878 48.5801 109.695 48.1692C112.512 47.7583 115.388 48.1064 118.025 49.1776C115.44 39.8103 110.469 31.274 103.598 24.4027C96.7262 17.5314 88.1899 12.5603 78.8226 9.9751C79.602 11.8881 80.0019 13.9344 80.0001 16.0001ZM112 80.0001C108.365 80.0078 104.837 78.7728 102 76.5001C100.03 82.4434 96.6988 87.8441 92.2714 92.2714C87.8441 96.6988 82.4434 100.03 76.5001 102C78.2797 104.222 79.4343 106.878 79.8447 109.695C80.2552 112.512 79.9067 115.388 78.8351 118.025C88.2001 115.438 96.7339 110.466 103.603 103.595C110.472 96.7238 115.441 88.1884 118.025 78.8226C116.112 79.602 114.066 80.0019 112 80.0001ZM48.0001 112C47.996 108.364 49.2354 104.835 51.5126 102C45.567 100.032 40.1638 96.7012 35.7342 92.2737C31.3046 87.8463 27.9712 82.4447 26.0001 76.5001C23.7782 78.2797 21.1218 79.4343 18.3048 79.8447C15.4879 80.2552 12.6124 79.9067 9.9751 78.8351C12.5622 88.2001 17.5341 96.7339 24.4053 103.603C31.2765 110.472 39.8118 115.441 49.1776 118.025C48.3982 116.112 47.9983 114.066 48.0001 112Z" fill="#6059C9"/>
<path d="M64 96C60.8355 96 57.7421 96.9384 55.1109 98.6965C52.4797 100.455 50.4289 102.953 49.2179 105.877C48.0069 108.801 47.6901 112.018 48.3074 115.121C48.9248 118.225 50.4487 121.076 52.6863 123.314C54.9239 125.551 57.7749 127.075 60.8786 127.693C63.9823 128.31 67.1993 127.993 70.1229 126.782C73.0465 125.571 75.5454 123.52 77.3035 120.889C79.0616 118.258 80 115.164 80 112C80 107.757 78.3143 103.687 75.3137 100.686C72.3131 97.6857 68.2435 96 64 96ZM64 116C63.2089 116 62.4355 115.765 61.7777 115.326C61.1199 114.886 60.6072 114.262 60.3045 113.531C60.0017 112.8 59.9225 111.996 60.0769 111.22C60.2312 110.444 60.6122 109.731 61.1716 109.172C61.731 108.612 62.4437 108.231 63.2196 108.077C63.9956 107.923 64.7998 108.002 65.5307 108.304C66.2616 108.607 66.8864 109.12 67.3259 109.778C67.7654 110.436 68 111.209 68 112C68 113.061 67.5786 114.078 66.8284 114.828C66.0783 115.579 65.0609 116 64 116ZM64 0C60.8355 0 57.7421 0.938384 55.1109 2.69649C52.4797 4.45459 50.4289 6.95345 49.2179 9.87706C48.0069 12.8007 47.6901 16.0177 48.3074 19.1214C48.9248 22.2251 50.4487 25.0761 52.6863 27.3137C54.9239 29.5513 57.7749 31.0752 60.8786 31.6926C63.9823 32.3099 67.1993 31.9931 70.1229 30.7821C73.0465 29.5711 75.5454 27.5203 77.3035 24.8891C79.0616 22.2579 80 19.1645 80 16C80 11.7565 78.3143 7.68687 75.3137 4.68629C72.3131 1.68571 68.2435 0 64 0V0ZM64 20C63.2089 20 62.4355 19.7654 61.7777 19.3259C61.1199 18.8864 60.6072 18.2616 60.3045 17.5307C60.0017 16.7998 59.9225 15.9956 60.0769 15.2196C60.2312 14.4437 60.6122 13.731 61.1716 13.1716C61.731 12.6122 62.4437 12.2312 63.2196 12.0769C63.9956 11.9225 64.7998 12.0017 65.5307 12.3045C66.2616 12.6072 66.8864 13.1199 67.3259 13.7777C67.7654 14.4355 68 15.2089 68 16C68 17.0609 67.5786 18.0783 66.8284 18.8284C66.0783 19.5786 65.0609 20 64 20ZM16 48C12.8355 48 9.74207 48.9384 7.11088 50.6965C4.4797 52.4546 2.42894 54.9534 1.21793 57.8771C0.0069325 60.8007 -0.309921 64.0177 0.307443 67.1214C0.924806 70.2251 2.44866 73.0761 4.6863 75.3137C6.92394 77.5513 9.77487 79.0752 12.8786 79.6926C15.9823 80.3099 19.1993 79.9931 22.1229 78.7821C25.0466 77.5711 27.5454 75.5203 29.3035 72.8891C31.0616 70.2579 32 67.1645 32 64C32 59.7565 30.3143 55.6869 27.3137 52.6863C24.3131 49.6857 20.2435 48 16 48ZM16 68C15.2089 68 14.4355 67.7654 13.7777 67.3259C13.1199 66.8864 12.6072 66.2616 12.3045 65.5307C12.0017 64.7998 11.9225 63.9956 12.0769 63.2196C12.2312 62.4437 12.6122 61.731 13.1716 61.1716C13.731 60.6122 14.4437 60.2312 15.2196 60.0769C15.9956 59.9225 16.7998 60.0017 17.5307 60.3045C18.2616 60.6072 18.8864 61.1199 19.3259 61.7777C19.7654 62.4355 20 63.2089 20 64C20 65.0609 19.5786 66.0783 18.8284 66.8284C18.0783 67.5786 17.0609 68 16 68ZM112 48C108.835 48 105.742 48.9384 103.111 50.6965C100.48 52.4546 98.4289 54.9534 97.2179 57.8771C96.0069 60.8007 95.6901 64.0177 96.3074 67.1214C96.9248 70.2251 98.4486 73.0761 100.686 75.3137C102.924 77.5513 105.775 79.0752 108.879 79.6926C111.982 80.3099 115.199 79.9931 118.123 78.7821C121.047 77.5711 123.545 75.5203 125.304 72.8891C127.062 70.2579 128 67.1645 128 64C128 59.7565 126.314 55.6869 123.314 52.6863C120.313 49.6857 116.243 48 112 48ZM112 68C111.209 68 110.436 67.7654 109.778 67.3259C109.12 66.8864 108.607 66.2616 108.304 65.5307C108.002 64.7998 107.923 63.9956 108.077 63.2196C108.231 62.4437 108.612 61.731 109.172 61.1716C109.731 60.6122 110.444 60.2312 111.22 60.0769C111.996 59.9225 112.8 60.0017 113.531 60.3045C114.262 60.6072 114.886 61.1199 115.326 61.7777C115.765 62.4355 116 63.2089 116 64C116 65.0609 115.579 66.0783 114.828 66.8284C114.078 67.5786 113.061 68 112 68Z" fill="#6059C9"/>
</g>
<defs>
<clipPath id="clip0_244_388">
<rect width="128" height="128" fill="white"/>
</clipPath>
</defs>
</svg>
