<svg width="28" height="28" viewBox="0 0 28 28" fill="none" xmlns="http://www.w3.org/2000/svg">
<g clip-path="url(#clip0_86_140)">
<path fill-rule="evenodd" clip-rule="evenodd" d="M0 14C0 6.26803 6.26803 0 14 0C21.732 0 28 6.26803 28 14C28 21.732 21.732 28 14 28C6.26803 28 0 21.732 0 14ZM15.4593 22.2317V14.6149H17.5618L17.8404 11.9902H15.4593L15.4628 10.6765C15.4628 9.99186 15.5279 9.62506 16.5111 9.62506H17.8256V7H15.7227C13.1968 7 12.3078 8.2733 12.3078 10.4146V11.9905H10.7333V14.6152H12.3078V22.2317H15.4593Z" fill="#FFFCF7"/>
</g>
<defs>
<clipPath id="clip0_86_140">
<rect width="28" height="28" fill="white"/>
</clipPath>
</defs>
</svg>
