<svg width="24" height="24" viewBox="0 0 24 24" fill="none" xmlns="http://www.w3.org/2000/svg">
<g clip-path="url(#clip0_21_1992)">
<path opacity="0.4" d="M21.4866 11.0058L16.492 13.5H20.2969C19.8736 14.269 19.3965 15.0071 18.8691 15.7087L11.9873 18H16.7217C15.0544 19.4095 13.0134 20.3953 10.5066 20.6503C8.54593 20.8752 6.57426 20.9904 4.60078 20.9953H4.59797L14.2969 11.2969C14.5082 11.0855 14.627 10.7989 14.627 10.5C14.627 10.2011 14.5082 9.91447 14.2969 9.70312C14.0855 9.49178 13.7989 9.37305 13.5 9.37305C13.2011 9.37305 12.9145 9.49178 12.7031 9.70312L3 19.4062C3.00375 16.462 3.1875 14.7164 3.32812 13.4794C4.52062 1.79062 21.5723 0.166875 24 0C23.9152 1.23094 23.4511 6.22781 21.4866 11.0058Z" fill="#FFFCF7"/>
<path d="M1.12496 24C0.902053 24.0005 0.684009 23.9349 0.498495 23.8113C0.312981 23.6877 0.16836 23.5118 0.0829831 23.3059C-0.00239344 23.1 -0.0246766 22.8734 0.0189613 22.6548C0.0625992 22.4362 0.170191 22.2355 0.328084 22.0781L12.7031 9.70312C12.9144 9.49178 13.2011 9.37305 13.5 9.37305C13.7989 9.37305 14.0855 9.49178 14.2968 9.70312C14.5082 9.91447 14.6269 10.2011 14.6269 10.5C14.6269 10.7989 14.5082 11.0855 14.2968 11.2969L1.92183 23.6719C1.81721 23.7764 1.69294 23.8592 1.55618 23.9156C1.41942 23.9719 1.27286 24.0006 1.12496 24Z" fill="#FFFCF7"/>
</g>
<defs>
<clipPath id="clip0_21_1992">
<rect width="24" height="24" fill="white"/>
</clipPath>
</defs>
</svg>
