<svg width="18" height="19" viewBox="0 0 18 19" fill="none" xmlns="http://www.w3.org/2000/svg">
<path d="M16.7849 9.7557C16.7849 9.12472 16.7327 8.66427 16.6196 8.18677H9.26736V11.0347H13.583C13.496 11.7425 13.0261 12.8083 11.982 13.5245L11.9674 13.6199L14.292 15.3847L14.4531 15.4005C15.9322 14.0618 16.7849 12.092 16.7849 9.7557" fill="#4285F4"/>
<path d="M9.26641 17.2595C11.3807 17.2595 13.1556 16.5773 14.4521 15.4006L11.9811 13.5246C11.3198 13.9766 10.4323 14.2921 9.26641 14.2921C7.19562 14.2921 5.43806 12.9534 4.81154 11.103L4.71971 11.1107L2.30252 12.944L2.2709 13.0301C3.55862 15.537 6.20368 17.2595 9.26641 17.2595Z" fill="#34A853"/>
<path d="M4.8128 11.103C4.64748 10.6255 4.55181 10.1139 4.55181 9.58524C4.55181 9.05654 4.64748 8.54495 4.8041 8.06745L4.79972 7.96576L2.35223 6.10303L2.27215 6.14035C1.74142 7.18065 1.43689 8.34885 1.43689 9.58524C1.43689 10.8216 1.74142 11.9898 2.27215 13.0301L4.8128 11.103" fill="#FBBC05"/>
<path d="M9.26645 4.87846C10.7369 4.87846 11.7288 5.50092 12.2943 6.02109L14.5044 3.90642C13.1471 2.67003 11.3807 1.91113 9.26645 1.91113C6.2037 1.91113 3.55862 3.63355 2.2709 6.14043L4.80286 8.06752C5.43808 6.2172 7.19565 4.87846 9.26645 4.87846" fill="#EB4335"/>
</svg>
