<svg width="451" height="461" viewBox="0 0 451 461" fill="none" xmlns="http://www.w3.org/2000/svg">
<g clip-path="url(#clip0_21_1996)">
<path d="M34.2285 371.726C44.1452 392.731 60.2129 411.487 80.7995 422.615C91.4694 428.366 103.143 431.867 115.32 432.742C128.124 433.743 141.053 432.117 153.48 429.241C179.59 423.115 204.194 411.987 230.429 406.11C244.488 402.859 258.673 401.859 273.109 402.484C288.298 403.109 303.235 405.11 318.424 405.985C332.358 406.735 346.668 406.61 360.351 403.359C371.397 400.859 382.193 396.482 391.984 390.731C411.441 379.353 427.759 362.473 438.304 342.593C448.974 322.337 453.116 299.456 449.978 276.825C446.84 254.194 437.048 232.438 422.236 215.058C414.83 206.431 406.294 198.804 396.628 192.677C385.958 185.925 374.159 181.549 362.359 177.298C349.932 172.797 337.128 168.421 326.333 160.669C322.818 158.168 319.68 155.417 316.667 152.416C309.01 141.538 302.482 129.91 295.955 118.407C290.934 109.53 285.787 100.652 280.138 92.1499C274.489 82.0222 267.962 72.3946 259.426 64.1423C251.392 56.3902 240.597 50.3886 229.425 47.8879C223.525 45.6373 217.374 44.1369 211.098 43.5117C199.173 42.5115 187.122 45.2622 176.829 51.3889C155.991 63.7672 143.438 86.2733 134.4 108.029C124.232 132.911 116.324 159.668 97.3692 179.549C87.7035 189.676 76.406 198.054 66.2382 207.556C57.3257 215.934 49.6685 225.311 43.2665 235.689C30.8393 255.819 23.4331 279.076 21.6757 302.707C20.1693 326.213 24.0607 350.345 34.2285 371.726Z" fill="#EAD5B9"/>
<path d="M380.937 412.112C381.188 411.612 381.439 411.111 381.816 410.861C382.193 410.486 382.569 410.111 382.82 409.861C383.071 409.611 383.448 409.361 383.824 409.361C384.201 409.236 384.578 409.111 385.08 409.236C385.456 409.236 385.958 409.361 386.21 409.611C386.586 409.736 386.963 409.986 387.214 410.361C387.339 410.611 387.465 410.861 387.59 410.986C387.841 411.487 387.967 411.987 387.841 412.612C387.841 412.862 387.716 413.112 387.716 413.487C387.465 413.987 387.214 414.487 386.837 414.737L385.833 415.738C385.582 415.988 385.205 416.238 384.829 416.238C384.452 416.363 384.076 416.488 383.573 416.363C383.197 416.363 382.695 416.238 382.444 415.988C382.067 415.863 381.69 415.613 381.439 415.238L381.063 414.612C380.812 414.112 380.686 413.612 380.812 412.987C380.812 412.612 380.812 412.362 380.937 412.112Z" fill="#B4301A"/>
<path d="M370.644 434.618C370.77 434.243 371.021 433.867 371.397 433.617C371.648 433.367 372.025 433.117 372.401 433.117C372.778 432.992 373.155 432.867 373.657 432.992C373.908 432.992 374.159 433.117 374.535 433.117C375.038 433.367 375.54 433.617 375.791 433.993C375.916 434.243 376.042 434.493 376.167 434.618C376.418 435.118 376.544 435.618 376.418 436.243V437.243C376.418 437.619 376.293 438.119 376.042 438.369C375.916 438.744 375.665 439.119 375.289 439.369C375.038 439.619 374.661 439.869 374.284 439.869C373.908 439.994 373.531 440.119 373.029 439.994C372.778 439.994 372.527 439.869 372.15 439.869C371.648 439.619 371.146 439.369 370.895 438.994L370.519 438.369C370.267 437.869 370.142 437.368 370.267 436.743V435.743C370.267 435.368 370.393 434.993 370.644 434.618Z" fill="#B4301A"/>
<path d="M417.592 413.237C419.349 413.237 420.604 414.988 420.479 416.613C420.353 418.363 418.721 419.489 417.089 419.489C415.332 419.489 414.077 417.738 414.202 416.113C414.328 414.237 415.96 413.237 417.592 413.237Z" fill="#B4301A"/>
<path d="M430.144 178.548C430.395 178.048 430.647 177.548 431.023 177.298C431.274 177.173 431.525 177.048 431.651 176.923C432.153 176.673 432.655 176.548 433.283 176.673H435.417C435.793 176.673 436.295 176.798 436.546 177.048C436.923 177.173 437.3 177.423 437.551 177.798C437.802 178.048 438.053 178.423 438.053 178.798C438.178 179.174 438.304 179.549 438.178 180.049L438.053 180.924C437.802 181.424 437.551 181.924 437.174 182.174L436.546 182.549C436.044 182.799 435.542 182.925 434.914 182.799H432.78C432.404 182.799 431.902 182.674 431.651 182.424C431.274 182.299 430.898 182.049 430.647 181.674C430.395 181.424 430.144 181.049 430.144 180.674C430.019 180.299 429.893 179.924 430.019 179.424C430.019 179.048 430.019 178.798 430.144 178.548Z" fill="#B4301A"/>
<path d="M399.767 161.919C401.524 161.919 402.779 163.669 402.654 165.295C402.528 167.045 400.896 168.171 399.264 168.171C397.507 168.171 396.252 166.42 396.377 164.795C396.503 162.919 398.135 161.919 399.767 161.919Z" fill="#B4301A"/>
<path d="M420.73 144.164C422.487 144.164 423.742 145.915 423.617 147.54C423.491 149.29 421.86 150.416 420.228 150.416C418.47 150.416 417.215 148.665 417.341 147.04C417.466 145.164 419.098 144.164 420.73 144.164Z" fill="#B4301A"/>
<path d="M24.9394 218.184C25.1905 217.684 25.4415 217.184 25.8181 216.934C26.0692 216.809 26.3202 216.684 26.4457 216.559C26.9479 216.309 27.45 216.184 28.0776 216.309H29.2074C29.584 216.309 30.0861 216.434 30.3371 216.684C30.7137 216.809 31.0903 217.059 31.3414 217.434C31.5924 217.684 31.8435 218.059 31.8435 218.434C31.969 218.809 32.0945 219.184 31.969 219.684C31.969 219.935 31.8435 220.185 31.8435 220.56C31.5924 221.06 31.3413 221.56 30.9648 221.81L30.3371 222.185C29.835 222.435 29.3329 222.56 28.7053 222.435H27.701C27.3244 222.435 26.8223 222.31 26.5713 222.06C26.1947 221.935 25.8181 221.685 25.5671 221.31C25.316 221.06 25.065 220.685 25.065 220.31C24.9394 219.935 24.8139 219.559 24.9394 219.059C24.8139 218.684 24.9394 218.434 24.9394 218.184Z" fill="#B4301A"/>
<path d="M23.9351 177.548C25.6925 177.548 26.9478 179.299 26.8223 180.924C26.6968 182.674 25.0649 183.8 23.433 183.8C21.6756 183.8 20.4204 182.049 20.5459 180.424C20.797 178.548 22.3033 177.548 23.9351 177.548Z" fill="#B4301A"/>
<path d="M10.2526 215.058C10.5037 214.558 10.7548 214.058 11.1313 213.808C11.5079 213.433 11.8845 213.058 12.1356 212.808C12.3866 212.558 12.7632 212.307 13.1398 212.307C13.5164 212.182 13.893 212.057 14.3951 212.182C14.7717 212.182 15.2738 212.307 15.5248 212.558C15.9014 212.683 16.278 212.933 16.529 213.308C16.6546 213.558 16.7801 213.808 16.9056 213.933C17.1567 214.433 17.2822 214.933 17.1567 215.558C17.1567 215.808 17.0311 216.058 17.0311 216.434C16.7801 216.934 16.5291 217.434 16.1525 217.684L15.1482 218.684C14.8972 218.934 14.5206 219.184 14.144 219.184C13.7674 219.309 13.3908 219.434 12.8887 219.309C12.5121 219.309 12.01 219.184 11.759 218.934C11.3824 218.809 11.0058 218.559 10.7547 218.184L10.3782 217.559C10.1271 217.059 10.0016 216.559 10.1271 215.933L10.2526 215.058Z" fill="#B4301A"/>
<path d="M402.026 428.991C408.428 428.991 407.549 438.994 401.147 438.994C394.745 438.994 395.624 428.991 402.026 428.991Z" fill="#626129"/>
<path d="M416.713 391.481C423.115 391.481 422.236 401.484 415.834 401.484C409.432 401.484 410.311 391.481 416.713 391.481Z" fill="#626129"/>
<path d="M437.676 146.415C444.078 146.415 443.199 156.417 436.797 156.417C430.27 156.417 431.274 146.415 437.676 146.415Z" fill="#626129"/>
<path d="M416.713 169.421C423.115 169.421 422.236 179.424 415.834 179.424C409.432 179.424 410.311 169.421 416.713 169.421Z" fill="#626129"/>
<path d="M29.333 154.167C29.4585 153.667 29.4585 153.166 29.7095 152.666C29.8351 152.291 30.0861 151.791 30.3372 151.416C30.5882 151.041 30.9648 150.541 31.4669 150.291C32.7222 149.29 34.2286 148.915 35.7349 148.915C38.371 148.915 40.7561 151.041 41.2582 153.667C41.5092 154.917 41.1326 156.417 40.3795 157.418C39.6263 158.418 38.371 159.293 37.2413 159.418C36.6136 159.543 35.986 159.543 35.4839 159.418C34.9817 159.543 34.4796 159.543 34.103 159.543C32.8478 159.418 31.467 158.793 30.7138 157.793C29.7096 156.792 29.0819 155.417 29.333 154.167Z" fill="#626129"/>
<path d="M5.35708 174.672C11.7591 174.672 10.8804 184.675 4.47836 184.675C-2.04916 184.55 -1.17044 174.672 5.35708 174.672Z" fill="#626129"/>
<path d="M18.9141 239.315C25.316 239.315 24.4373 249.317 18.0354 249.317C11.5079 249.192 12.5121 239.315 18.9141 239.315Z" fill="#626129"/>
<path d="M290.808 31.3835L278.883 159.293L72.3891 153.417L77.4102 0L290.808 31.3835Z" fill="#B4301A"/>
<path d="M118.081 460.875H195.783C195.407 453.123 194.151 441.37 192.394 427.616C192.269 426.866 192.143 426.115 192.143 425.365C190.26 411.111 187.875 394.607 185.364 378.102C185.113 376.727 184.988 375.477 184.737 374.101C181.473 352.721 177.958 331.215 175.071 314.085C174.946 313.335 174.82 312.46 174.695 311.709C174.067 308.334 173.565 305.083 173.063 302.082C172.937 301.332 172.812 300.581 172.686 299.831C170.552 286.828 169.046 278.575 168.92 278.075C168.92 278.075 161.891 290.704 154.61 295.455C153.982 295.955 153.229 296.33 152.602 296.58C151.848 296.955 151.221 297.081 150.468 297.206C142.057 298.581 126.241 273.824 126.241 273.824C126.241 273.824 126.617 282.076 126.994 295.455C126.994 296.33 126.994 297.206 127.119 298.081C127.622 318.461 127.998 349.345 126.617 380.728C126.617 381.603 126.492 382.604 126.492 383.479C125.99 394.107 125.362 404.61 124.483 414.862C124.358 415.613 124.358 416.363 124.232 417.113C123.856 421.989 123.354 426.866 122.726 431.492C122.6 432.492 122.475 433.367 122.349 434.368C121.345 443.995 119.839 452.873 118.081 460.875Z" fill="#D03F23"/>
<path d="M154.61 347.094C156.619 355.471 163.648 360.473 170.301 365.099C175.824 368.85 180.845 373.226 185.239 378.227C184.988 376.852 184.862 375.602 184.611 374.226C180.971 370.475 176.954 367.099 172.686 364.099C166.033 359.472 158.501 354.846 156.744 346.469C154.987 338.342 158.501 329.839 163.774 323.713C167.037 319.962 170.929 316.961 174.946 314.335C174.82 313.585 174.695 312.71 174.569 311.959C169.171 315.335 164.15 319.336 160.259 324.463C155.489 330.59 152.727 339.217 154.61 347.094Z" fill="white"/>
<path d="M122.475 434.493C130.258 429.867 139.17 427.116 148.459 426.366C155.991 425.865 164.527 425.49 170.176 419.614C175.071 414.487 174.82 406.86 172.058 400.734C165.657 386.355 147.204 383.104 140.049 369.225C136.283 361.848 138.542 354.096 141.179 346.719C143.689 339.842 146.451 333.09 146.074 325.588C145.447 313.085 138.04 301.332 126.868 295.58C126.868 296.455 126.868 297.331 126.994 298.206C138.919 304.833 145.823 319.337 143.438 332.715C142.057 340.342 138.04 347.219 136.408 354.721C135.655 358.222 135.404 361.848 136.283 365.349C137.036 368.725 138.668 371.726 140.802 374.351C145.446 380.228 151.848 384.229 157.874 388.48C163.774 392.731 169.548 397.858 171.305 405.36C172.058 408.736 172.058 412.487 170.301 415.613C168.544 418.738 165.405 420.739 162.142 421.989C158.376 423.365 154.233 423.615 150.217 423.865C146.451 424.115 142.559 424.49 138.919 425.365C133.27 426.616 127.873 428.741 122.851 431.492C122.726 432.617 122.6 433.492 122.475 434.493Z" fill="white"/>
<path d="M124.358 417.238C126.743 417.238 129.253 417.113 131.638 416.863C136.408 416.363 142.057 415.988 146.074 412.987C150.217 409.986 149.84 404.985 147.329 401.109C144.442 396.608 140.174 392.607 136.283 388.981C133.145 386.105 129.881 383.354 126.617 380.728C126.617 381.604 126.492 382.604 126.492 383.479C129.504 385.855 132.517 388.355 135.279 391.106C138.794 394.357 142.559 397.983 145.195 401.984C146.451 403.985 147.58 406.485 146.576 408.736C145.823 410.611 143.94 411.737 142.183 412.487C137.789 414.237 132.517 414.612 127.873 414.863C126.743 414.988 125.613 414.988 124.358 414.988C124.483 415.738 124.358 416.488 124.358 417.238Z" fill="white"/>
<path d="M132.894 460.875H135.279C136.66 457.249 140.174 454.373 143.815 452.998C153.731 449.122 165.657 452.248 174.444 444.996C178.335 441.87 180.845 437.494 184.109 433.742C186.243 431.242 189.13 428.616 192.394 427.616C192.269 426.866 192.143 426.115 192.143 425.365C188.503 426.366 185.364 428.991 182.854 431.742C179.214 435.868 176.577 440.869 172.058 444.12C167.163 447.621 161.012 447.996 155.238 448.622C149.589 449.122 143.564 449.872 138.793 453.248C135.906 455.123 133.898 457.874 132.894 460.875Z" fill="white"/>
<path d="M152.602 296.83C154.108 298.331 155.991 299.581 157.874 300.581C162.518 302.957 167.916 303.457 172.937 302.207C172.812 301.457 172.686 300.706 172.561 299.956C168.042 301.082 163.271 300.706 159.004 298.706C157.372 297.956 155.865 296.955 154.485 295.705C153.857 296.08 153.229 296.455 152.602 296.83Z" fill="white"/>
<path d="M46.2793 159.293C46.2793 159.293 43.2666 236.064 43.3921 242.691L88.2056 307.458V323.838L95.7373 380.978L84.8164 460.875H118.081C132.266 397.108 126.241 273.949 126.241 273.949C116.826 259.07 114.315 271.199 114.315 271.199C110.675 262.571 105.905 265.947 105.905 265.947L80.5484 245.442L74.8997 166.42L72.5146 165.795L53.6854 161.044L46.2793 159.293Z" fill="#626129"/>
<path d="M88.3312 307.458L43.5175 242.691C43.6431 249.193 88.3312 323.838 88.3312 323.838V307.458Z" fill="#2B2B39"/>
<path d="M68.3722 125.409C69.2509 126.034 76.7826 132.286 78.2889 130.16C79.7952 127.91 79.2931 125.409 79.2931 125.409C79.2931 125.409 88.4567 127.285 79.4187 113.781C79.4187 113.781 85.0674 109.905 80.4229 103.528C75.7783 97.1514 74.1465 96.9014 74.1465 96.9014C74.1465 96.9014 75.5273 89.7744 72.8912 84.0229C70.2551 78.1463 65.6106 94.6507 65.6106 94.6507C65.6106 94.6507 57.0746 102.153 57.2002 107.154C57.4512 112.155 57.2002 147.29 57.2002 147.29L53.4343 161.294L72.2635 166.045V153.542C72.3891 153.417 81.6782 137.287 68.3722 125.409Z" fill="#EA9949"/>
<path d="M265.2 169.046L262.564 168.171L230.304 247.067L184.862 271.324C184.862 271.324 179.088 267.197 176.075 276.2C176.075 276.2 169.673 271.824 168.92 278.326C169.171 280.076 193.9 421.364 195.783 461H232.94L220.763 394.232V316.711L215.742 305.333L258.798 266.072C260.43 264.072 261.686 262.446 262.815 261.196C272.104 250.443 288.8 177.173 288.8 177.173L284.281 175.673L265.2 169.046Z" fill="#626129"/>
<path d="M215.617 305.208L220.638 316.586C220.638 316.586 246.371 281.451 258.673 265.947L215.617 305.208Z" fill="#2B2B39"/>
<path d="M265.2 159.793V169.046L284.155 175.548L282.649 151.541L279.887 151.166L278.883 159.293L265.2 159.793Z" fill="#EA9949"/>
<path d="M278.506 127.66C278.506 127.66 273.36 133.536 274.113 135.162C274.866 136.912 276.875 137.412 276.875 137.412C276.875 137.412 275.117 140.163 276.247 141.413C277.377 142.664 280.891 142.164 280.891 142.164L279.762 151.041L282.523 151.416C282.523 151.416 294.574 136.412 290.055 129.66C290.055 129.66 292.314 124.284 288.8 122.283C288.8 122.283 292.44 114.656 286.038 113.656L282.649 113.281L282.523 114.406C282.523 114.406 274.615 122.408 275.117 125.034C275.619 127.66 278.506 127.66 278.506 127.66Z" fill="#EA9949"/>
<path d="M284.155 98.9019L282.649 113.531L286.038 113.906C286.038 113.906 288.423 104.028 289.051 101.278C289.678 98.5268 286.917 96.5263 284.155 98.9019Z" fill="#EA9949"/>
<path d="M188.001 281.577C190.386 304.083 192.645 326.464 195.03 348.97C197.415 371.351 199.675 393.607 202.06 415.988C203.315 428.491 204.696 441.12 205.951 453.623C206.077 454.373 204.947 454.498 204.821 453.873C202.436 431.367 200.177 408.986 197.792 386.48C195.407 364.099 193.147 341.843 190.762 319.462C189.507 306.958 188.126 294.33 186.871 281.827C186.871 281.076 188.001 280.826 188.001 281.577Z" fill="#2B2B39"/>
<path d="M114.315 276.325C115.696 299.331 116.701 322.338 117.328 345.469C117.956 368.475 118.332 391.481 118.458 414.488C118.458 427.366 118.458 440.37 118.207 453.248C118.207 453.998 117.077 453.873 117.077 453.123C117.328 430.117 117.328 407.111 117.077 384.104C116.701 361.223 116.073 338.342 115.194 315.461C114.692 302.457 114.064 289.579 113.311 276.575C113.186 275.825 114.315 275.575 114.315 276.325Z" fill="#2B2B39"/>
<path d="M180.72 277.45L180.845 290.829C180.845 291.579 179.716 291.454 179.716 290.704C179.716 286.203 179.716 281.702 179.59 277.325C179.59 276.575 180.72 276.7 180.72 277.45Z" fill="#2B2B39"/>
<path d="M173.439 279.951C174.569 283.452 175.824 287.078 176.954 290.579C177.205 291.204 176.201 291.704 175.95 291.079C174.82 287.578 173.565 283.952 172.435 280.451C172.184 279.701 173.188 279.201 173.439 279.951Z" fill="#2B2B39"/>
<path d="M121.596 276.075C121.722 275.325 122.851 275.45 122.726 276.2C122.349 279.826 121.847 283.452 121.471 287.078C121.345 287.828 120.215 287.703 120.341 286.953C120.717 283.327 121.22 279.701 121.596 276.075Z" fill="#2B2B39"/>
<path d="M107.411 271.949C108.29 275.2 109.043 278.451 109.922 281.576C110.048 282.327 109.043 282.452 108.792 281.826C107.914 278.576 107.16 275.325 106.282 272.199C106.031 271.449 107.16 271.199 107.411 271.949Z" fill="#2B2B39"/>
<path d="M65.4851 109.655C71.0083 113.281 75.5274 118.157 78.9166 123.784C79.2932 124.409 78.289 124.909 77.9124 124.284C74.6486 118.782 70.1296 114.156 64.8574 110.655C64.2298 110.155 64.8574 109.28 65.4851 109.655Z" fill="#2B2B39"/>
<path d="M68.2467 102.403C72.0125 105.154 75.5273 108.405 78.54 112.031C79.0421 112.531 78.1635 113.281 77.6613 112.781C74.7742 109.28 71.3849 106.029 67.619 103.403C66.9914 102.903 67.619 101.903 68.2467 102.403Z" fill="#2B2B39"/>
<path d="M67.2425 94.0255C67.368 93.7755 67.7446 93.5254 67.9957 93.6504C69.7531 94.5257 71.636 95.2759 73.3934 96.1511C73.6444 96.2762 73.8955 96.5262 73.77 96.9013C73.6444 97.1514 73.2678 97.4015 73.0168 97.2764C71.2594 96.4012 69.3765 95.651 67.6191 94.7758C67.2425 94.6507 67.117 94.4006 67.2425 94.0255Z" fill="#2B2B39"/>
<path d="M277.502 137.037C281.142 134.536 284.783 131.911 288.423 129.41C289.051 129.035 289.804 129.91 289.176 130.285C285.536 132.786 281.896 135.412 278.255 137.912C277.628 138.288 277 137.412 277.502 137.037Z" fill="#2B2B39"/>
<path d="M279.636 127.034C282.523 125.284 285.41 123.408 288.298 121.533C288.925 121.158 289.427 122.158 288.8 122.533C285.913 124.409 283.025 126.159 280.138 128.035C279.511 128.41 279.008 127.41 279.636 127.034Z" fill="#2B2B39"/>
<path d="M282.272 114.531C283.151 113.781 284.155 113.031 285.034 112.406C285.285 112.281 285.661 112.281 285.787 112.531C285.913 112.781 285.913 113.156 285.661 113.281C284.783 114.031 283.779 114.781 282.9 115.406C282.649 115.531 282.272 115.531 282.147 115.281C282.021 115.156 282.021 114.781 282.272 114.531Z" fill="#2B2B39"/>
<path d="M281.017 141.788C283.151 140.413 285.41 139.038 287.544 137.662C287.795 137.537 288.172 137.662 288.298 137.912C288.423 138.162 288.298 138.538 288.047 138.663C285.913 140.038 283.653 141.413 281.519 142.789C281.268 142.914 280.891 142.789 280.766 142.539C280.515 142.289 280.64 142.039 281.017 141.788Z" fill="#2B2B39"/>
<path d="M264.322 174.047C270.724 178.674 277 183.175 283.402 187.801C284.03 188.176 283.402 189.176 282.774 188.676C276.372 184.05 270.096 179.549 263.694 174.923C263.066 174.547 263.82 173.547 264.322 174.047Z" fill="#2B2B39"/>
<path d="M282.272 178.799C283.025 178.548 283.653 178.799 284.155 179.299C284.281 179.424 284.281 179.549 284.406 179.549C284.783 179.549 284.908 179.799 284.908 180.174C284.908 180.799 284.532 181.424 284.03 181.799C283.402 182.174 282.774 182.299 282.147 181.924C281.896 181.799 281.519 181.549 281.394 181.299C281.142 181.049 281.017 180.674 281.017 180.299C281.142 179.674 281.645 179.049 282.272 178.799Z" fill="#2B2B39"/>
<path d="M50.9238 173.672C58.0789 173.297 65.1085 173.047 72.2636 172.672C73.0167 172.672 73.1423 173.797 72.5146 173.797C65.3595 174.172 58.33 174.422 51.1749 174.797C50.4217 174.797 50.1706 173.672 50.9238 173.672Z" fill="#2B2B39"/>
<path d="M51.1749 167.17C51.5515 166.42 52.1791 165.92 53.0578 165.92H53.1834C53.4344 165.795 53.6855 165.795 53.9365 166.045C54.1876 166.42 54.5641 166.67 54.8152 167.045C54.9407 167.17 54.9407 167.42 54.9407 167.545C54.5642 168.671 53.0578 169.171 52.0536 168.796C51.8026 168.671 51.5515 168.546 51.3004 168.296C51.1749 168.171 51.0494 167.921 51.0494 167.67C51.0494 167.545 51.1749 167.295 51.1749 167.17Z" fill="#2B2B39"/>
<path d="M101.01 379.728C103.269 382.854 105.654 385.98 107.914 389.106C108.29 389.731 107.537 390.356 107.035 389.856C104.775 386.73 102.39 383.604 100.131 380.478C99.7542 379.853 100.507 379.103 101.01 379.728Z" fill="#2B2B39"/>
<path d="M113.813 192.802C110.424 197.304 108.667 203.055 109.545 208.682C110.424 214.183 113.813 219.309 118.709 222.06C118.96 221.435 119.462 220.935 119.839 220.435C135.404 205.056 158.627 197.804 180.343 201.43C180.218 197.804 178.586 194.303 176.201 191.427C173.69 188.426 170.301 186.301 166.786 184.675C163.02 183.05 158.878 181.924 154.736 182.299C148.71 182.8 143.187 186.176 137.036 186.676C132.015 187.051 126.868 185.425 122.098 186.801C118.834 187.801 115.947 190.052 113.813 192.802Z" fill="#B4301A"/>
<path d="M117.328 245.567C116.701 246.317 116.198 247.317 116.324 248.317C116.575 250.568 119.337 251.443 120.341 253.444C120.843 254.444 120.843 255.569 121.094 256.695C121.847 259.195 124.483 260.821 126.994 260.446L127.496 251.068L127.747 247.067C127.747 247.067 122.726 243.816 120.843 238.815C120.843 240.44 120.341 242.066 119.337 243.316C118.709 244.066 117.956 244.816 117.328 245.567Z" fill="#2B2B39"/>
<path d="M118.709 222.06C118.458 222.685 118.583 223.436 118.834 224.061C119.337 226.561 120.09 229.062 121.094 231.438L121.22 231.563C121.847 230.688 122.726 230.313 123.856 230.187C126.994 228.187 130.258 226.436 133.647 224.936C138.668 222.685 143.94 221.06 149.338 219.81C154.61 218.684 160.008 217.934 165.405 217.559C169.673 217.309 173.941 217.184 178.209 217.184C180.343 217.184 182.477 217.309 184.611 217.059C184.862 217.059 185.113 217.059 185.364 216.934C185.616 216.934 185.867 216.809 186.118 216.684C186.369 216.434 186.369 216.059 186.369 215.809C186.494 212.058 185.992 208.307 184.862 204.681C184.611 203.93 184.36 203.18 183.733 202.555C182.979 201.805 181.724 201.555 180.594 201.305H180.469C158.878 197.679 135.53 204.931 119.964 220.31C119.462 220.81 118.96 221.31 118.709 222.06Z" fill="#B4301A"/>
<path d="M123.73 230.312C125.613 230.187 127.998 231.188 130.383 233.563L133.521 225.061C130.132 226.561 126.868 228.312 123.73 230.312Z" fill="#2B2B39"/>
<path d="M120.215 236.064C120.341 237.064 120.466 237.94 120.843 238.815C122.726 243.816 127.747 247.067 127.747 247.067L127.496 251.068L126.994 260.446L126.241 274.074C126.241 274.074 142.183 298.831 150.468 297.456C158.878 296.08 168.92 278.2 168.92 278.2C137.538 279.951 130.634 252.068 130.509 251.318C130.885 252.068 140.551 272.949 160.008 273.324C162.267 273.324 164.276 272.824 166.159 271.824C178.837 264.822 181.85 236.064 182.226 230.312C174.192 228.687 167.163 220.06 165.405 217.809C160.008 218.184 154.61 218.934 149.338 220.06C143.94 221.31 138.668 222.935 133.647 225.186L130.509 233.688C128.249 231.313 125.739 230.312 123.856 230.438C122.851 230.563 121.847 230.938 121.219 231.813C120.466 232.688 119.964 234.063 120.215 236.064Z" fill="#EA9949"/>
<path d="M159.882 273.324C140.551 272.949 130.76 252.068 130.383 251.318C130.634 252.193 137.413 279.951 168.795 278.2L166.033 271.824C164.15 272.824 162.142 273.324 159.882 273.324Z" fill="#2B2B39"/>
<path d="M162.142 235.064L159.882 248.942C159.882 248.942 168.92 252.068 173.439 248.942C177.958 245.942 166.159 247.317 162.142 235.064Z" fill="#D87319"/>
<path d="M182.101 230.187C183.356 230.437 184.611 230.562 185.992 230.437C196.913 229.312 185.992 221.685 185.992 221.685C185.992 221.685 191.766 219.184 184.486 217.184C182.352 217.434 180.218 217.434 178.084 217.309C173.816 217.184 169.548 217.309 165.28 217.684C167.037 219.935 174.067 228.562 182.101 230.187Z" fill="#2B2B39"/>
<path d="M122.851 234.564C123.479 233.313 125.111 233.563 125.99 234.314C126.492 234.814 126.994 235.314 127.37 235.939C127.747 236.564 128.124 237.189 128.375 237.94C128.751 239.19 128.5 240.69 127.37 241.566C126.366 242.316 124.86 242.316 123.981 241.191C123.102 239.94 123.605 238.19 124.985 237.439C125.613 237.064 126.115 238.065 125.487 238.44C124.86 238.815 124.483 239.69 124.86 240.315C125.236 240.94 126.115 240.94 126.743 240.44C127.496 239.815 127.496 238.815 127.245 238.065C126.994 237.064 126.366 236.314 125.739 235.564C125.362 235.064 124.232 234.189 123.73 235.064C123.605 235.314 123.228 235.314 122.977 235.189C122.726 235.064 122.726 234.814 122.851 234.564Z" fill="#2B2B39"/>
<path d="M153.229 253.694C156.493 254.319 159.631 255.944 162.142 258.195C162.644 258.695 162.016 259.57 161.514 259.07C159.129 256.945 156.242 255.444 153.104 254.819C152.476 254.694 152.476 253.569 153.229 253.694Z" fill="#2B2B39"/>
<path d="M118.96 220.56C125.236 214.933 132.517 210.307 140.3 207.056C148.083 203.805 156.367 201.805 164.778 201.179C169.548 200.804 174.318 200.929 179.088 201.555C179.841 201.68 179.716 202.805 178.963 202.68C170.678 201.68 162.267 202.18 154.108 203.93C145.949 205.681 138.04 208.807 130.885 213.058C126.868 215.433 123.102 218.309 119.588 221.435C119.211 221.935 118.458 221.06 118.96 220.56Z" fill="#2B2B39"/>
<path d="M179.59 204.305C179.841 204.305 180.218 204.43 180.218 204.806C180.343 206.681 180.469 208.557 180.72 210.432C180.72 210.682 180.594 211.057 180.218 211.057C179.967 211.057 179.59 210.932 179.59 210.557C179.465 208.682 179.339 206.806 179.088 204.931C179.088 204.681 179.339 204.43 179.59 204.305Z" fill="#2B2B39"/>
<path d="M180.092 212.808C180.469 212.808 180.594 213.058 180.594 213.433V215.808C180.594 216.059 180.218 216.309 179.967 216.309C179.59 216.309 179.465 216.059 179.465 215.683V213.308C179.465 212.933 179.716 212.683 180.092 212.808Z" fill="#2B2B39"/>
<path d="M176.703 208.432C177.08 208.432 177.205 208.682 177.205 209.057C177.205 210.432 177.331 211.808 177.331 213.308C177.331 213.558 176.954 213.808 176.703 213.808C176.326 213.808 176.201 213.558 176.201 213.183C176.201 211.808 176.075 210.432 176.075 208.932C176.075 208.557 176.452 208.432 176.703 208.432Z" fill="#2B2B39"/>
<path d="M124.985 218.684C125.362 218.684 125.613 218.809 125.613 219.184C125.99 220.435 126.366 221.685 126.743 222.935C126.868 223.186 126.617 223.561 126.241 223.561C125.864 223.561 125.613 223.436 125.613 223.061C125.236 221.81 124.86 220.56 124.483 219.309C124.483 219.059 124.734 218.809 124.985 218.684Z" fill="#2B2B39"/>
<path d="M128.751 220.81C129.002 220.685 129.379 220.81 129.504 221.06C129.755 221.935 130.132 222.685 130.383 223.561C130.509 223.811 130.383 224.186 130.132 224.311C129.881 224.436 129.504 224.311 129.379 224.061C129.128 223.185 128.751 222.435 128.5 221.56C128.375 221.31 128.5 220.935 128.751 220.81Z" fill="#2B2B39"/>
<path d="M132.14 216.559C132.517 216.559 132.643 216.684 132.768 217.059C133.145 218.059 133.396 219.185 133.772 220.185C133.898 220.435 133.647 220.81 133.27 220.81C132.894 220.81 132.768 220.685 132.643 220.31C132.266 219.31 132.015 218.184 131.638 217.184C131.513 216.934 131.764 216.559 132.14 216.559Z" fill="#2B2B39"/>
<path d="M178.084 223.186C180.218 224.186 182.226 225.061 184.36 226.061C184.988 226.311 184.611 227.437 183.984 227.062L177.707 224.186C177.08 223.936 177.456 222.935 178.084 223.186Z" fill="white"/>
<path d="M176.452 220.56C178.711 220.81 181.096 221.185 183.356 221.435C184.109 221.56 183.984 222.685 183.23 222.56C180.971 222.31 178.586 221.935 176.326 221.685C175.573 221.56 175.699 220.435 176.452 220.56Z" fill="white"/>
<path d="M170.803 229.812C173.063 229.562 175.322 229.312 177.582 228.937C178.46 228.812 179.465 229.312 179.59 230.312C179.716 231.188 179.214 232.188 178.209 232.313C175.95 232.563 173.69 232.813 171.431 233.188C170.552 233.313 169.548 232.813 169.422 231.813C169.422 230.938 169.924 229.937 170.803 229.812Z" fill="#2B2B39"/>
<path d="M145.321 226.561C145.698 225.686 146.576 225.186 147.455 225.561C150.593 226.686 153.731 227.812 156.87 229.062C157.748 229.312 158.25 230.437 157.874 231.188C157.497 232.063 156.618 232.563 155.74 232.188C152.602 231.063 149.463 229.937 146.325 228.687C145.572 228.437 145.07 227.437 145.321 226.561Z" fill="#2B2B39"/>
<path d="M150.593 239.565C148.999 239.565 147.706 237.942 147.706 235.939C147.706 233.936 148.999 232.313 150.593 232.313C152.188 232.313 153.48 233.936 153.48 235.939C153.48 237.942 152.188 239.565 150.593 239.565Z" fill="#2B2B39"/>
<path d="M173.816 240.815C172.221 240.815 170.929 239.192 170.929 237.189C170.929 235.187 172.221 233.563 173.816 233.563C175.41 233.563 176.703 235.187 176.703 237.189C176.703 239.192 175.41 240.815 173.816 240.815Z" fill="#2B2B39"/>
<path d="M361.104 137.787L360.978 138.162L379.054 141.288L380.31 138.913C379.808 138.788 379.431 138.663 378.929 138.538C376.92 137.912 374.912 137.037 373.782 135.287C373.28 134.536 373.029 133.786 373.155 132.911C373.406 131.661 374.535 130.66 375.791 130.285C377.046 129.91 378.427 130.035 379.682 130.16C378.176 129.535 376.92 128.285 376.293 126.909C376.042 126.409 375.791 125.784 375.916 125.159C376.042 124.284 376.795 123.533 377.674 123.158C378.552 122.783 379.557 122.908 380.435 122.908C379.054 122.033 377.925 120.658 377.172 119.157C376.92 118.782 376.795 118.282 376.92 117.907C377.046 117.032 378.05 116.657 378.929 116.532C380.184 116.281 381.314 116.281 382.569 116.281C380.937 115.281 379.682 113.906 378.552 112.28C378.05 111.53 377.674 110.655 378.05 109.78C378.301 109.155 379.054 108.779 379.808 108.529L371.523 106.779C371.523 106.779 370.267 96.4011 366.502 95.4008C362.736 94.4005 359.598 99.902 361.983 109.28C364.242 118.657 361.104 137.787 361.104 137.787Z" fill="#E69573"/>
<path d="M371.021 31.3835H383.071V168.796H371.021V31.3835Z" fill="#D03F23"/>
<path d="M438.304 21.6309L428.387 95.2758H319.052L314.784 23.3813L438.304 21.6309Z" fill="#626129"/>
<path d="M373.155 132.911C373.029 133.786 373.28 134.536 373.782 135.287C374.912 137.037 377.046 137.912 378.929 138.538C379.431 138.663 379.808 138.788 380.31 138.913C383.197 139.788 386.335 140.163 388.846 138.663C389.222 138.412 389.599 138.162 389.85 137.912C390.352 137.162 390.101 136.287 389.724 135.537C389.222 134.786 388.595 134.286 387.841 133.911C389.097 133.911 390.352 133.911 391.356 133.411C392.486 132.911 393.365 131.661 393.114 130.535C392.737 128.91 390.854 128.285 389.85 127.034C391.356 126.159 393.616 126.409 394.62 124.909C395.499 123.783 395.122 122.033 394.118 120.908C393.114 119.782 391.733 119.282 390.478 118.657C391.733 118.032 393.114 117.282 393.741 115.906C394.243 114.906 393.992 113.656 393.49 112.53C391.858 111.28 390.101 110.03 388.092 109.28C385.456 108.154 382.569 107.654 379.808 108.404C379.054 108.654 378.427 109.029 378.05 109.655C377.674 110.53 378.176 111.405 378.552 112.155C379.557 113.781 380.937 115.156 382.569 116.156C381.314 116.156 380.184 116.156 378.929 116.406C378.05 116.532 377.046 116.907 376.92 117.782C376.795 118.282 377.046 118.657 377.172 119.032C377.925 120.533 379.054 121.783 380.435 122.783C379.557 122.783 378.552 122.783 377.674 123.033C376.795 123.283 376.042 124.034 375.916 125.034C375.791 125.659 376.042 126.284 376.293 126.784C377.046 128.16 378.301 129.41 379.682 130.035C378.301 129.91 377.046 129.785 375.791 130.16C374.535 130.535 373.406 131.536 373.155 132.911Z" fill="#E69573"/>
<path d="M377.548 129.535C376.669 128.285 375.916 126.784 376.167 125.284C376.418 124.033 377.297 122.908 378.427 122.533C377.297 121.158 376.418 119.407 377.046 117.532C377.297 116.531 378.176 115.781 379.054 115.531C377.423 113.531 377.548 110.405 379.808 108.779C380.435 108.404 381.063 109.154 380.561 109.655C378.427 111.28 378.552 114.531 380.937 115.656C383.573 116.406 386.21 117.032 388.971 117.782C389.724 118.032 389.222 119.032 388.595 118.782C386.084 118.157 383.699 117.407 381.188 116.782C381.063 116.782 380.937 116.782 380.812 116.782C380.686 116.782 380.561 116.656 380.561 116.656C380.435 116.656 380.31 116.531 380.184 116.531C380.184 116.531 380.059 116.531 380.059 116.406C379.054 116.281 378.176 117.407 378.05 118.532C377.925 120.157 379.054 121.408 380.059 122.533L380.184 122.658C383.197 123.783 386.084 124.909 389.097 126.034C389.724 126.284 389.348 127.409 388.72 127.034C385.582 125.784 382.569 124.659 379.431 123.408C379.306 123.408 379.306 123.283 379.18 123.283C378.05 123.408 377.297 124.659 377.297 125.659C377.297 127.034 378.176 128.285 379.054 129.285C381.691 130.285 384.327 131.285 386.963 132.161C387.59 132.411 387.214 133.411 386.586 133.161C384.201 132.286 381.691 131.41 379.306 130.41C379.18 130.535 379.054 130.535 378.803 130.41C376.418 129.41 373.908 131.536 374.661 134.036C375.289 136.037 377.548 137.037 379.306 137.787C379.933 138.037 379.557 139.163 378.929 138.787C376.544 137.787 373.657 136.287 373.406 133.411C373.155 131.41 375.163 129.535 377.548 129.535Z" fill="#2B2B39"/>
<path d="M277.753 427.491L255.786 460.875H357.338C357.338 460.875 349.304 402.609 345.162 388.105C345.162 388.105 355.832 379.853 349.053 365.599C348.677 366.474 330.224 421.489 298.591 422.74C288.549 423.115 280.013 419.114 272.858 413.487L277.753 427.491Z" fill="#B4301A"/>
<path d="M334.492 332.715L310.893 363.223L282.021 332.34L309.261 344.969L334.492 332.715Z" fill="#B4301A"/>
<path d="M245.744 343.593C245.744 350.595 252.648 370.6 263.945 388.105C271.728 400.108 281.645 410.861 292.691 415.488C310.391 422.615 334.241 389.856 348.928 365.724C356.961 352.596 362.234 342.093 362.234 342.093L355.706 337.842L339.011 326.839L346.668 315.711C346.668 315.711 343.781 292.954 349.681 287.953C351.062 286.828 352.317 285.827 353.447 285.077L383.699 142.163L379.054 141.413L360.978 138.287L358.593 137.912C353.572 158.168 315.663 270.323 307.127 297.456C306.499 297.581 305.746 297.581 304.993 297.581L305.872 301.207L291.185 300.707L273.987 300.081L270.849 299.956L270.347 308.959L270.222 312.71C270.222 312.585 245.744 331.715 245.744 343.593Z" fill="#B4301A"/>
<path d="M264.071 387.98L272.983 413.487C280.013 419.114 288.674 423.115 298.716 422.74C330.349 421.489 348.928 366.474 349.179 365.599C334.492 389.606 310.516 422.49 292.942 415.363C281.645 410.861 271.853 399.983 264.071 387.98Z" fill="#2B2B39"/>
<path d="M282.147 332.34L311.018 363.223L334.492 332.715L309.386 344.969L282.147 332.34Z" fill="#2B2B39"/>
<path d="M304.491 302.332C304.742 302.332 305.118 302.457 305.118 302.832C305.244 304.958 305.369 306.958 305.495 309.084C305.495 309.334 305.369 309.709 304.993 309.709C304.742 309.709 304.365 309.584 304.365 309.209C304.24 307.083 304.114 305.083 303.989 302.957C303.989 302.707 304.24 302.457 304.491 302.332Z" fill="#2B2B39"/>
<path d="M299.721 302.082C300.097 302.082 300.223 302.332 300.223 302.707V306.083C300.223 306.333 299.846 306.583 299.595 306.583C299.218 306.583 299.093 306.333 299.093 305.958V302.582C299.093 302.207 299.344 301.957 299.721 302.082Z" fill="#2B2B39"/>
<path d="M299.721 308.583C300.097 308.583 300.223 308.834 300.223 309.209V312.334C300.223 312.585 299.846 312.835 299.595 312.835C299.218 312.835 299.093 312.585 299.093 312.209V309.084C299.093 308.834 299.344 308.583 299.721 308.583Z" fill="#2B2B39"/>
<path d="M294.951 305.083C294.951 304.833 295.327 304.583 295.578 304.583C295.955 304.583 296.08 304.833 296.08 305.208C295.955 306.833 295.955 308.584 295.829 310.209C295.829 310.459 295.453 310.709 295.202 310.709C294.825 310.709 294.7 310.459 294.7 310.084C294.825 308.334 294.825 306.708 294.951 305.083Z" fill="#2B2B39"/>
<path d="M278.506 301.707C278.757 301.707 279.134 301.832 279.134 302.207C279.26 304.082 279.385 305.958 279.511 307.833C279.511 308.083 279.385 308.459 279.008 308.459C278.757 308.459 278.381 308.334 278.381 307.958C278.255 306.083 278.13 304.207 278.004 302.332C278.004 302.082 278.13 301.832 278.506 301.707Z" fill="#2B2B39"/>
<path d="M283.527 305.083C283.527 304.833 283.779 304.583 284.155 304.583C284.406 304.583 284.657 304.833 284.657 305.208C284.406 306.708 284.281 308.334 284.03 309.834C284.03 310.084 283.779 310.334 283.402 310.334C283.151 310.334 282.9 310.084 282.9 309.709C283.151 308.083 283.402 306.583 283.527 305.083Z" fill="#2B2B39"/>
<path d="M252.271 350.845C253.401 353.721 254.531 356.722 255.535 359.597C255.786 360.223 254.782 360.723 254.531 360.097L251.267 351.345C251.016 350.595 252.02 350.095 252.271 350.845Z" fill="#2B2B39"/>
<path d="M257.92 363.974C258.171 363.849 258.547 363.974 258.673 364.224L262.062 370.1C262.188 370.35 262.062 370.725 261.811 370.85C261.56 370.976 261.184 370.85 261.058 370.6C259.928 368.6 258.798 366.599 257.669 364.724C257.543 364.474 257.669 364.099 257.92 363.974Z" fill="#2B2B39"/>
<path d="M259.05 356.096C260.305 358.347 261.56 360.723 262.815 362.973C263.192 363.598 262.188 364.099 261.811 363.473C260.556 361.223 259.301 358.847 258.045 356.597C257.669 355.971 258.673 355.471 259.05 356.096Z" fill="#2B2B39"/>
<path d="M340.643 369.725L344.283 364.224C344.66 363.599 345.538 364.224 345.162 364.849C343.907 366.724 342.777 368.475 341.521 370.35C341.145 370.976 340.141 370.35 340.643 369.725Z" fill="#2B2B39"/>
<path d="M334.617 380.603C335.622 379.103 336.751 377.477 337.756 375.977C338.132 375.352 339.136 375.977 338.634 376.602L335.496 381.228C335.12 381.854 334.115 381.228 334.617 380.603Z" fill="#2B2B39"/>
<path d="M332.986 373.101C334.115 370.976 335.371 368.975 336.5 366.85C336.626 366.599 337.003 366.599 337.254 366.724C337.505 366.975 337.505 367.225 337.379 367.475L333.864 373.726C333.739 373.976 333.362 373.976 333.111 373.851C332.86 373.726 332.86 373.351 332.986 373.101Z" fill="#2B2B39"/>
<path d="M358.97 149.666C359.723 147.29 360.476 144.914 361.104 142.539C361.355 141.789 362.359 142.289 362.108 142.914C361.355 145.289 360.602 147.665 359.974 150.041C359.723 150.791 358.719 150.416 358.97 149.666Z" fill="#2B2B39"/>
<path d="M356.836 160.293C357.464 158.168 358.091 156.167 358.719 154.042C358.97 153.291 359.974 153.792 359.723 154.417C359.095 156.542 358.468 158.543 357.84 160.668C357.589 161.419 356.585 161.044 356.836 160.293Z" fill="#2B2B39"/>
<path d="M360.978 156.042C361.857 153.792 362.861 151.416 363.74 149.165C363.991 148.54 365.121 148.915 364.744 149.54C363.866 151.791 362.861 154.167 361.983 156.417C361.732 157.042 360.602 156.667 360.978 156.042Z" fill="#2B2B39"/>
<path d="M378.803 149.79C379.305 147.915 379.808 146.039 380.31 144.164C380.435 143.914 380.812 143.789 381.063 143.789C381.314 143.914 381.439 144.164 381.439 144.539C380.937 146.415 380.435 148.29 379.933 150.166C379.808 150.416 379.431 150.541 379.18 150.541C378.803 150.416 378.803 150.041 378.803 149.79Z" fill="#2B2B39"/>
<path d="M375.54 159.418C376.042 157.793 376.544 156.042 377.046 154.417C377.171 154.167 377.548 154.042 377.799 154.042C378.05 154.167 378.176 154.417 378.176 154.792C377.674 156.417 377.171 158.168 376.669 159.793C376.544 160.043 376.167 160.168 375.916 160.168C375.54 160.043 375.414 159.668 375.54 159.418Z" fill="#2B2B39"/>
<path d="M372.652 154.042C373.28 151.916 374.033 149.791 374.661 147.79C374.912 147.165 375.916 147.54 375.665 148.165C375.038 150.291 374.284 152.416 373.657 154.417C373.531 155.167 372.401 154.792 372.652 154.042Z" fill="#2B2B39"/>
<path d="M346.919 420.239C347.17 423.115 347.547 426.116 347.798 428.991C347.923 429.741 346.794 429.867 346.668 429.241C346.417 426.366 346.04 423.365 345.789 420.489C345.789 419.614 346.919 419.489 346.919 420.239Z" fill="#2B2B39"/>
<path d="M347.672 432.242C348.049 432.242 348.175 432.492 348.175 432.867C348.175 434.868 348.175 436.868 348.3 438.744C348.3 438.994 347.923 439.244 347.672 439.244C347.296 439.244 347.17 438.994 347.17 438.619C347.17 436.618 347.17 434.618 347.045 432.742C347.045 432.367 347.296 432.242 347.672 432.242Z" fill="#2B2B39"/>
<path d="M342.651 427.241C343.028 427.241 343.153 427.491 343.153 427.866V433.743C343.153 433.993 342.777 434.243 342.526 434.243C342.149 434.243 342.024 433.993 342.024 433.617V427.741C342.024 427.491 342.275 427.241 342.651 427.241Z" fill="#2B2B39"/>
<path d="M273.485 441.995L278.381 434.493C278.757 433.868 279.636 434.493 279.26 435.118C277.628 437.619 275.996 440.119 274.364 442.62C273.987 443.245 273.109 442.62 273.485 441.995Z" fill="#2B2B39"/>
<path d="M267.46 450.247C268.59 448.872 269.594 447.621 270.724 446.246C270.975 445.996 271.226 445.871 271.477 446.121C271.728 446.246 271.853 446.621 271.602 446.871C270.473 448.246 269.468 449.497 268.339 450.872C268.087 451.122 267.836 451.247 267.585 450.997C267.46 450.872 267.334 450.497 267.46 450.247Z" fill="#2B2B39"/>
<path d="M276.121 447.871C277.126 445.871 278.255 443.87 279.26 441.87C279.385 441.62 279.636 441.37 280.013 441.495C280.264 441.62 280.515 441.995 280.389 442.245C279.385 444.245 278.255 446.246 277.251 448.246C277.126 448.496 276.874 448.747 276.498 448.621C276.247 448.496 275.996 448.121 276.121 447.871Z" fill="#2B2B39"/>
<path d="M332.86 334.091C334.617 331.59 336.375 328.964 338.132 326.464C338.509 325.838 339.513 326.464 339.011 327.089C337.254 329.589 335.496 332.215 333.739 334.716C333.362 335.341 332.483 334.716 332.86 334.091Z" fill="#2B2B39"/>
<path d="M336.751 336.341C337.756 334.716 338.634 333.09 339.639 331.465C339.764 331.215 340.141 331.215 340.392 331.34C340.643 331.59 340.643 331.84 340.517 332.09C339.513 333.716 338.634 335.341 337.63 336.966C337.505 337.217 337.128 337.217 336.877 337.091C336.626 336.841 336.626 336.591 336.751 336.341Z" fill="#2B2B39"/>
<path d="M339.764 338.342C340.517 336.841 341.27 335.341 342.024 333.84C342.149 333.59 342.4 333.34 342.777 333.465C343.028 333.59 343.279 333.965 343.153 334.216C342.4 335.716 341.647 337.216 340.894 338.717C340.768 338.967 340.517 339.217 340.141 339.092C339.764 338.967 339.639 338.592 339.764 338.342Z" fill="#2B2B39"/>
<path d="M308.884 301.457C309.512 304.583 310.014 307.708 310.642 310.834C318.55 318.086 326.584 325.213 334.492 332.465C334.994 332.965 334.366 333.841 333.864 333.34C326.082 326.213 318.299 319.212 310.516 312.085C310.265 312.21 309.763 312.085 309.763 311.71C309.135 308.334 308.508 304.958 307.88 301.582C307.629 300.957 308.759 300.707 308.884 301.457Z" fill="#2B2B39"/>
<path d="M321.688 241.19C321.814 241.69 322.692 244.941 323.571 249.818C326.709 243.941 328.216 237.314 327.964 230.688C327.839 228.687 327.211 226.186 325.328 225.811C324.199 225.561 323.069 226.186 321.939 226.686C318.299 228.312 314.031 228.562 310.265 227.562C306.123 226.436 302.608 223.811 298.716 222.185C288.298 217.684 275.368 219.935 267.209 227.562C263.82 230.813 261.183 234.814 257.167 237.314C251.518 240.815 244.488 240.565 237.835 240.69C231.182 240.815 223.902 241.565 219.508 246.442C211.223 255.444 217.625 271.949 209.34 280.826C205.951 284.452 200.051 286.578 199.173 291.579C198.419 295.455 201.307 299.206 204.696 301.207C208.085 303.207 212.102 303.957 215.868 305.333C219.759 306.833 223.399 309.084 226.412 311.96C229.174 314.585 231.559 317.711 234.823 319.337C239.467 321.712 245.241 320.712 249.76 318.086C253.526 315.836 256.664 312.46 260.807 311.209C264.071 310.209 267.711 310.584 270.849 309.084L271.351 300.081L274.489 300.206L275.996 272.949C270.724 272.199 267.334 257.07 273.234 253.569C277.628 250.943 280.64 254.319 281.77 256.069C283.653 256.444 285.536 255.069 286.917 253.694C289.427 251.068 291.31 247.692 294.448 245.817C298.089 243.816 302.482 244.066 306.625 244.691C310.767 245.191 315.161 245.942 318.926 244.316C319.805 243.441 321.186 242.441 321.688 241.19Z" fill="#2B2B39"/>
<path d="M275.619 272.699L274.113 299.956L291.31 300.581L281.896 285.202C284.657 288.828 294.448 297.831 305.118 297.455C309.261 297.33 313.654 295.83 317.671 291.954C325.956 284.202 326.082 268.448 324.701 256.569C324.45 254.069 324.073 251.693 323.697 249.693C322.818 244.941 321.939 241.565 321.814 241.065C321.311 242.316 319.931 243.316 318.675 243.816C314.784 245.316 310.516 244.691 306.374 244.191C302.231 243.691 297.838 243.316 294.197 245.316C291.059 247.192 289.051 250.443 286.666 253.193C285.285 254.569 283.402 255.944 281.519 255.569C280.389 253.819 277.377 250.443 272.983 253.068C266.958 256.694 270.222 271.949 275.619 272.699Z" fill="#E69573"/>
<path d="M281.896 285.202L291.31 300.581L305.997 301.081L305.118 297.455C294.448 297.706 284.532 288.703 281.896 285.202Z" fill="#2B2B39"/>
<path d="M293.068 262.821C289.929 262.821 287.544 265.322 287.544 268.323C287.544 271.449 290.055 273.824 293.068 273.824C296.08 273.824 298.591 271.324 298.591 268.323C298.591 265.322 296.08 262.821 293.068 262.821Z" fill="#AF4E4A"/>
<path d="M305.997 276.7C305.495 280.076 306.75 283.202 309.01 283.452C311.144 283.827 313.278 281.201 313.78 277.825C314.282 274.449 313.027 271.323 310.767 271.073C308.759 270.698 306.499 273.324 305.997 276.7Z" fill="#2B2B39"/>
<path d="M308.633 253.319C308.131 254.944 307.754 256.569 307.88 258.32C307.88 260.07 308.382 261.946 309.637 263.071C310.767 264.197 312.399 264.447 313.905 264.697C315.788 264.947 317.797 265.072 319.68 264.572C320.182 264.447 320.809 264.322 321.186 263.946C321.563 263.571 321.814 262.946 321.688 262.446C321.437 261.696 320.684 261.446 320.056 261.071C315.663 259.445 311.771 256.82 308.633 253.319Z" fill="#AF4E4A"/>
<path d="M223.651 253.444C224.153 252.944 224.906 253.819 224.404 254.319C221.893 256.945 220.763 260.571 221.14 264.072C221.266 264.822 220.136 264.947 220.01 264.322C219.508 260.321 220.889 256.32 223.651 253.444Z" fill="white"/>
<path d="M220.136 268.823C220.136 268.073 221.266 268.198 221.266 268.948C221.14 271.073 221.014 273.074 221.014 275.2C221.014 275.95 219.885 275.825 219.885 275.075C219.885 272.949 220.01 270.948 220.136 268.823Z" fill="white"/>
<path d="M225.408 263.196C225.533 262.446 226.663 262.571 226.538 263.321C226.287 265.322 225.91 267.323 225.659 269.323C225.533 270.073 224.404 269.948 224.529 269.198C224.78 267.197 225.031 265.197 225.408 263.196Z" fill="white"/>
<path d="M255.033 305.458C258.547 304.708 262.188 303.957 265.703 303.207C266.456 303.082 266.581 304.207 265.954 304.332C262.439 305.083 258.798 305.833 255.284 306.583C254.531 306.708 254.279 305.583 255.033 305.458Z" fill="white"/>
<path d="M247.25 312.71C248.756 311.334 250.137 309.959 251.643 308.709C251.894 308.459 252.271 308.584 252.396 308.834C252.648 309.084 252.522 309.459 252.271 309.584C250.765 310.959 249.384 312.335 247.877 313.585C247.626 313.835 247.25 313.71 247.124 313.46C246.873 313.335 246.999 312.96 247.25 312.71Z" fill="white"/>
<path d="M247.501 307.083C249.384 305.833 251.267 304.582 253.15 303.332C253.401 303.207 253.777 303.207 253.903 303.457C254.028 303.707 254.028 304.082 253.777 304.207C251.894 305.458 250.011 306.708 248.129 307.958C247.877 308.083 247.501 308.083 247.375 307.833C247.25 307.708 247.25 307.208 247.501 307.083Z" fill="white"/>
<path d="M283.653 248.067C285.662 245.692 287.796 243.191 289.804 240.815C290.306 240.315 291.185 240.94 290.683 241.44C288.674 243.816 286.54 246.317 284.532 248.692C284.03 249.192 283.151 248.567 283.653 248.067Z" fill="white"/>
<path d="M280.766 246.442C282.021 244.191 283.276 241.94 284.532 239.565C284.657 239.315 285.034 239.315 285.285 239.44C285.536 239.69 285.536 239.94 285.41 240.19L281.645 247.067C281.519 247.317 281.142 247.317 280.891 247.192C280.64 247.067 280.515 246.692 280.766 246.442Z" fill="white"/>
<path d="M314.407 250.693C316.416 249.818 318.424 248.817 320.433 247.942C321.186 247.567 322.316 247.942 322.692 248.692C323.069 249.568 322.692 250.568 321.939 250.943C319.931 251.818 317.922 252.818 315.914 253.694C315.161 254.069 314.031 253.694 313.654 252.943C313.278 252.068 313.654 251.068 314.407 250.693Z" fill="#2B2B39"/>
<path d="M293.068 249.068C293.444 248.192 294.323 247.817 295.202 248.067C297.838 248.817 300.474 249.568 303.235 250.443C304.114 250.693 304.616 251.818 304.24 252.568C303.863 253.444 302.984 253.819 302.106 253.569C299.47 252.819 296.833 252.068 294.072 251.193C293.193 251.068 292.691 249.943 293.068 249.068Z" fill="#2B2B39"/>
<path d="M319.805 259.195C318.557 259.195 317.546 257.908 317.546 256.319C317.546 254.731 318.557 253.444 319.805 253.444C321.053 253.444 322.065 254.731 322.065 256.319C322.065 257.908 321.053 259.195 319.805 259.195Z" fill="#2B2B39"/>
<path d="M298.591 259.195C297.343 259.195 296.331 257.908 296.331 256.319C296.331 254.731 297.343 253.444 298.591 253.444C299.839 253.444 300.85 254.731 300.85 256.319C300.85 257.908 299.839 259.195 298.591 259.195Z" fill="#2B2B39"/>
<path d="M321.939 258.32C321.939 258.32 318.675 277.45 335.998 289.578L343.404 286.328C328.341 271.949 328.969 255.069 328.969 255.069C324.324 257.195 321.939 258.32 321.939 258.32Z" fill="white"/>
<path d="M343.404 286.328L346.668 284.827L362.485 277.95L358.593 272.949C345.413 256.57 347.421 246.692 347.421 246.692C339.388 250.193 333.237 253.069 328.843 254.944C328.843 255.069 328.216 271.949 343.404 286.328Z" fill="#D03F23"/>
<path d="M346.668 284.827L375.916 317.336L383.322 309.709C374.912 303.957 362.485 278.075 362.485 278.075L346.668 284.827Z" fill="#D03F23"/>
<path d="M347.421 246.692C347.421 246.692 345.287 256.569 358.593 272.949L362.485 277.95C362.485 277.95 386.712 270.323 406.922 271.699C404.913 270.573 402.905 269.073 401.022 267.447C393.616 260.946 387.716 251.318 384.327 240.065C381.314 230.187 380.686 220.56 382.067 212.182C377.799 218.184 361.732 240.44 347.421 246.692Z" fill="white"/>
<path d="M381.816 212.307C380.435 220.56 381.063 230.312 384.076 240.19C387.465 251.318 393.49 261.071 400.771 267.572C402.779 269.323 404.662 270.698 406.671 271.824C410.562 274.074 414.579 275.2 418.345 275.2C420.228 275.2 421.985 274.949 423.868 274.449C438.68 269.948 444.957 247.192 437.802 223.811C430.647 200.429 412.696 185.05 397.884 189.551C389.473 192.177 383.825 200.804 381.816 212.307ZM387.339 239.065C380.686 217.434 385.958 196.678 399.013 192.677C400.52 192.177 402.026 192.052 403.532 192.052C415.583 192.052 428.889 205.556 434.789 224.686C441.442 246.317 436.17 267.072 423.115 271.073C416.964 272.949 409.809 270.823 403.156 264.947C396.252 258.945 390.603 249.693 387.339 239.065Z" fill="#D03F23"/>
<path d="M399.139 192.802C386.084 196.803 380.812 217.559 387.465 239.19C390.729 249.818 396.377 258.945 403.156 264.947C379.682 221.185 403.658 192.052 403.658 192.052C402.026 192.052 400.52 192.302 399.139 192.802Z" fill="#2B2B39"/>
<path d="M403.532 192.052C403.532 192.052 379.682 221.185 403.03 264.947C409.683 270.823 416.838 272.949 422.989 271.073C436.044 267.072 441.316 246.317 434.663 224.686C428.889 205.556 415.583 192.052 403.532 192.052Z" fill="#C8DBE8"/>
<path d="M353.698 284.952C352.442 285.702 351.187 286.703 349.932 287.828C344.032 292.829 346.919 315.586 346.919 315.586L339.262 326.714L355.957 337.717L360.225 322.462C369.514 319.212 368.51 308.084 368.51 308.084C368.51 308.084 372.276 305.083 374.912 302.582C377.548 300.081 371.774 297.706 371.774 297.706C371.774 297.706 373.531 294.83 374.033 292.704C374.535 290.454 366.251 290.704 366.251 290.704L367.38 288.703C372.276 288.453 374.786 280.951 367.38 281.076C361.606 281.201 357.84 282.202 353.698 284.952Z" fill="#E69573"/>
<path d="M355.832 298.081C357.589 294.58 360.727 291.954 364.619 290.954C365.372 290.829 365.497 291.829 364.87 292.079C361.48 292.954 358.468 295.33 356.961 298.456C356.585 299.081 355.581 298.706 355.832 298.081Z" fill="#2B2B39"/>
<path d="M360.1 302.832C363.363 301.082 366.753 299.206 370.016 297.456C370.644 297.08 371.146 298.081 370.519 298.456L360.602 303.832C359.849 304.207 359.472 303.207 360.1 302.832Z" fill="#2B2B39"/>
</g>
<defs>
<clipPath id="clip0_21_1996">
<rect width="451" height="461" fill="white" transform="matrix(-1 0 0 1 451 0)"/>
</clipPath>
</defs>
</svg>
