<svg width="650" height="434" viewBox="0 0 650 434" fill="none" xmlns="http://www.w3.org/2000/svg">
<g clip-path="url(#clip0_174_152)">
<g opacity="0.5">
<g opacity="0.5">
<g opacity="0.5">
<path opacity="0.5" d="M587.897 145.606C587.897 90.8081 542.361 30.6869 485.572 27.1381C484.53 27.0337 483.592 27.0337 482.55 26.9293C401.274 23.1717 395.022 122.434 321.561 133.603C247.996 144.771 172.034 91.2256 103.575 127.758C28.0298 168.152 3.43857 344.549 235.7 352.064C421.489 358.013 588.001 309.165 587.897 145.606Z" fill="#DBCCBA"/>
</g>
</g>
</g>
<path d="M602.902 99.8889C604.152 99.6801 605.402 99.2626 606.549 98.6364L610.404 102.916L615.093 98.7408L611.446 94.67C612.28 93.5219 613.009 92.3738 613.426 91.0168L619.782 91.4344L620.199 85.1717L614.259 84.8586C614.155 83.0842 613.634 81.4142 612.801 79.7441L617.073 75.8822L612.905 71.1852L608.841 74.8384C607.486 73.7946 606.028 73.064 604.569 72.5421L604.881 67.2189L598.629 66.8014L598.317 71.9158C596.441 72.1246 594.67 72.7509 593.003 73.7946L589.356 69.7239L584.667 73.899L588.522 78.1785C587.793 79.2222 587.272 80.3704 586.855 81.6229L580.811 81.3098L580.394 87.5724L586.23 87.8855C586.438 89.7643 587.063 91.5387 588.105 93.2088L584.041 96.862L588.209 101.559L592.482 97.697C593.732 98.532 595.191 99.1583 596.65 99.5758L596.337 105.421L602.589 105.838L602.902 99.8889ZM595.92 89.8687C593.836 87.468 594.045 83.8148 596.441 81.7273C598.838 79.6397 602.485 79.8485 604.569 82.2492C606.653 84.6499 606.444 88.303 604.048 90.3906C601.651 92.4781 598.004 92.2694 595.92 89.8687Z" fill="#DBCCBA"/>
<path d="M581.853 61.7913C582.583 61.6869 583.208 61.4781 583.833 61.165L585.917 63.5657L588.522 61.2694L586.542 58.9731C587.063 58.3468 587.376 57.7205 587.688 56.9899L591.231 57.1987L591.44 53.7542L588.209 53.5455C588.105 52.6061 587.897 51.6667 587.48 50.7273L589.877 48.6397L587.584 46.0303L585.292 48.0135C584.562 47.4916 583.729 47.0741 582.895 46.761L583.104 43.8384L579.665 43.6296L579.457 46.4478C578.415 46.5522 577.477 46.9697 576.539 47.4916L574.559 45.1953L571.954 47.4916L574.038 49.8923C573.621 50.5185 573.309 51.1448 573.1 51.7711L569.766 51.5623L569.558 55.0067L572.788 55.2155C572.892 56.2593 573.309 57.1987 573.83 58.1381L571.537 60.1212L573.83 62.7306L576.226 60.6431C576.956 61.0606 577.685 61.4781 578.519 61.6869L578.31 64.9226L581.749 65.1313L581.853 61.7913ZM577.998 56.2593C576.852 55.0067 576.956 52.9192 578.31 51.7711C579.561 50.6229 581.645 50.7273 582.791 52.0842C583.937 53.3367 583.833 55.4243 582.478 56.5724C581.124 57.7205 579.144 57.6162 577.998 56.2593Z" fill="#DBCCBA"/>
<path d="M39.596 281.609L44.5976 277.852L41.0548 273.155C42.0968 272.007 42.9304 270.754 43.4514 269.293L49.0782 270.128L49.9118 263.865L44.4934 263.135C44.3892 261.152 43.8682 259.377 43.1388 257.707L47.8278 254.158L44.0766 249.148L39.2834 252.801C38.3456 251.966 37.1994 251.34 36.0532 250.818L36.8868 245.182L30.6348 244.347L29.9054 249.774C27.9256 249.879 26.1542 250.401 24.487 251.131L21.361 247.061L16.3594 250.818L19.5896 255.098C18.5476 256.35 17.8182 257.811 17.2972 259.377L11.8788 258.646L11.0452 264.909L16.672 265.744C16.8804 267.519 17.5056 269.293 18.3392 270.754L13.6502 274.303L17.4014 279.313L22.5072 275.451C23.6534 276.286 24.7996 276.912 26.1542 277.33L25.4248 282.758L31.6768 283.593L32.5104 277.956C33.7608 277.747 35.0112 277.434 36.1574 277.017L39.596 281.609ZM29.697 269.397C26.571 268.98 24.3828 266.057 24.7996 262.926C25.2164 259.795 28.134 257.603 31.26 258.02C34.386 258.438 36.5742 261.36 36.1574 264.492C35.7406 267.727 32.823 269.919 29.697 269.397Z" fill="#DBCCBA"/>
<path d="M35.5322 234.953L38.2414 232.865L36.2616 230.256C36.7826 229.63 37.3036 228.899 37.6162 228.168L40.7422 228.586L41.159 225.141L38.2414 224.724C38.1372 223.68 37.9288 222.636 37.512 221.697L40.117 219.714L38.033 217L35.428 218.983C34.907 218.566 34.2818 218.148 33.6566 217.939L34.0734 214.808L30.6348 214.391L30.218 217.313C29.176 217.418 28.134 217.626 27.1962 218.044L25.529 215.852L22.8197 217.939L24.5912 220.236C24.0702 220.966 23.6533 221.697 23.3407 222.636L20.4231 222.219L20.0063 225.663L23.1323 226.081C23.2366 227.02 23.5491 227.96 24.0702 228.795L21.4651 230.778L23.5491 233.492L26.3626 231.404C26.9878 231.822 27.613 232.135 28.3424 232.448L27.9256 235.37L31.3642 235.788L31.781 232.657C32.5104 232.552 33.1356 232.343 33.7608 232.135L35.5322 234.953ZM30.0096 228.377C28.3424 228.168 27.092 226.603 27.3004 224.828C27.5088 223.158 29.0718 221.906 30.8432 222.114C32.5104 222.323 33.7608 223.889 33.5524 225.663C33.344 227.438 31.781 228.586 30.0096 228.377Z" fill="#DBCCBA"/>
<path d="M334.482 434C504.537 434 642.393 428.626 642.393 421.997C642.393 415.367 504.537 409.993 334.482 409.993C164.428 409.993 26.571 415.367 26.571 421.997C26.571 428.626 164.428 434 334.482 434Z" fill="#DBCCBA"/>
<path d="M147.235 392.04L148.485 401.852H160.885L161.614 391.519L147.235 392.04Z" fill="#A75436"/>
<path d="M180.475 390.475L181.933 401.852H194.437L193.916 390.162L180.475 390.475Z" fill="#A75436"/>
<path d="M225.072 421.475H178.078C177.765 420.848 177.557 419.909 177.453 418.865C177.14 414.899 178.391 408.532 179.016 404.566C179.12 404.148 179.12 403.626 179.224 403.313C179.328 402.687 179.328 402.061 179.328 401.643C179.328 398.407 182.246 398.929 182.246 398.929C187.039 403.626 192.353 396.633 195.479 398.929C195.479 398.929 196.834 399.869 200.585 403.313C204.336 406.653 210.693 408.845 216.111 411.141C223.092 414.064 225.072 416.987 225.489 418.97C225.802 420.431 225.072 421.475 225.072 421.475Z" fill="#CCC0B2"/>
<path d="M225.072 421.475H178.078C177.765 420.848 177.557 419.909 177.453 418.865H225.489C225.802 420.431 225.072 421.475 225.072 421.475Z" fill="#CCC0B2"/>
<path d="M182.871 421.475H181.517C182.871 419.909 184.226 417.404 184.017 413.96C183.809 409.263 180.996 406.131 179.12 404.566C179.224 404.148 179.224 403.626 179.328 403.313C181.412 404.879 184.955 408.428 185.164 413.96C185.268 417.195 184.226 419.7 182.871 421.475Z" fill="#CCC0B2"/>
<path d="M199.856 405.923C199.543 405.923 199.231 405.714 199.126 405.296C199.022 404.879 199.231 404.461 199.647 404.357L202.565 403.626C202.982 403.522 203.399 403.731 203.503 404.148C203.607 404.566 203.399 404.983 202.982 405.088L200.064 405.818C199.96 405.923 199.856 405.923 199.856 405.923Z" fill="#F5EFE0"/>
<path d="M196.938 403.522C196.626 403.522 196.313 403.313 196.209 402.896C196.105 402.478 196.313 402.061 196.73 401.956L199.647 401.226C200.064 401.121 200.481 401.33 200.585 401.747C200.689 402.165 200.481 402.582 200.064 402.687L197.147 403.418C197.042 403.522 196.938 403.522 196.938 403.522Z" fill="#F5EFE0"/>
<path d="M202.773 407.697C202.461 407.697 202.148 407.488 202.044 407.071C201.94 406.653 202.148 406.236 202.565 406.131L205.483 405.401C205.899 405.296 206.316 405.505 206.42 405.923C206.525 406.34 206.316 406.758 205.899 406.862L202.982 407.593C202.878 407.593 202.878 407.697 202.773 407.697Z" fill="#F5EFE0"/>
<path d="M205.691 409.263C205.378 409.263 205.066 409.054 204.962 408.636C204.857 408.219 205.066 407.801 205.483 407.697L208.4 406.966C208.817 406.862 209.234 407.071 209.338 407.488C209.442 407.906 209.234 408.323 208.817 408.428L205.899 409.158C205.795 409.263 205.795 409.263 205.691 409.263Z" fill="#F5EFE0"/>
<path d="M208.921 410.828C208.609 410.828 208.296 410.62 208.192 410.202C208.088 409.785 208.296 409.367 208.713 409.263L211.63 408.532C212.047 408.428 212.464 408.636 212.568 409.054C212.672 409.471 212.464 409.889 212.047 409.993L209.13 410.724C209.025 410.828 209.025 410.828 208.921 410.828Z" fill="#F5EFE0"/>
<path d="M212.36 412.081C212.047 412.081 211.735 411.872 211.63 411.455C211.526 411.037 211.735 410.62 212.151 410.515L215.069 409.785C215.486 409.68 215.903 409.889 216.007 410.306C216.111 410.724 215.903 411.141 215.486 411.246L212.568 411.976C212.464 412.081 212.464 412.081 212.36 412.081Z" fill="#F5EFE0"/>
<path d="M127.958 224.306C128.062 224.828 128.166 225.246 128.375 225.768C128.375 225.768 128.375 225.768 128.375 225.872C128.583 226.498 128.791 227.125 129 227.751C131.084 232.865 147.339 233.7 163.386 231.926C175.786 230.569 188.081 227.646 193.5 223.993C198.605 220.653 187.769 189.444 187.769 189.444L127.02 202.178C127.02 201.97 125.665 215.017 127.958 224.306Z" fill="#2D2D2D"/>
<path d="M164.532 231.613L174.535 317.724C172.243 332.232 178.391 391.519 178.391 391.519L196.313 390.997L201.523 312.401C201.419 289.646 199.022 258.229 195.479 223.889C195.375 223.367 195.375 222.845 195.271 222.323C195.063 220.549 194.958 218.774 194.75 217C194.75 216.478 194.646 216.061 194.646 215.539L188.811 218.253L187.352 218.879L164.428 229.525L164.532 231.613Z" fill="#2D2D2D"/>
<path d="M181.204 389.013C181.308 389.013 181.308 389.013 181.204 389.013C181.725 388.909 182.038 388.596 181.933 388.178C175.577 336.407 179.745 315.115 179.745 314.906C179.745 314.801 179.745 314.697 179.745 314.697L169.013 232.657C168.908 232.239 168.596 231.926 168.179 232.03C167.762 232.135 167.45 232.448 167.554 232.865L178.286 314.801C177.974 316.68 174.327 338.495 180.475 388.492C180.579 388.7 180.891 389.013 181.204 389.013Z" fill="#514933"/>
<path d="M180.787 205.623C180.891 206.04 182.35 213.66 187.248 219.088C188.29 220.131 189.332 221.175 190.686 222.01C191.728 222.636 192.77 223.158 193.812 223.576C194.333 223.785 194.854 223.889 195.375 223.993C195.271 223.471 195.271 222.949 195.167 222.428C194.958 222.323 194.646 222.323 194.437 222.219C193.395 221.906 192.353 221.384 191.416 220.758C190.374 220.131 189.436 219.296 188.602 218.461C183.705 213.347 182.142 205.519 182.142 205.414C182.038 204.997 181.725 204.788 181.308 204.788C180.996 204.788 180.787 205.205 180.787 205.623Z" fill="#514933"/>
<path d="M168.596 228.481C168.596 228.795 168.387 229.108 167.971 229.108C167.658 229.108 167.345 228.899 167.345 228.586C167.241 226.29 167.137 223.993 166.929 221.697C166.929 221.279 166.929 220.862 166.824 220.444C166.303 212.929 165.678 205.518 165.261 200.3C165.261 199.882 165.157 199.465 165.157 199.047C165.053 197.899 164.949 196.855 164.845 196.02C165.261 195.916 165.678 195.916 166.095 195.811C166.199 196.646 166.303 197.69 166.408 198.838C166.408 199.256 166.512 199.673 166.512 200.091C166.929 205.31 167.554 212.616 168.075 220.027C168.075 220.444 168.179 220.862 168.179 221.279C168.283 223.785 168.387 226.185 168.596 228.481Z" fill="#514933"/>
<path d="M170.367 220.549C170.159 220.653 169.325 221.071 168.179 221.384C167.762 221.488 167.345 221.593 166.929 221.697C166.512 221.801 166.095 221.801 165.782 221.801C165.053 221.801 164.324 221.801 163.698 221.488C162.969 221.175 162.448 220.444 162.24 219.609C161.823 217.313 160.885 207.71 160.156 200.926C160.156 200.508 160.051 200.091 160.051 199.673C159.947 198.63 159.843 197.586 159.739 196.751C160.156 196.751 160.572 196.646 160.989 196.646C161.093 197.481 161.198 198.525 161.302 199.569C161.302 199.987 161.406 200.404 161.406 200.822C162.031 207.606 162.969 217.104 163.386 219.401C163.49 219.923 163.698 220.236 164.115 220.444C164.74 220.758 165.782 220.653 166.72 220.444C167.137 220.34 167.554 220.236 167.971 220.131C168.7 219.923 169.325 219.609 169.638 219.505C169.95 219.401 170.367 219.505 170.471 219.818C170.784 220.027 170.576 220.444 170.367 220.549Z" fill="#514933"/>
<path d="M127.124 212.094C127.124 212.094 127.541 216.896 128.27 224.306C128.27 224.724 128.375 225.246 128.375 225.768C128.375 225.768 128.375 225.768 128.375 225.872C128.375 226.394 128.479 226.811 128.479 227.333C130.25 246.017 133.168 277.121 135.148 292.047C135.148 292.047 134.835 320.125 135.877 341.835C136.815 361.98 143.796 386.195 144.734 392.145H163.177L163.386 389.535V221.906C163.386 221.906 155.05 217.939 146.193 214.912C145.672 214.704 145.255 214.599 144.734 214.391C143.796 214.077 142.858 213.764 142.025 213.556C141.504 213.451 141.087 213.242 140.566 213.138C135.043 211.572 129.938 210.842 127.124 212.094Z" fill="#2D2D2D"/>
<path d="M146.818 391.205H146.922C147.339 391.101 147.547 390.683 147.547 390.37C147.547 390.057 142.442 363.859 140.253 349.037C138.065 334.215 139.107 292.569 139.211 292.152V292.047C137.544 278.165 134.21 230.047 134.21 229.525C134.21 229.108 133.793 228.795 133.376 228.795C132.959 228.795 132.647 229.212 132.647 229.63C132.647 230.152 135.981 278.061 137.648 292.152C137.648 293.926 136.606 334.529 138.795 349.246C140.983 364.172 146.089 390.37 146.089 390.683C146.089 390.997 146.401 391.205 146.818 391.205Z" fill="#514933"/>
<path d="M166.095 418.448C166.095 418.552 166.095 418.657 166.095 418.761C166.095 419.283 166.095 419.7 165.991 420.118C165.991 420.953 165.887 421.475 165.887 421.475H137.857C137.857 421.475 137.753 420.431 137.857 418.761C138.065 415.943 139.003 411.35 142.858 408.428C148.173 404.357 146.089 405.192 147.235 403.313C147.339 403.104 148.277 399.973 148.381 399.764C149.319 397.781 150.152 396.946 155.154 396.946C161.823 396.946 162.344 400.182 163.073 401.852C163.386 402.582 163.803 404.044 164.219 405.818C164.428 406.549 164.532 407.279 164.74 408.01C165.157 409.993 165.574 411.976 165.782 413.542C166.095 415.212 166.095 416.987 166.095 418.448Z" fill="#CCC0B2"/>
<path d="M166.095 418.448C166.095 418.552 166.095 418.657 166.095 418.761C166.095 419.283 166.095 419.7 165.991 420.118C164.636 419.178 163.698 417.926 163.073 416.36C161.302 411.663 164.011 405.923 164.115 405.714H164.219C164.428 406.444 164.532 407.175 164.74 407.906C164.115 409.784 163.386 413.125 164.428 415.838C164.74 416.882 165.366 417.717 166.095 418.448Z" fill="#CCC0B2"/>
<path d="M166.095 418.761C166.095 420.327 165.887 421.475 165.887 421.475H137.857C137.857 421.475 137.753 420.431 137.857 418.761H166.095Z" fill="#CCC0B2"/>
<path d="M156.092 405.609C155.988 405.609 155.988 405.609 155.883 405.609C152.341 404.67 149.423 405.505 149.423 405.505C149.006 405.609 148.589 405.401 148.485 404.983C148.381 404.566 148.589 404.148 149.006 404.044C149.11 404.044 152.341 403.104 156.3 404.148C156.717 404.253 157.03 404.67 156.821 405.088C156.821 405.296 156.404 405.609 156.092 405.609Z" fill="#F5EFE0"/>
<path d="M156.509 402.583C156.404 402.583 156.404 402.583 156.3 402.583C152.757 401.643 149.84 402.478 149.84 402.478C149.423 402.582 149.006 402.374 148.902 401.956C148.798 401.539 149.006 401.121 149.423 401.017C149.527 401.017 152.757 400.077 156.717 401.121C157.134 401.226 157.446 401.643 157.238 402.061C157.238 402.269 156.925 402.583 156.509 402.583Z" fill="#F5EFE0"/>
<path d="M154.946 408.114C154.841 408.114 154.841 408.114 154.737 408.114C151.194 407.175 148.277 408.01 148.277 408.01C147.86 408.114 147.443 407.906 147.339 407.488C147.235 407.071 147.443 406.653 147.86 406.549C147.964 406.549 151.194 405.609 155.154 406.653C155.571 406.758 155.883 407.175 155.675 407.593C155.571 407.906 155.258 408.114 154.946 408.114Z" fill="#F5EFE0"/>
<path d="M153.487 410.933C153.383 410.933 153.383 410.933 153.278 410.933C149.736 409.993 146.818 410.828 146.818 410.828C146.401 410.933 145.984 410.724 145.88 410.306C145.776 409.889 145.984 409.471 146.401 409.367C146.505 409.367 149.736 408.428 153.695 409.471C154.112 409.576 154.425 409.993 154.216 410.411C154.216 410.724 153.799 410.933 153.487 410.933Z" fill="#F5EFE0"/>
<path d="M128.375 225.768C128.479 226.29 128.479 226.811 128.479 227.333C130.563 227.646 132.647 227.542 134.627 226.811C138.482 225.455 141.4 222.323 143.588 219.192C144.63 217.731 145.463 216.269 146.089 214.912C147.235 212.721 147.756 211.155 147.86 210.946C147.964 210.529 147.756 210.111 147.443 210.007C147.026 209.902 146.61 210.111 146.505 210.424C146.505 210.424 145.88 212.199 144.734 214.391C144.109 215.539 143.275 216.896 142.337 218.253C140.253 221.175 137.544 224.098 134.106 225.246C132.334 225.976 130.354 226.185 128.375 225.768Z" fill="#514933"/>
<path d="M140.045 232.761C140.67 232.761 141.4 232.657 142.025 232.448C150.986 230.152 150.465 208.441 150.465 207.502H149.319C149.319 207.71 149.84 229.212 141.712 231.3C139.732 231.822 138.065 231.508 136.502 230.36C129.521 225.141 128.896 204.892 128.791 204.684H127.645C127.645 205.519 128.375 225.663 135.773 231.3C137.127 232.239 138.586 232.761 140.045 232.761Z" fill="#F5EFE0"/>
<path d="M195.688 196.855C194.958 197.481 194.229 198.108 193.5 198.734C193.291 198.838 193.083 199.047 192.979 199.152C191.728 200.091 190.374 201.03 188.915 201.865C188.706 201.97 188.498 202.074 188.29 202.283C182.767 205.414 175.994 207.815 168.596 209.276C166.824 209.589 165.157 209.902 163.386 210.111C161.406 210.32 159.322 210.529 157.238 210.633C155.675 210.737 154.216 210.737 152.653 210.633C152.341 210.633 152.028 210.633 151.715 210.633C142.754 210.32 133.584 208.441 125.353 204.475C125.248 204.475 125.144 204.37 125.04 204.37C124.936 204.162 124.936 204.057 124.832 203.848C123.164 198.734 121.393 186.731 120.143 176.502C120.143 176.293 120.038 176.084 120.038 175.771C119.517 171.283 118.996 167.212 118.684 164.29C118.684 163.976 118.58 163.768 118.58 163.559C118.475 163.037 118.475 162.62 118.475 162.306C118.267 160.741 118.163 159.175 118.059 157.505C117.538 149.886 117.642 142.162 118.059 134.125L118.163 132.768C118.163 132.663 118.163 132.559 118.163 132.35C118.163 132.141 118.163 131.828 118.163 131.62C118.267 129.323 118.371 127.131 118.58 124.731C118.58 124.522 118.58 124.209 118.58 124C118.788 120.034 119.101 116.067 119.309 111.892C120.038 100.62 123.164 92.6869 128.479 89.1381C128.687 88.9293 129 88.8249 129.208 88.7206C130.458 87.9899 131.917 87.468 133.48 87.2593C136.19 86.8418 138.586 86.1111 140.462 85.3805C141.295 85.0674 142.025 84.7542 142.65 84.4411C142.962 84.3367 143.171 84.2323 143.483 84.0236C146.193 82.6667 147.756 81.4142 147.756 81.4142H166.408C167.971 83.7105 170.055 85.2761 172.243 86.3199C172.451 86.4243 172.764 86.5286 172.972 86.633C173.389 86.8418 173.702 86.9461 174.118 87.0505C174.952 87.3637 175.89 87.6768 176.723 87.8855C176.932 87.9899 177.244 87.9899 177.453 88.0943C182.663 89.5556 187.664 90.5993 188.915 96.862C189.54 99.8889 188.394 104.69 187.456 112.623C187.456 112.936 187.352 113.249 187.352 113.562C187.143 115.024 187.039 116.485 186.935 118.155C186.935 118.468 186.935 118.677 186.831 118.99C186.518 123.061 186.31 127.758 186.414 133.185C186.414 134.751 186.518 136.317 186.622 137.987C186.727 139.552 186.831 141.118 186.935 142.788C187.039 144.354 187.143 145.919 187.352 147.589C187.456 149.051 187.664 150.512 187.873 151.973C187.977 152.912 188.081 153.852 188.29 154.896C188.29 155.209 188.394 155.418 188.394 155.731C188.394 156.044 188.498 156.461 188.498 156.774C188.706 158.131 188.915 159.801 189.227 161.785C189.227 161.993 189.332 162.202 189.332 162.515C189.644 164.707 190.061 167.212 190.478 169.926C190.478 170.135 190.582 170.448 190.582 170.657C191.416 175.667 192.458 181.199 193.395 186.313C193.5 186.626 193.5 186.939 193.604 187.253C194.229 190.697 194.958 194.037 195.688 196.855Z" fill="#D64820"/>
<path d="M160.781 94.9832C153.278 94.9832 147.651 86.8418 147.339 86.5286C147.13 86.3199 147.235 86.0067 147.443 85.798C147.651 85.5892 147.964 85.6936 148.172 85.9024C148.277 86.0068 154.008 94.2525 161.197 93.9394C168.179 93.6263 169.846 88.0943 169.95 87.7812C170.055 87.468 170.263 87.3637 170.575 87.468C170.888 87.5724 170.992 87.7812 170.888 88.0943C170.888 88.1987 169.012 94.5657 161.197 94.9832C161.093 94.9832 160.989 94.9832 160.781 94.9832Z" fill="#2D2D2D"/>
<path d="M171.201 190.697C164.219 190.697 156.509 188.714 148.485 184.747C137.44 179.32 129.417 172.013 129.312 171.909C129.104 171.7 129.104 171.387 129.312 171.178C129.521 170.97 129.833 170.97 130.042 171.178C130.146 171.283 138.065 178.485 149.006 183.808C159.009 188.714 173.702 193.098 186.622 185.687C186.831 185.582 187.143 185.583 187.352 185.896C187.456 186.104 187.456 186.418 187.143 186.626C182.246 189.34 176.932 190.697 171.201 190.697Z" fill="#2D2D2D"/>
<path d="M172.764 184.747C172.659 184.747 172.764 184.747 172.764 184.747C161.823 184.539 152.861 169.926 152.549 169.3C152.445 169.091 152.445 168.778 152.757 168.569C152.966 168.465 153.278 168.465 153.487 168.778C153.591 168.882 162.448 183.495 172.868 183.704C173.18 183.704 173.389 183.912 173.389 184.226C173.285 184.539 172.972 184.747 172.764 184.747Z" fill="#2D2D2D"/>
<path d="M131.396 161.158C129.833 163.559 127.124 165.229 123.477 165.229C122.018 165.229 120.351 164.916 118.684 164.29C118.684 163.976 118.58 163.768 118.58 163.559C124.311 165.751 128.791 163.976 130.875 160.845C132.855 157.818 132.23 154.269 129.521 152.182C125.77 149.364 126.812 147.067 127.854 144.667C128.896 142.266 129.938 139.761 127.437 136.108C125.978 133.916 124.102 132.663 121.914 132.246C120.56 132.037 119.309 132.141 118.163 132.455C118.163 132.246 118.163 131.933 118.163 131.724C119.309 131.515 120.56 131.411 121.914 131.62C124.207 132.037 126.291 133.394 127.854 135.795C130.667 139.865 129.417 142.684 128.375 145.084C127.333 147.485 126.603 149.259 129.833 151.764C133.272 154.165 133.168 158.34 131.396 161.158Z" fill="#2D2D2D"/>
<path d="M155.571 136.317C149.631 134.02 149.631 130.367 149.631 126.088C149.631 122.017 149.631 117.424 144.526 113.145C144.421 113.04 144.317 112.936 144.213 112.936C142.233 111.37 139.628 111.266 137.544 112.727C135.46 114.189 134.627 116.589 135.46 118.99C136.815 123.061 136.919 128.593 135.877 135.168C135.148 139.552 136.398 143.623 139.316 146.754C143.171 150.825 149.736 152.912 154.529 152.912C155.154 152.912 155.675 152.912 156.3 152.808C159.947 152.391 162.865 149.572 163.282 146.024C163.803 142.057 160.885 138.404 155.571 136.317ZM162.656 146.024C162.24 149.155 159.635 151.764 156.3 152.182C151.507 152.808 144.109 150.721 139.837 146.337C136.919 143.31 135.877 139.657 136.502 135.377C137.023 132.35 137.232 129.636 137.232 127.131C137.232 124 136.815 121.182 136.085 118.886C135.356 116.798 136.085 114.606 137.857 113.354C138.69 112.727 139.628 112.519 140.566 112.519C141.608 112.519 142.65 112.936 143.588 113.667C143.692 113.771 143.796 113.875 143.9 113.875C148.694 117.842 148.694 122.121 148.798 126.192C148.798 130.471 148.798 134.646 155.154 137.047C160.364 138.926 163.073 142.266 162.656 146.024Z" fill="#2D2D2D"/>
<path d="M178.703 114.606C174.327 113.771 170.68 110.535 170.263 108.343C170.159 107.717 170.367 107.195 170.888 106.882C175.473 104.064 176.828 100.306 175.994 92.7913C175.786 91.0168 176.202 89.4512 177.244 88.303C177.244 88.1987 177.349 88.1987 177.349 88.0943C177.14 87.9899 176.828 87.9899 176.619 87.8855C175.577 89.1381 175.056 90.8081 175.265 92.7913C175.994 99.9933 174.744 103.542 170.471 106.152C169.742 106.569 169.429 107.404 169.534 108.343C169.95 110.848 173.806 114.189 178.495 115.232C179.224 115.337 180.058 115.441 180.996 115.441C182.871 115.441 185.059 115.024 187.248 113.562C187.248 113.249 187.352 112.936 187.352 112.623C184.017 115.128 180.683 115.024 178.703 114.606Z" fill="#2D2D2D"/>
<path d="M159.53 103.855C157.863 101.768 155.362 100.724 152.757 100.933C150.569 101.141 149.215 102.29 148.694 104.168C148.068 106.673 149.736 107.613 151.403 108.657C153.278 109.805 155.154 110.953 154.946 114.189C154.737 117.32 156.092 119.721 158.488 120.451C159.009 120.556 159.426 120.66 159.947 120.66C161.302 120.66 162.656 120.034 163.282 118.99C165.887 114.606 162.448 107.404 159.53 103.855ZM162.761 118.572C162.031 119.721 160.364 120.242 158.801 119.721C156.717 119.094 155.571 117.007 155.779 114.189C155.988 110.431 153.695 109.074 151.82 108.03C150.152 106.987 148.902 106.36 149.423 104.377C149.84 102.811 150.986 101.872 152.862 101.663C153.07 101.663 153.383 101.663 153.591 101.663C155.675 101.663 157.655 102.603 159.009 104.377C161.719 107.613 165.157 114.502 162.761 118.572Z" fill="#2D2D2D"/>
<path d="M176.515 131.933C175.16 128.175 171.513 125.879 167.658 126.296C165.366 126.609 164.011 127.653 163.698 129.532C163.282 132.141 165.261 133.498 167.241 134.855C169.534 136.421 171.722 137.882 170.263 141.327C169.013 144.249 169.117 146.441 170.471 147.38C170.888 147.694 171.513 147.902 172.034 147.902C173.493 147.902 175.16 147.067 176.828 145.606C177.974 144.562 178.391 142.997 178.391 141.118C178.391 138.195 177.557 134.751 176.515 131.933ZM176.411 144.98C174.327 146.859 172.034 147.589 170.888 146.754C169.846 146.024 169.846 144.145 170.888 141.535C172.555 137.673 169.846 135.795 167.554 134.229C165.678 132.976 163.907 131.724 164.324 129.636C164.532 128.071 165.678 127.236 167.658 126.923C167.971 126.923 168.283 126.923 168.492 126.923C170.055 126.923 171.618 127.444 172.868 128.384C174.118 129.323 175.16 130.576 175.681 132.141C178.182 138.717 178.391 143.205 176.411 144.98Z" fill="#2D2D2D"/>
<path d="M190.374 169.717C187.039 169.3 186.31 171.283 185.372 173.579C184.538 175.562 183.601 177.859 180.683 179.215C177.14 180.886 173.285 179.111 171.409 176.606C169.95 174.727 169.221 171.7 171.409 169.3C172.451 168.152 172.868 167.108 172.764 166.064C172.66 164.707 171.513 163.663 170.367 162.724C168.908 161.471 167.45 160.323 167.971 158.236C168.387 156.566 169.534 155.418 171.201 154.896C171.826 154.687 172.451 154.687 173.076 154.687C175.681 154.687 178.599 156.044 180.996 158.444C183.913 161.367 187.039 162.202 189.227 162.306C189.227 162.098 189.123 161.785 189.123 161.576C187.039 161.367 184.122 160.532 181.412 157.923C178.286 154.791 174.118 153.33 170.888 154.269C168.908 154.791 167.658 156.148 167.241 158.131C166.72 160.532 168.387 161.993 169.846 163.246C170.888 164.185 171.93 165.02 172.034 166.168C172.139 166.899 171.722 167.838 170.784 168.882C168.7 171.283 168.7 174.414 170.784 177.128C172.347 179.111 174.952 180.677 177.765 180.677C178.807 180.677 179.954 180.468 180.996 179.946C184.122 178.485 185.164 175.98 185.997 173.892C186.935 171.596 187.56 170.03 190.478 170.448C190.374 170.239 190.374 170.03 190.374 169.717Z" fill="#2D2D2D"/>
<path d="M161.927 163.559C161.927 163.455 161.51 160.01 159.114 158.444C157.863 157.609 156.404 157.505 154.737 157.923C151.299 158.862 149.527 158.027 147.443 156.983C146.089 156.357 144.525 155.626 142.441 155.313C139.42 155 137.648 157.192 137.336 159.279C136.919 161.68 138.065 164.603 141.608 165.333C144.734 166.064 146.922 165.229 148.693 164.603C150.465 163.976 151.82 163.455 153.487 164.707C155.154 165.96 156.925 166.586 158.488 166.586C159.218 166.586 159.843 166.482 160.364 166.168C161.406 165.751 161.927 164.811 161.927 163.559ZM160.051 165.646C158.593 166.377 156.092 165.855 153.904 164.185C152.966 163.559 152.132 163.246 151.403 163.246C150.465 163.246 149.527 163.559 148.485 163.976C146.714 164.603 144.734 165.333 141.712 164.707C138.69 163.976 137.648 161.471 137.961 159.384C138.273 157.505 139.732 155.731 142.337 155.939C144.317 156.148 145.776 156.879 147.13 157.505C149.214 158.549 151.194 159.488 154.841 158.444C156.3 158.027 157.655 158.131 158.697 158.862C160.677 160.219 161.198 163.246 161.198 163.455C161.198 164.603 160.885 165.229 160.051 165.646Z" fill="#2D2D2D"/>
<path d="M127.749 187.044C129.208 185.582 130.98 183.808 129.938 180.259C129.417 178.485 128.375 177.232 126.916 176.397C124.728 175.249 121.914 175.458 119.934 175.771C119.934 175.98 120.039 176.189 120.039 176.502C120.872 176.397 121.81 176.293 122.748 176.293C124.102 176.293 125.457 176.502 126.603 177.128C127.958 177.859 128.896 179.007 129.312 180.572C130.25 183.704 128.791 185.269 127.333 186.731C125.77 188.296 124.311 189.758 127.228 192.889C130.146 196.02 130.042 200.091 128.375 202.283C127.437 203.431 126.291 203.953 124.832 203.953C124.936 204.162 124.936 204.266 125.04 204.475C125.144 204.579 125.249 204.579 125.353 204.579C126.812 204.475 128.062 203.848 129 202.7C130.875 200.3 130.98 195.707 127.854 192.367C125.249 189.549 126.186 188.609 127.749 187.044Z" fill="#2D2D2D"/>
<path d="M185.789 197.273C184.017 196.125 181.829 196.02 179.12 196.96C175.577 198.108 174.223 199.987 173.181 201.552C171.618 203.744 170.68 205.101 164.115 202.596C157.134 199.882 152.132 201.448 150.465 204.057C149.215 206.04 149.631 208.441 151.611 210.737C151.924 210.737 152.236 210.737 152.549 210.737C150.465 208.545 149.944 206.145 150.986 204.37C151.924 202.909 154.008 201.865 157.134 201.865C159.009 201.865 161.302 202.283 163.803 203.327C170.471 205.936 171.826 204.579 173.702 202.074C174.744 200.508 175.994 198.838 179.328 197.795C181.829 196.96 183.809 197.064 185.372 198.108C187.248 199.256 187.977 201.448 188.185 202.596C188.394 202.492 188.602 202.387 188.811 202.178C188.602 200.717 187.769 198.525 185.789 197.273Z" fill="#2D2D2D"/>
<path d="M146.193 195.603C143.9 194.663 144.109 194.037 144.526 192.576C144.838 191.428 145.255 189.862 144.421 187.566C144.005 186.313 143.171 185.374 142.025 184.956C139.316 183.808 135.773 185.583 135.564 185.687C135.564 185.687 135.564 185.687 135.46 185.687C132.334 187.983 132.751 191.636 133.689 195.29C134.835 199.987 137.857 202.805 142.129 203.118C142.233 203.118 142.337 203.118 142.442 203.118C145.151 203.118 147.652 201.03 148.173 199.047C148.694 197.482 147.86 196.333 146.193 195.603ZM147.652 198.838C147.235 200.613 144.838 202.596 142.337 202.387C137.336 202.074 135.356 198.212 134.522 195.081C133.376 190.384 133.793 187.879 135.981 186.209C136.294 186 139.524 184.643 141.816 185.583C142.754 186 143.379 186.731 143.796 187.774C144.526 189.862 144.213 191.219 143.9 192.367C143.484 194.037 143.379 195.081 145.984 196.229C147.339 196.751 147.86 197.69 147.652 198.838Z" fill="#2D2D2D"/>
<path d="M193.395 198.734C191.728 197.481 190.79 195.916 190.686 194.141C190.478 191.428 192.145 188.714 193.395 187.044C193.291 186.731 193.291 186.418 193.187 186.104C191.832 187.879 189.748 191.01 189.957 194.141C190.061 196.125 190.999 197.795 192.874 199.152C193.187 199.047 193.291 198.943 193.395 198.734C193.5 198.734 193.5 198.734 193.395 198.734Z" fill="#2D2D2D"/>
<path d="M165.678 115.232C167.033 114.919 168.179 114.189 169.117 113.04C174.431 106.152 170.471 85.4848 170.263 84.6498C170.159 84.2323 169.742 83.9192 169.325 84.0236C168.908 84.1279 168.596 84.5455 168.7 84.963C168.7 85.1717 172.764 105.734 167.762 112.101C166.929 113.145 165.887 113.771 164.636 113.875C156.509 114.397 148.485 91.9562 146.088 83.2929C145.984 82.8754 145.568 82.6667 145.151 82.771C144.734 82.8754 144.526 83.2929 144.63 83.7104C144.63 83.8148 146.922 91.7475 150.361 99.5758C155.154 110.327 160.051 115.65 164.74 115.337C165.157 115.337 165.366 115.337 165.678 115.232Z" fill="#F5EFE0"/>
<path d="M150.986 52.9192L148.172 41.2289C148.172 41.2289 145.046 37.2626 149.423 34.2357C153.799 31.2087 158.488 33.7138 158.488 33.7138C158.488 33.7138 159.53 28.7037 163.386 27.8687C167.137 27.0337 169.117 31.835 169.117 31.835C169.117 31.835 171.305 27.2424 175.473 27.9731C179.641 28.7037 178.599 33.1919 178.599 33.1919C178.599 33.1919 183.392 29.9562 186.518 32.67C189.644 35.3838 184.955 40.8114 184.955 40.8114C184.955 40.8114 189.332 41.9596 188.706 45.1953C188.081 48.431 183.288 49.0572 183.288 49.0572L180.266 60.5387L150.986 52.9192Z" fill="#2D2D2D"/>
<path d="M173.493 61.8956C173.493 61.8956 176.098 57.1986 179.954 59.0774C183.809 61.0606 181.308 74.734 173.597 72.7508L173.493 61.8956Z" fill="#CCC0B2"/>
<path d="M148.068 82.0404C148.068 82.0404 146.714 83.5017 153.695 87.468C157.446 89.5556 162.448 89.6599 165.157 88.8249C166.303 88.5118 166.929 88.1986 166.929 88.1986C167.137 82.1448 169.013 78.7003 169.429 77.8653C169.534 77.7609 169.534 77.6566 169.534 77.6566L152.236 63.1481L148.068 82.0404Z" fill="#A75436"/>
<path d="M153.278 71.4983C153.278 71.4983 154.841 85.5892 165.157 88.8249C166.303 88.5118 166.929 88.1987 166.929 88.1987C167.137 82.1448 169.013 78.7003 169.429 77.8653L153.278 71.4983Z" fill="#2D2D2D"/>
<path d="M159.218 80.1616C166.929 83.6061 174.223 81.6229 176.619 74.8384C177.244 73.1683 177.87 70.7677 178.495 68.2626C178.495 68.2626 178.495 68.2626 178.495 68.1582C178.599 67.6364 178.703 67.1145 178.912 66.4882C179.016 66.0707 179.12 65.6532 179.224 65.3401C180.266 60.8518 181.1 56.6768 181.1 56.6768C182.559 45.1953 172.451 38.4108 162.552 40.6027C152.653 42.7946 152.966 57.1987 151.403 63.8788C149.84 70.7677 152.653 77.2391 159.218 80.1616Z" fill="#A75436"/>
<path d="M172.555 68.5757C172.555 68.5757 167.658 67.4276 164.324 65.7576C164.324 65.7576 162.656 71.1852 167.345 72.0202C171.201 72.7508 172.555 68.5757 172.555 68.5757Z" fill="#F5EFE0"/>
<path d="M166.824 58.6599C166.616 59.3906 166.095 59.9124 165.678 59.8081C165.261 59.7037 165.053 58.973 165.261 58.2424C165.47 57.5118 165.991 56.9899 166.408 57.0943C166.824 57.0943 167.033 57.8249 166.824 58.6599Z" fill="#2D2D2D"/>
<path d="M175.681 60.8518C175.473 61.5825 174.952 62.1044 174.535 62C174.118 61.8956 173.91 61.165 174.118 60.4343C174.327 59.7037 174.848 59.1818 175.265 59.2862C175.681 59.3906 175.89 60.0168 175.681 60.8518Z" fill="#2D2D2D"/>
<path d="M167.762 73.4815C167.762 73.4815 167.866 73.5859 167.866 73.6902C167.971 73.899 167.866 74.1077 167.658 74.2121C167.554 74.2121 165.887 74.8384 164.324 73.2727C164.219 73.064 164.219 72.8552 164.324 72.7508C164.532 72.6465 164.74 72.6465 164.845 72.7508C165.991 74.0034 167.345 73.5859 167.345 73.5859C167.554 73.3771 167.658 73.3771 167.762 73.4815Z" fill="#CCC0B2"/>
<path d="M164.532 55.7374C162.135 55.633 162.135 53.0236 164.532 52.2929C165.574 51.9798 166.824 51.771 167.866 52.0842C170.888 52.9192 170.367 55.0067 168.7 55.4242C167.762 55.633 165.887 55.8417 164.532 55.7374Z" fill="#2D2D2D"/>
<path d="M177.974 58.2424C180.266 58.8687 181.1 56.468 179.12 55.0067C178.182 54.3805 177.14 53.7542 176.098 53.6498C172.972 53.4411 172.764 55.5286 174.223 56.5724C174.952 57.0943 176.619 57.8249 177.974 58.2424Z" fill="#2D2D2D"/>
<path d="M177.557 68.1582C177.87 68.2626 178.182 68.2626 178.495 68.2626C178.495 68.2626 178.495 68.2626 178.495 68.1582C178.599 67.6364 178.703 67.1145 178.912 66.4882C179.016 66.0707 179.12 65.6532 179.224 65.3401C178.912 65.2357 178.495 65.1313 178.078 65.1313C175.994 64.8182 174.223 65.2357 174.118 66.0707C173.91 66.9057 175.473 67.8451 177.557 68.1582Z" fill="#CCC0B2"/>
<path d="M170.576 67.2189C170.68 67.2189 170.68 67.2189 170.784 67.2189C172.868 66.3838 173.389 65.8619 173.493 65.7576C173.597 65.6532 173.597 65.5488 173.493 65.4444L171.826 60.8518C171.409 60.0168 171.618 58.6599 171.93 56.9899C171.93 56.7811 171.826 56.5724 171.618 56.5724C171.409 56.5724 171.201 56.6768 171.201 56.8855C170.888 58.6599 170.576 60.1212 171.097 61.165L172.66 65.5488C172.451 65.7576 171.826 66.1751 170.367 66.697C170.159 66.8013 170.055 67.0101 170.159 67.2189C170.367 67.1145 170.471 67.2189 170.576 67.2189Z" fill="#2D2D2D"/>
<path d="M156.717 61.4781C156.613 62.3131 158.176 63.2525 160.26 63.5656C162.344 63.8788 164.115 63.4613 164.219 62.6262C164.324 61.7912 162.761 60.8518 160.677 60.5387C158.593 60.3299 156.821 60.6431 156.717 61.4781Z" fill="#CCC0B2"/>
<path d="M153.278 52.2929C153.278 52.6061 153.278 52.7104 153.278 52.7104C153.278 52.7104 154.946 53.8586 154.946 57.6162L157.342 58.1381C157.342 58.1381 159.009 55.3199 159.218 50.2054C159.218 49.7879 159.322 49.3704 159.426 49.0572C160.989 44.6734 169.638 42.4815 174.848 44.8822C180.475 47.3872 180.996 53.2323 180.996 53.2323C180.996 53.2323 181.204 55.3199 180.787 57.6162C181.621 55.3199 182.871 51.1448 180.162 45.9259C176.098 38.0976 164.636 35.697 158.488 41.1246C153.383 45.6128 153.174 50.8317 153.278 52.2929Z" fill="#2D2D2D"/>
<path d="M153.278 52.2929C153.278 52.606 153.278 52.7104 153.278 52.7104C153.278 52.7104 154.946 53.8586 154.946 57.6161L157.342 58.138C157.342 58.138 159.009 55.3198 159.218 50.2054C159.218 49.7879 159.322 49.3704 159.426 49.0572L153.278 52.2929Z" fill="#CCC0B2"/>
<path d="M163.907 45.0909C163.907 45.0909 168.387 44.4646 170.159 45.7172C171.93 46.9697 174.535 48.6397 177.036 47.7003C179.537 46.6566 180.891 51.8754 180.891 51.8754C180.891 51.8754 180.162 43.0033 172.972 43.1077C165.782 43.2121 165.991 42.5858 163.907 45.0909Z" fill="#2D2D2D"/>
<path d="M155.154 55.3199C155.154 55.3199 153.695 51.0404 149.527 51.9798C145.255 52.9192 144.317 66.8013 152.341 66.8013L155.154 55.3199Z" fill="#A75436"/>
<path d="M149.631 64.0875C149.631 64.6094 150.048 65.0269 150.569 65.0269C151.09 65.0269 151.507 64.6094 151.507 64.0875C151.507 63.5656 151.09 63.1481 150.569 63.1481C150.048 63.1481 149.631 63.5656 149.631 64.0875Z" fill="#F5EFE0"/>
<path d="M151.82 61.6869C151.82 61.6869 151.924 61.6869 151.82 61.6869C152.132 61.6869 152.236 61.4781 152.236 61.2694C152.236 61.0606 151.924 56.9899 148.589 55.5286C148.381 55.4242 148.173 55.5286 148.068 55.7374C147.964 55.9461 148.068 56.1549 148.277 56.2593C151.194 57.5118 151.507 61.2694 151.507 61.2694C151.507 61.4781 151.611 61.6869 151.82 61.6869Z" fill="#2D2D2D"/>
<path d="M148.798 59.7037C148.902 59.7037 149.006 59.7037 149.11 59.5993C149.11 59.5993 149.944 58.9731 150.986 58.4512C151.194 58.3468 151.194 58.138 151.09 57.9293C150.986 57.7205 150.778 57.7205 150.569 57.8249C149.527 58.4512 148.694 58.9731 148.589 59.0774C148.381 59.1818 148.381 59.3906 148.485 59.5993C148.694 59.5993 148.798 59.7037 148.798 59.7037Z" fill="#2D2D2D"/>
<path d="M192.666 134.333C191.624 130.263 187.456 127.758 183.392 128.801C180.579 129.532 177.974 130.367 175.369 131.202C172.764 132.037 170.263 132.872 167.762 133.811C165.782 134.542 163.803 135.168 161.823 135.899C161.198 136.108 160.468 136.316 159.843 136.63C157.551 137.465 155.258 138.195 152.966 139.03C148.068 140.7 143.171 142.266 138.378 143.623C135.981 144.249 133.585 144.875 131.292 145.397C129 145.919 126.707 146.232 124.728 146.337C124.207 146.337 123.79 146.337 123.373 146.337V146.232L123.477 145.397C123.581 144.354 123.79 143.205 123.998 142.057C124.415 139.865 124.936 137.569 125.561 135.273C126.186 132.976 126.916 130.68 127.749 128.384C128.583 126.088 129.417 123.791 130.354 121.495C130.771 120.347 131.292 119.199 131.813 118.051C132.334 116.902 132.751 115.754 133.272 114.606C133.793 113.458 134.314 112.31 134.835 111.266L135.669 109.596L136.085 108.761L136.398 108.03L136.502 107.717C138.69 103.229 137.023 97.697 132.647 95.2963C128.062 92.7912 122.331 94.3569 119.83 98.9495L119.309 99.9933L118.788 100.933C118.476 101.559 118.163 102.185 117.85 102.811C117.225 104.064 116.6 105.316 115.975 106.569C115.35 107.822 114.828 109.074 114.203 110.327C113.682 111.579 113.057 112.936 112.536 114.189C111.494 116.798 110.452 119.407 109.514 122.121C108.576 124.835 107.743 127.549 107.013 130.367C106.284 133.185 105.659 136.003 105.242 139.03C105.034 140.492 104.825 142.057 104.721 143.519L104.617 144.667L104.513 145.815V146.963V147.589V147.902V148.111V148.32C104.513 149.572 104.617 150.929 104.929 152.391C105.242 153.852 105.867 155.522 106.805 156.983C107.743 158.549 108.993 159.906 110.348 160.95C110.973 161.471 111.703 161.889 112.328 162.306C112.953 162.724 113.682 163.037 114.307 163.246C115.558 163.768 116.808 164.081 117.954 164.29C119.101 164.498 120.143 164.603 121.081 164.707C123.06 164.811 124.728 164.707 126.395 164.603C128.062 164.394 129.625 164.185 131.084 163.976C132.543 163.663 134.001 163.35 135.46 163.037C138.274 162.306 140.983 161.576 143.692 160.741C148.173 159.279 152.445 157.714 156.613 156.148C157.134 155.939 157.655 155.731 158.176 155.522C158.488 155.418 158.801 155.313 159.009 155.209C164.011 153.226 168.908 151.242 173.702 149.259C176.098 148.215 178.495 147.276 180.891 146.337C183.288 145.397 185.58 144.458 187.873 143.727H187.977C191.52 142.266 193.708 138.3 192.666 134.333Z" fill="#A75436"/>
<path d="M206.733 141.327C206.004 136.212 204.753 130.471 203.399 125.044C200.794 114.189 197.772 104.586 197.563 103.96C196 98.9495 190.686 96.2357 185.789 97.697C184.955 98.0101 184.122 98.3232 183.392 98.8451C183.496 100.411 183.601 102.29 183.913 104.481C184.851 111.266 184.434 121.077 184.122 125.774C184.33 126.714 184.643 127.653 184.851 128.593C185.789 132.141 186.622 135.899 187.248 139.448C185.997 139.448 184.226 139.448 182.038 139.343C176.932 139.03 170.888 138.195 164.428 137.36C151.194 135.586 137.544 133.707 127.333 135.377C122.227 136.212 118.684 141.013 119.518 146.232C120.247 150.929 124.311 154.165 128.791 154.165C129.312 154.165 129.729 154.165 130.25 154.061C137.648 152.912 150.465 154.583 161.823 156.148C171.201 157.401 179.328 158.549 185.997 158.549C193.395 158.549 199.126 157.192 202.982 153.33C206.108 149.99 207.358 145.815 206.733 141.327Z" fill="#A75436"/>
<path d="M128.166 129.636C129.417 125.044 130.875 120.347 132.751 115.963C134.314 111.997 136.606 108.239 138.482 104.377C138.482 104.273 138.586 104.273 138.69 104.168C139.628 101.768 140.566 99.367 141.191 96.862C138.378 91.9562 132.855 90.5993 132.855 90.5993C132.855 90.5993 123.373 89.4512 117.955 96.5488C117.434 97.2795 116.808 98.1145 116.287 98.9495C116.183 99.1583 115.975 99.367 115.871 99.5758C112.119 105.734 108.056 114.815 106.284 118.781C106.18 119.094 106.076 119.303 105.972 119.512C105.659 120.347 105.451 120.764 105.451 120.764C105.451 120.764 118.476 128.801 128.583 130.889L128.166 129.636Z" fill="#D64820"/>
<path d="M105.971 119.616C106.388 119.721 106.805 119.721 107.222 119.721C107.639 119.721 108.055 119.721 108.472 119.616C111.494 119.094 113.474 116.902 113.37 113.98C113.266 110.744 115.975 109.909 118.476 109.178C120.664 108.448 123.06 107.717 122.956 105.316C122.956 102.081 118.997 99.9933 116.287 98.9495C116.183 99.1582 115.975 99.367 115.871 99.5758C118.476 100.515 122.227 102.498 122.227 105.212C122.227 107.091 120.351 107.613 118.267 108.343C115.558 109.178 112.536 110.118 112.64 113.875C112.745 116.902 110.452 118.364 108.368 118.677C107.743 118.781 107.013 118.781 106.388 118.677C106.18 119.199 106.076 119.407 105.971 119.616Z" fill="#2D2D2D"/>
<path d="M129.104 126.192C129.208 126.192 129.417 126.088 129.417 125.983L137.127 106.465C137.232 106.256 137.127 106.047 136.919 105.943C136.711 105.838 136.502 105.943 136.398 106.152L128.687 125.67C128.583 125.879 128.687 126.088 128.896 126.192C129 126.192 129 126.192 129.104 126.192Z" fill="#2D2D2D"/>
<path d="M134.627 111.997C134.731 111.997 134.731 111.997 134.835 111.892L138.795 109.178C139.003 109.074 139.003 108.865 138.899 108.657C138.795 108.448 138.586 108.448 138.378 108.552L134.418 111.266C134.21 111.37 134.21 111.579 134.314 111.788C134.418 111.892 134.522 111.997 134.627 111.997Z" fill="#2D2D2D"/>
<path d="M129.104 125.774L127.958 130.785C127.958 130.785 124.415 129.741 121.393 128.801C120.143 131.306 118.58 133.707 117.434 136.108C116.079 138.717 114.829 141.327 113.578 143.936C118.892 146.441 125.353 149.05 127.958 149.468C132.647 150.199 134.835 137.047 134.835 137.047C134.835 137.047 132.647 127.444 129.104 125.774Z" fill="#A75436"/>
<path d="M127.749 130.785C127.437 130.68 127.332 130.68 127.02 130.576C125.665 136.734 123.998 143.832 122.643 149.572C122.539 149.781 122.748 150.094 122.956 150.094C123.165 150.199 123.373 149.99 123.477 149.781C124.832 143.936 126.499 136.943 127.853 130.785C127.853 130.785 127.853 130.785 127.749 130.785Z" fill="#CCC0B2"/>
<path d="M183.392 98.8451C183.496 100.411 183.601 102.29 183.913 104.481C184.33 107.404 184.434 110.848 184.434 114.293C184.434 114.606 184.434 114.815 184.434 115.128C184.434 119.303 184.226 123.269 184.122 125.879C184.017 127.549 183.913 128.593 183.913 128.593C184.226 128.593 184.538 128.697 184.851 128.697C185.164 128.697 185.476 128.697 185.789 128.697C186.101 128.697 186.31 128.697 186.622 128.697C187.873 128.697 189.123 128.593 190.374 128.384C190.582 128.384 190.895 128.279 191.103 128.279C191.937 128.175 192.77 127.966 193.604 127.862C193.812 127.758 194.125 127.758 194.333 127.653C195.584 127.34 196.834 127.027 197.98 126.714C198.189 126.609 198.501 126.609 198.71 126.505C200.377 125.983 201.836 125.566 203.19 125.044H203.294C203.503 124.939 203.815 124.835 204.024 124.731C206.733 123.687 208.504 122.956 208.504 122.956C208.504 122.956 205.378 113.458 201.731 105.421C201.627 105.212 201.523 104.899 201.419 104.69C200.064 101.768 199.231 101.037 197.98 99.1582C194.646 94.2525 189.54 91.1212 186.727 90.9124C186.414 90.9124 186.101 90.9124 185.893 90.9124C184.955 90.9124 184.434 90.9124 184.434 90.9124C184.434 90.9124 183.08 91.6431 183.392 98.8451Z" fill="#D64820"/>
<path d="M186.935 128.593C187.039 128.488 187.143 128.384 187.143 128.175L185.476 107.195C185.476 106.987 185.268 106.778 185.059 106.882C184.851 106.882 184.643 107.091 184.747 107.3L186.414 128.279C186.414 128.488 186.622 128.697 186.831 128.593C186.831 128.593 186.831 128.593 186.935 128.593Z" fill="#2D2D2D"/>
<path d="M190.374 128.279C190.582 128.279 190.895 128.175 191.103 128.175C190.999 127.027 191.103 125.67 191.52 124.626C191.937 123.374 192.77 121.912 194.437 121.808C195.063 121.808 195.688 122.017 196.209 122.434C197.147 123.374 197.772 125.044 198.084 126.609C198.293 126.505 198.605 126.505 198.814 126.401C198.397 124.731 197.772 122.956 196.73 121.912C196.105 121.286 195.271 120.973 194.437 121.077C192.77 121.182 191.416 122.33 190.79 124.418C190.374 125.67 190.269 127.027 190.374 128.279Z" fill="#2D2D2D"/>
<path d="M197.98 111.475C198.293 114.606 199.856 115.545 201.106 116.38C202.252 117.215 202.982 117.633 202.252 119.825C201.627 121.704 201.94 123.582 203.294 124.939H203.399C203.607 124.835 203.92 124.731 204.128 124.626L204.024 124.522C202.773 123.269 202.461 121.704 203.086 120.034C204.024 117.32 202.878 116.589 201.627 115.754C200.481 115.024 199.126 114.084 198.814 111.37C198.501 108.761 200.064 106.673 201.836 105.316C201.731 105.108 201.627 104.795 201.523 104.586C199.439 106.152 197.668 108.343 197.98 111.475Z" fill="#2D2D2D"/>
<path d="M157.863 155.417C157.342 155.626 156.821 155.835 156.3 156.044C141.921 153.121 123.165 150.512 122.956 150.512C122.748 150.512 122.539 150.199 122.539 149.99C122.539 149.781 122.852 149.572 123.06 149.572C123.373 149.572 143.379 152.286 157.863 155.417Z" fill="#CCC0B2"/>
<path d="M122.852 150.303C122.956 150.303 122.956 150.303 123.06 150.303C123.269 150.303 123.477 150.094 123.477 149.781C123.269 148.111 122.227 145.919 122.227 145.815C122.123 145.606 121.81 145.502 121.602 145.606C121.393 145.71 121.289 146.024 121.393 146.232C121.393 146.232 122.435 148.32 122.644 149.886C122.539 150.094 122.644 150.199 122.852 150.303Z" fill="#CCC0B2"/>
<path d="M190.999 139.448C190.999 139.657 190.79 139.865 190.582 139.865C180.37 138.926 166.199 137.36 159.843 136.63C160.468 136.421 161.198 136.212 161.823 135.899C168.804 136.734 181.308 138.091 190.686 138.926C190.79 138.926 190.999 139.239 190.999 139.448Z" fill="#CCC0B2"/>
<path d="M186.622 138.926C186.518 138.926 186.518 138.926 186.414 138.822C186.206 138.717 186.101 138.404 186.206 138.195C187.039 136.734 188.811 135.064 188.811 134.96C189.019 134.751 189.332 134.751 189.436 134.96C189.644 135.168 189.644 135.481 189.436 135.586C189.436 135.586 187.664 137.152 186.935 138.508C187.039 138.822 186.831 138.926 186.622 138.926Z" fill="#CCC0B2"/>
<path d="M477.028 274.616H316.351C316.143 274.616 316.039 274.512 316.039 274.303V273.572C316.039 269.084 319.686 265.535 324.062 265.535H469.213C473.693 265.535 477.236 269.189 477.236 273.572V274.303C477.341 274.512 477.236 274.616 477.028 274.616Z" fill="#2D2D2D"/>
<path d="M450.665 254.993V265.744H342.714V254.993C342.714 251.34 345.632 248.418 349.279 248.418H443.997C447.748 248.418 450.665 251.34 450.665 254.993Z" fill="#D64820"/>
<path d="M450.665 261.569H342.714V265.744H450.665V261.569Z" fill="#D64820"/>
<path d="M399.503 58.3468H393.98V241.737H399.503V58.3468Z" fill="#2D2D2D"/>
<path d="M403.671 183.077H389.812V248.418H403.671V183.077Z" fill="#2D2D2D"/>
<path d="M403.671 234.118H389.812V235.892H403.671V234.118Z" fill="#514933"/>
<path d="M403.671 223.054H389.812V224.828H403.671V223.054Z" fill="#514933"/>
<path d="M403.671 211.886H389.812V213.66H403.671V211.886Z" fill="#514933"/>
<path d="M400.455 187.249C405.288 185.23 407.573 179.669 405.558 174.827C403.543 169.985 397.991 167.696 393.157 169.715C388.323 171.733 386.039 177.295 388.054 182.137C390.069 186.979 395.621 189.267 400.455 187.249Z" fill="#D64820"/>
<path d="M360.22 66.697C342.506 72.6465 312.809 76.1953 288.843 77.761V82.4579H396.69V58.6599C396.69 58.6599 387.624 57.5118 360.22 66.697Z" fill="#2D2D2D"/>
<path d="M505.37 77.761C481.3 76.1953 451.186 72.6465 433.16 66.5926C405.755 57.4074 396.69 58.5556 396.69 58.5556V82.4579H505.37V77.761Z" fill="#2D2D2D"/>
<path d="M388.145 59.8081C388.145 59.8081 387.937 49.0573 396.69 34.3401V96.7576C396.69 96.7576 392.209 96.027 389.604 82.4579L388.145 59.8081Z" fill="#2D2D2D"/>
<path d="M405.234 59.8081C405.234 59.8081 405.443 49.0573 396.69 34.3401V96.7576C396.69 96.7576 401.17 96.027 403.775 82.4579L405.234 59.8081Z" fill="#2D2D2D"/>
<path d="M389.5 82.1448C389.396 82.1448 389.187 82.0404 389.187 81.9361C386.582 71.1852 387.937 59.9125 387.937 59.7037C387.937 59.495 388.145 59.3906 388.25 59.3906C388.458 59.3906 388.562 59.5993 388.562 59.7037C388.562 59.8081 387.208 70.9765 389.813 81.6229C389.813 81.9361 389.708 82.1448 389.5 82.1448Z" fill="#514933"/>
<path d="M404.088 82.1448C403.984 82.1448 403.984 82.1448 404.088 82.1448C403.879 82.1448 403.775 81.9361 403.775 81.7273C406.38 71.0808 405.026 59.9125 405.026 59.8081C405.026 59.5993 405.13 59.495 405.338 59.495C405.547 59.495 405.651 59.5993 405.651 59.8081C405.651 59.9125 407.006 71.1852 404.4 82.0404C404.296 82.0404 404.192 82.1448 404.088 82.1448Z" fill="#514933"/>
<path d="M406.276 36.6364C406.276 41.8552 402.004 46.1347 396.794 46.1347C391.584 46.1347 387.312 41.8552 387.312 36.6364C387.312 31.4175 391.584 27.1381 396.794 27.1381C402.004 27.1381 406.276 31.4175 406.276 36.6364Z" fill="#D64820"/>
<path d="M396.794 42.2727C393.772 42.2727 391.271 39.7677 391.271 36.7408C391.271 33.7138 393.772 31.2088 396.794 31.2088C399.816 31.2088 402.316 33.7138 402.316 36.7408C402.316 39.7677 399.816 42.2727 396.794 42.2727Z" fill="#D64820"/>
<path d="M230.178 179.842C230.178 179.842 255.186 171.7 294.782 171.7C334.378 171.7 356.052 179.842 356.052 179.842C356.052 179.842 328.126 189.862 294.782 189.862C261.438 189.966 230.178 179.842 230.178 179.842Z" fill="#2D2D2D"/>
<path d="M241.536 182.242C241.327 182.242 241.119 182.242 240.911 182.138C240.285 181.825 239.973 180.99 240.285 180.364L291.448 78.9091C291.76 78.2828 292.594 77.9697 293.219 78.2828C293.844 78.596 294.157 79.431 293.844 80.0573L242.786 181.512C242.578 182.034 242.057 182.242 241.536 182.242Z" fill="#2D2D2D"/>
<path d="M344.902 182.451C344.381 182.451 343.964 182.138 343.652 181.721L291.552 80.0573C291.239 79.431 291.448 78.596 292.177 78.1785C292.802 77.8653 293.636 78.0741 294.053 78.8047L346.153 180.468C346.465 181.094 346.257 181.929 345.527 182.347C345.319 182.451 345.111 182.451 344.902 182.451Z" fill="#2D2D2D"/>
<path d="M230.178 179.842C274.567 188.818 316.872 189.966 356.052 179.842C356.052 179.842 347.299 223.263 293.115 223.263C238.931 223.367 230.178 179.842 230.178 179.842Z" fill="#D64820"/>
<path d="M301.242 79.5354C301.242 83.7104 297.804 87.1549 293.636 87.1549C289.468 87.1549 286.029 83.7104 286.029 79.5354C286.029 75.3603 289.468 71.9158 293.636 71.9158C297.804 71.9158 301.242 75.2559 301.242 79.5354Z" fill="#2D2D2D"/>
<path d="M293.636 84.4411C290.927 84.4411 288.634 82.2491 288.634 79.431C288.634 76.7172 290.822 74.4209 293.636 74.4209C296.345 74.4209 298.637 76.6128 298.637 79.431C298.637 82.2491 296.345 84.4411 293.636 84.4411Z" fill="#514933"/>
<path d="M438.161 179.842C438.161 179.842 463.169 171.7 502.765 171.7C542.361 171.7 564.035 179.842 564.035 179.842C564.035 179.842 536.109 189.862 502.765 189.862C469.421 189.966 438.161 179.842 438.161 179.842Z" fill="#2D2D2D"/>
<path d="M449.519 182.242C449.311 182.242 449.102 182.242 448.894 182.138C448.269 181.825 447.956 180.99 448.269 180.364L499.431 78.9091C499.743 78.2828 500.577 77.9697 501.202 78.2828C501.827 78.596 502.14 79.431 501.827 80.0573L450.665 181.512C450.457 182.034 449.936 182.242 449.519 182.242Z" fill="#2D2D2D"/>
<path d="M552.781 182.451C552.26 182.451 551.844 182.138 551.531 181.721L499.431 80.0573C499.118 79.431 499.327 78.596 500.056 78.1785C500.681 77.8653 501.515 78.0741 501.932 78.8047L554.032 180.468C554.344 181.094 554.136 181.929 553.407 182.347C553.198 182.451 552.99 182.451 552.781 182.451Z" fill="#2D2D2D"/>
<path d="M438.161 179.842C482.55 188.818 524.856 189.966 564.035 179.842C564.035 179.842 555.282 223.263 501.098 223.263C446.914 223.367 438.161 179.842 438.161 179.842Z" fill="#D64820"/>
<path d="M508.496 79.5354C508.496 83.7104 505.058 87.1549 500.89 87.1549C496.722 87.1549 493.283 83.7104 493.283 79.5354C493.283 75.3603 496.722 71.9158 500.89 71.9158C505.058 71.9158 508.496 75.2559 508.496 79.5354Z" fill="#2D2D2D"/>
<path d="M500.89 84.4411C498.18 84.4411 495.888 82.2491 495.888 79.431C495.888 76.7172 498.076 74.4209 500.89 74.4209C503.599 74.4209 505.891 76.6128 505.891 79.431C505.787 82.2491 503.599 84.4411 500.89 84.4411Z" fill="#514933"/>
<path d="M82.9433 374.192C82.9433 374.192 72.5233 376.488 74.0863 369.286C75.6493 361.98 75.5451 359.37 71.2729 356.03C67.0007 352.69 62.8327 351.125 66.0629 345.906C69.2931 340.687 63.1453 336.616 60.0193 333.798C56.8933 330.98 60.4361 328.892 61.2697 323.569C62.1033 318.246 56.3723 319.081 55.9555 312.401C55.5387 305.721 62.3117 297.892 56.4765 288.603C56.4765 288.603 64.2915 292.673 66.8965 299.875C69.5015 307.077 67.4175 312.609 72.0023 315.323C76.5871 318.037 79.5047 322.734 77.9417 327.535C76.3787 332.337 78.5669 334.946 82.4223 338.495C86.1735 342.044 85.2357 343.401 84.7147 347.68C84.1937 351.96 85.2357 351.02 89.5079 356.865C93.8843 362.606 93.9885 372.209 82.9433 374.192Z" fill="#626129"/>
<path d="M84.4021 373.879C84.4021 373.879 84.4021 373.774 84.2979 373.774L63.4579 310.522C63.3537 310.209 63.5621 310 63.7705 309.896C64.0831 309.791 64.2915 310 64.3957 310.209L85.2357 373.461V373.566L84.4021 373.879Z" fill="#2D2D2D"/>
<path d="M101.699 374.088C101.699 374.088 112.015 376.384 110.452 369.182C108.889 361.98 108.993 359.266 113.266 356.03C117.434 352.795 121.706 351.125 118.476 345.906C115.245 340.687 121.393 336.616 124.519 333.902C127.645 331.084 124.102 328.997 123.269 323.673C122.435 318.35 128.166 319.185 128.583 312.505C129 305.825 122.227 298.101 128.062 288.916C128.062 288.916 120.247 292.987 117.642 300.084C115.037 307.182 117.121 312.714 112.536 315.428C107.951 318.141 105.034 322.838 106.597 327.64C108.16 332.441 105.972 334.946 102.116 338.495C98.3649 342.044 99.3027 343.401 99.8237 347.68C100.345 351.96 99.3027 350.916 95.0305 356.761C90.8625 362.502 90.7583 372.104 101.699 374.088Z" fill="#626129"/>
<path d="M99.3027 373.461V373.357L120.039 310.418C120.143 310.104 120.455 310 120.664 310.104C120.976 310.209 121.081 310.522 120.976 310.731L100.241 373.67C100.241 373.67 100.241 373.774 100.136 373.774L99.3027 373.461Z" fill="#2D2D2D"/>
<path d="M90.2373 372.731C90.2373 372.731 78.3585 371.791 82.4223 364.485C86.4861 357.178 87.2155 354.36 83.7769 349.35C80.3383 344.444 76.3786 341.209 81.4845 336.721C86.6945 332.232 81.4845 325.761 78.9837 321.69C76.4829 317.62 81.0677 316.576 83.6727 311.148C86.3819 305.721 79.9215 304.677 81.6929 297.37C83.4643 290.064 93.2591 283.906 90.1331 272.111C90.1331 272.111 97.2187 279.104 97.5313 287.663C97.9481 296.222 93.8843 301.441 97.9481 305.929C102.012 310.418 103.575 316.367 100.24 321.064C96.9061 325.761 98.4691 329.205 101.387 334.216C104.304 339.226 102.741 340.374 100.761 344.862C98.7817 349.35 100.136 348.515 102.845 356.343C105.763 363.963 102.741 374.296 90.2373 372.731Z" fill="#9EA685"/>
<path d="M91.9045 372.835V372.731L90.5499 298.101C90.5499 297.788 90.7583 297.475 91.0709 297.475C91.3835 297.475 91.6961 297.684 91.6961 297.997L93.0507 372.626C93.0507 372.731 93.0507 372.731 93.0507 372.835H91.9045Z" fill="#626129"/>
<path d="M63.2495 367.512L64.2915 371.478L64.4999 372.313L65.4377 375.862L65.6461 376.593L75.2325 412.29L75.4409 413.02L76.3787 416.673L76.5871 417.404L77.7333 421.475H105.242L106.284 417.404L106.492 416.673L107.43 413.02L107.639 412.29L117.225 376.593L117.433 375.862L118.475 372.313L118.684 371.478L119.726 367.512H63.2495Z" fill="#2D2D2D"/>
<path d="M118.684 371.478L118.475 372.313H64.4998L64.2914 371.478H118.684Z" fill="#514933"/>
<path d="M117.434 375.862L117.225 376.593H65.6461L65.4377 375.862H117.434Z" fill="#514933"/>
<path d="M107.639 412.29L107.43 413.02H75.4409L75.2325 412.29H107.639Z" fill="#514933"/>
<path d="M106.492 416.673L106.284 417.404H76.5871L76.3787 416.673H106.492Z" fill="#514933"/>
<path d="M255.29 372.313V421.683H469.317C482.863 421.683 493.908 410.62 493.908 397.051C493.908 390.266 491.199 384.108 486.719 379.62C482.238 375.131 476.09 372.418 469.317 372.418H255.29V372.313Z" fill="#D64820"/>
<path d="M255.29 372.313V421.683H446.706C460.252 421.683 471.297 410.62 471.297 397.051C471.297 390.266 468.588 384.108 464.107 379.62C459.627 375.131 453.479 372.418 446.706 372.418H255.29V372.313Z" fill="#783013"/>
<path d="M255.915 413.96H448.477C457.126 413.96 464.003 406.966 464.003 398.407V395.694C464.003 387.03 457.021 380.141 448.477 380.141H255.915C255.603 380.141 255.394 380.35 255.394 380.663V413.438C255.29 413.646 255.603 413.96 255.915 413.96Z" fill="#F5EFE0"/>
<path d="M447.435 389.118L255.29 388.805V386.3L447.331 386.508C448.06 386.508 448.581 387.03 448.581 387.761C448.685 388.492 448.06 389.118 447.435 389.118Z" fill="#D9CAB8"/>
<path d="M447.435 397.572L255.29 397.364V394.859L447.331 395.067C448.06 395.067 448.581 395.589 448.581 396.32C448.685 396.946 448.06 397.572 447.435 397.572Z" fill="#D9CAB8"/>
<path d="M447.435 406.444L255.29 406.131V403.626L447.331 403.835C448.06 403.835 448.581 404.357 448.581 405.088C448.685 405.818 448.06 406.444 447.435 406.444Z" fill="#D9CAB8"/>
<path d="M281.34 323.465V372.731H495.367C508.913 372.731 519.958 361.667 519.958 348.098C519.958 341.313 517.249 335.155 512.768 330.667C508.288 326.178 502.14 323.465 495.367 323.465H281.34Z" fill="#7A5F2E"/>
<path d="M281.34 323.465V372.731H472.756C486.302 372.731 497.347 361.667 497.347 348.098C497.347 341.313 494.638 335.155 490.157 330.667C485.676 326.178 479.529 323.465 472.756 323.465H281.34Z" fill="#533D15"/>
<path d="M281.34 365.111H474.423C483.071 365.111 489.949 358.118 489.949 349.559V346.845C489.949 338.182 482.967 331.293 474.423 331.293H281.34V365.111Z" fill="#F5EFE0"/>
<path d="M473.485 348.724L281.34 348.411V345.906L473.381 346.115C474.11 346.115 474.631 346.636 474.631 347.367C474.735 348.098 474.11 348.724 473.485 348.724Z" fill="#D9CAB8"/>
<path d="M473.485 357.492L281.34 357.283V354.778L473.381 354.987C474.11 354.987 474.631 355.508 474.631 356.239C474.735 356.97 474.11 357.492 473.485 357.492Z" fill="#D9CAB8"/>
<path d="M473.485 340.165L281.34 339.956V337.451L473.381 337.66C474.11 337.66 474.631 338.182 474.631 338.912C474.735 339.643 474.11 340.165 473.485 340.165Z" fill="#D9CAB8"/>
<path d="M264.981 274.616V323.882H479.008C492.554 323.882 503.599 312.818 503.599 299.249C503.599 292.465 500.89 286.306 496.409 281.818C491.928 277.33 485.781 274.616 479.008 274.616H264.981Z" fill="#D64820"/>
<path d="M264.981 274.616V323.882H456.396C469.942 323.882 480.987 312.818 480.987 299.249C480.987 292.465 478.278 286.306 473.798 281.818C469.317 277.33 463.169 274.616 456.396 274.616H264.981Z" fill="#2D2D2D"/>
<path d="M264.981 316.263H458.063C466.712 316.263 473.589 309.269 473.589 300.71V297.997C473.589 289.333 466.608 282.444 458.063 282.444H264.981V316.263Z" fill="#F5EFE0"/>
<path d="M457.021 291.317L264.981 291.108V288.603L457.021 288.812C457.751 288.812 458.272 289.333 458.272 290.064C458.272 290.795 457.751 291.317 457.021 291.317Z" fill="#D9CAB8"/>
<path d="M457.021 299.875L264.981 299.562V297.057L457.021 297.266C457.751 297.266 458.272 297.788 458.272 298.519C458.272 299.249 457.751 299.875 457.021 299.875Z" fill="#D9CAB8"/>
<path d="M457.021 308.643L264.981 308.434V305.929L457.021 306.138C457.751 306.138 458.272 306.66 458.272 307.391C458.272 308.121 457.751 308.643 457.021 308.643Z" fill="#D9CAB8"/>
<path d="M310.308 288.707V312.923L302.805 305.303L294.886 313.131V288.603L310.308 288.707Z" fill="#D64820"/>
<path d="M574.872 421.683C482.03 370.956 501.515 291.734 501.515 291.734C552.156 290.795 574.872 242.886 574.872 242.886C574.872 242.886 597.587 290.795 648.229 291.734C648.333 291.63 667.714 370.852 574.872 421.683Z" fill="#D64820"/>
<path d="M574.872 411.872C556.845 401.434 542.257 389.118 531.316 375.236C522.042 363.337 515.478 350.29 511.831 336.407C507.663 320.646 508.08 307.286 508.809 299.875C529.024 297.788 547.676 288.603 563.201 273.051C567.995 268.249 571.85 263.448 574.872 259.273C577.894 263.448 581.749 268.249 586.542 273.051C602.068 288.603 620.72 297.892 640.935 299.875C641.768 307.286 642.081 320.646 637.913 336.407C634.162 350.29 627.597 363.441 618.427 375.236C607.591 389.118 592.898 401.434 574.872 411.872Z" fill="#F6D065"/>
<path d="M615.093 344.736C618.646 322.537 603.561 301.656 581.4 298.098C559.239 294.539 538.394 309.649 534.841 331.848C531.288 354.046 546.373 374.927 568.534 378.486C590.695 382.045 611.54 366.934 615.093 344.736Z" fill="#D64820"/>
<path d="M574.872 373.044C565.598 373.044 556.845 369.391 550.281 362.815C543.716 356.239 540.069 347.471 540.069 338.182C540.069 328.892 543.716 320.125 550.281 313.549C556.845 306.973 565.598 303.32 574.872 303.32C584.146 303.32 592.898 306.973 599.463 313.549C606.028 320.125 609.675 328.892 609.675 338.182C609.675 347.471 606.028 356.239 599.463 362.815C592.898 369.391 584.146 373.044 574.872 373.044Z" fill="#F6D065"/>
<path d="M575.08 316.158C586.23 316.158 593.732 322.838 595.503 332.754H581.541C580.29 329.936 577.789 328.37 574.768 328.37C570.287 328.37 567.578 332.024 567.578 337.66C567.578 343.296 570.287 346.95 574.768 346.95C577.789 346.95 580.29 345.384 581.541 342.566H595.503C593.732 352.482 586.23 359.162 575.08 359.162C562.159 359.162 554.24 350.29 554.24 337.66C554.24 325.03 562.159 316.158 575.08 316.158Z" fill="#D64820"/>
<path d="M517.874 306.869C517.874 308.226 516.832 309.269 515.478 309.269C514.123 309.269 513.081 308.226 513.081 306.869C513.081 305.512 514.123 304.468 515.478 304.468C516.728 304.468 517.874 305.512 517.874 306.869Z" fill="#D64820"/>
<path d="M637.183 306.869C637.183 308.226 636.141 309.269 634.787 309.269C633.432 309.269 632.39 308.226 632.39 306.869C632.39 305.512 633.432 304.468 634.787 304.468C636.141 304.468 637.183 305.512 637.183 306.869Z" fill="#D64820"/>
<path d="M577.268 271.067C577.268 272.424 576.226 273.468 574.872 273.468C573.517 273.468 572.475 272.424 572.475 271.067C572.475 269.71 573.517 268.667 574.872 268.667C576.226 268.667 577.268 269.71 577.268 271.067Z" fill="#D64820"/>
<path d="M577.268 405.505C577.268 406.862 576.226 407.906 574.872 407.906C573.517 407.906 572.475 406.862 572.475 405.505C572.475 404.148 573.517 403.104 574.872 403.104C576.226 403.104 577.268 404.253 577.268 405.505Z" fill="#D64820"/>
<path d="M126.082 43.1077L44.8061 43.0034C43.5557 43.0034 42.6179 42.064 42.6179 40.8114V17.7441C42.6179 16.4916 43.5557 15.5522 44.8061 15.5522L126.082 15.6566C127.333 15.6566 128.27 16.596 128.27 17.8485V40.9158C128.27 42.1684 127.228 43.1077 126.082 43.1077Z" fill="#DBCCBA"/>
<path d="M122.331 26.303L75.9619 26.1987C75.3367 26.1987 74.8157 25.6768 74.8157 25.0505V24.8417C74.8157 24.2155 75.3367 23.6936 75.9619 23.6936L122.331 23.798C122.956 23.798 123.477 24.3199 123.477 24.9461V25.1549C123.477 25.7811 122.956 26.303 122.331 26.303Z" fill="#F5EFE0"/>
<path d="M122.331 31.6263L75.9619 31.5219C75.3367 31.5219 74.8157 31 74.8157 30.3737V30.165C74.8157 29.5387 75.3367 29.0168 75.9619 29.0168L122.331 29.1212C122.956 29.1212 123.477 29.6431 123.477 30.2694V30.4781C123.477 31.1044 122.956 31.6263 122.331 31.6263Z" fill="#F5EFE0"/>
<path d="M122.331 36.4276L75.9619 36.3232C75.3367 36.3232 74.8157 35.8013 74.8157 35.1751V34.9663C74.8157 34.3401 75.3367 33.8182 75.9619 33.8182L122.331 33.9226C122.956 33.9226 123.477 34.4444 123.477 35.0707V35.2795C123.373 35.9057 122.956 36.4276 122.331 36.4276Z" fill="#F5EFE0"/>
<path d="M57.6227 38.7239C52.2043 38.7239 47.7237 34.2357 47.7237 28.8081C47.7237 23.3805 52.2043 18.8922 57.6227 18.8922C63.0411 18.8922 67.5217 23.3805 67.5217 28.8081C67.5217 34.3401 63.0411 38.7239 57.6227 38.7239Z" fill="#D64820"/>
<path d="M58.6647 33.4007V34.8619H56.7891V33.4007C55.4345 33.2963 54.0799 32.8788 53.3505 32.4613L54.3925 30.165C55.3303 30.6868 56.4765 31 57.5185 31.1044C58.4563 31.1044 58.7689 30.8956 58.7689 30.5825C58.7689 29.4343 53.5589 30.2693 53.5589 26.7205C53.5589 25.1549 54.7051 23.9023 56.8933 23.5892V22.1279H58.7689V23.5892C59.8109 23.6936 60.7487 24.0067 61.4781 24.4242L60.5403 26.7205C59.6025 26.1986 58.7689 25.9899 57.9353 25.9899C56.9975 25.9899 56.6849 26.1986 56.6849 26.6161C56.6849 27.7643 61.8949 26.8249 61.8949 30.3737C61.8949 31.7306 60.8529 32.9831 58.6647 33.4007Z" fill="#F5EFE0"/>
<path d="M125.978 76.8215L44.7019 76.7172C43.4515 76.7172 42.5137 75.7778 42.5137 74.5252V51.4579C42.5137 50.2054 43.4515 49.266 44.7019 49.266L125.978 49.3704C127.228 49.3704 128.166 50.3098 128.166 51.5623V74.6296C128.166 75.8821 127.228 76.8215 125.978 76.8215Z" fill="#DBCCBA"/>
<path d="M122.227 60.0168L75.8577 59.9125C75.2325 59.9125 74.7115 59.3906 74.7115 58.7643V58.5556C74.7115 57.9293 75.2325 57.4074 75.8577 57.4074L122.227 57.5118C122.852 57.5118 123.373 58.0337 123.373 58.6599V58.8687C123.373 59.495 122.852 60.0168 122.227 60.0168Z" fill="#F5EFE0"/>
<path d="M122.227 65.3401L75.8577 65.2357C75.2325 65.2357 74.7115 64.7138 74.7115 64.0876V63.8788C74.7115 63.2525 75.2325 62.7307 75.8577 62.7307L122.227 62.835C122.852 62.835 123.373 63.3569 123.373 63.9832V64.1919C123.373 64.8182 122.852 65.3401 122.227 65.3401Z" fill="#F5EFE0"/>
<path d="M122.227 70.1414L75.8577 70.037C75.2325 70.037 74.7115 69.5152 74.7115 68.8889V68.6801C74.7115 68.0539 75.2325 67.532 75.8577 67.532L122.227 67.6364C122.852 67.6364 123.373 68.1583 123.373 68.7845V68.9933C123.373 69.6195 122.852 70.1414 122.227 70.1414Z" fill="#F5EFE0"/>
<path d="M57.5185 72.4377C52.1001 72.4377 47.6195 67.9495 47.6195 62.5219C47.6195 57.0943 52.1001 52.606 57.5185 52.606C62.9369 52.606 67.4175 57.0943 67.4175 62.5219C67.4175 68.0539 63.0411 72.4377 57.5185 72.4377Z" fill="#9EA685"/>
<path d="M54.3925 68.2626L51.2665 63.9832L53.1421 62.6263L54.6009 64.7138L62.2075 56.8855L63.8747 58.4512L54.3925 68.2626Z" fill="#F5EFE0"/>
<path d="M59.8109 102.394H21.7778V149.99H59.8109V102.394Z" fill="#DBCCBA"/>
<path d="M53.6631 109.909H27.8214C27.4046 109.909 27.092 109.596 27.092 109.178C27.092 108.761 27.4046 108.448 27.8214 108.448H53.7673C54.1841 108.448 54.4967 108.761 54.4967 109.178C54.4967 109.596 54.0799 109.909 53.6631 109.909Z" fill="#F5EFE0"/>
<path d="M53.6631 114.606H27.8214C27.4046 114.606 27.092 114.293 27.092 113.875C27.092 113.458 27.4046 113.145 27.8214 113.145H53.7673C54.1841 113.145 54.4967 113.458 54.4967 113.875C54.4967 114.293 54.0799 114.606 53.6631 114.606Z" fill="#F5EFE0"/>
<path d="M53.6631 119.407H27.8214C27.4046 119.407 27.092 119.094 27.092 118.677C27.092 118.259 27.4046 117.946 27.8214 117.946H53.7673C54.1841 117.946 54.4967 118.259 54.4967 118.677C54.4967 119.094 54.0799 119.407 53.6631 119.407Z" fill="#F5EFE0"/>
<path d="M53.6631 124.209H27.8214C27.4046 124.209 27.092 123.896 27.092 123.478C27.092 123.061 27.4046 122.747 27.8214 122.747H53.7673C54.1841 122.747 54.4967 123.061 54.4967 123.478C54.4967 123.896 54.0799 124.209 53.6631 124.209Z" fill="#F5EFE0"/>
<path d="M53.6631 129.01H27.8214C27.4046 129.01 27.092 128.697 27.092 128.279C27.092 127.862 27.4046 127.549 27.8214 127.549H53.7673C54.1841 127.549 54.4967 127.862 54.4967 128.279C54.4967 128.593 54.0799 129.01 53.6631 129.01Z" fill="#F5EFE0"/>
<path d="M53.6631 133.811H27.8214C27.4046 133.811 27.092 133.498 27.092 133.081C27.092 132.663 27.4046 132.35 27.8214 132.35H53.7673C54.1841 132.35 54.4967 132.663 54.4967 133.081C54.4967 133.394 54.0799 133.811 53.6631 133.811Z" fill="#F5EFE0"/>
<path d="M37.1994 142.579H27.7172C27.3004 142.579 26.9878 142.266 26.9878 141.848C26.9878 141.431 27.3004 141.118 27.7172 141.118H37.1994C37.6162 141.118 37.9288 141.431 37.9288 141.848C38.033 142.266 37.6162 142.579 37.1994 142.579Z" fill="#F5EFE0"/>
<path d="M53.663 142.579H44.1808C43.764 142.579 43.4514 142.266 43.4514 141.848C43.4514 141.431 43.764 141.118 44.1808 141.118H53.663C54.0798 141.118 54.3924 141.431 54.3924 141.848C54.4966 142.266 54.0798 142.579 53.663 142.579Z" fill="#F5EFE0"/>
<g opacity="0.5">
<path opacity="0.5" d="M41.159 102.394H21.7778V139.03H41.159V102.394Z" fill="#B6A593"/>
</g>
<path d="M38.033 87.5724H0V135.168H38.033V87.5724Z" fill="#DBCCBA"/>
<path d="M31.9894 94.9832H6.04356C5.62676 94.9832 5.20996 94.67 5.20996 94.2525C5.20996 93.835 5.52256 93.5219 5.93936 93.5219H31.8852C32.302 93.5219 32.6146 93.835 32.6146 94.2525C32.7188 94.67 32.4062 94.9832 31.9894 94.9832Z" fill="#F5EFE0"/>
<path d="M31.9894 99.7845H6.04361C5.62681 99.7845 5.31421 99.4714 5.31421 99.0539C5.31421 98.6363 5.62681 98.3232 6.04361 98.3232H31.9894C32.4062 98.3232 32.7188 98.6363 32.7188 99.0539C32.7188 99.4714 32.4062 99.7845 31.9894 99.7845Z" fill="#F5EFE0"/>
<path d="M31.9894 104.586H6.04361C5.62681 104.586 5.31421 104.273 5.31421 103.855C5.31421 103.438 5.62681 103.125 6.04361 103.125H31.9894C32.4062 103.125 32.7188 103.438 32.7188 103.855C32.7188 104.168 32.4062 104.586 31.9894 104.586Z" fill="#F5EFE0"/>
<path d="M31.9894 109.387H6.04361C5.62681 109.387 5.31421 109.074 5.31421 108.657C5.31421 108.239 5.62681 107.926 6.04361 107.926H31.9894C32.4062 107.926 32.7188 108.239 32.7188 108.657C32.7188 108.97 32.4062 109.387 31.9894 109.387Z" fill="#F5EFE0"/>
<path d="M31.9894 114.084H6.04361C5.62681 114.084 5.31421 113.771 5.31421 113.354C5.31421 112.936 5.62681 112.623 6.04361 112.623H31.9894C32.4062 112.623 32.7188 112.936 32.7188 113.354C32.7188 113.771 32.4062 114.084 31.9894 114.084Z" fill="#F5EFE0"/>
<path d="M31.9894 118.886H6.04361C5.62681 118.886 5.31421 118.572 5.31421 118.155C5.31421 117.737 5.62681 117.424 6.04361 117.424H31.9894C32.4062 117.424 32.7188 117.737 32.7188 118.155C32.7188 118.572 32.4062 118.886 31.9894 118.886Z" fill="#F5EFE0"/>
<path d="M15.4216 127.758H6.04361C5.62681 127.758 5.31421 127.444 5.31421 127.027C5.31421 126.609 5.62681 126.296 6.04361 126.296H15.5258C15.9426 126.296 16.2552 126.609 16.2552 127.027C16.2552 127.444 15.8384 127.758 15.4216 127.758Z" fill="#F5EFE0"/>
<path d="M31.9894 127.758H22.5072C22.0904 127.758 21.7778 127.444 21.7778 127.027C21.7778 126.609 22.0904 126.296 22.5072 126.296H31.9894C32.4062 126.296 32.7188 126.609 32.7188 127.027C32.7188 127.444 32.4062 127.758 31.9894 127.758Z" fill="#F5EFE0"/>
<path d="M251.852 19.6229H246.121C246.121 18.3704 245.912 17.0135 245.495 15.8653C243.724 10.0202 238.41 5.84512 231.949 5.84512C225.593 5.84512 220.175 10.1246 218.403 15.8653C218.091 17.0135 217.882 18.266 217.778 19.6229H212.047C212.047 18.3704 212.256 17.1178 212.464 15.8653C213.193 12.1077 215.069 8.6633 217.882 5.84512C221.738 2.08754 226.739 0 232.054 0C237.368 0 242.369 2.08754 246.121 5.84512C248.934 8.6633 250.705 12.1077 251.539 15.8653C251.747 17.0135 251.852 18.266 251.852 19.6229C251.852 19.5185 251.852 19.5185 251.852 19.6229Z" fill="#2D2D2D"/>
<path d="M257.895 20.6667H206.212V59.0774H257.895V20.6667Z" fill="#D64820"/>
<path d="M260.396 56.6768C260.396 57.4074 260.083 57.9293 259.667 58.4512C259.25 58.8687 258.625 59.1818 257.895 59.1818H206.004C204.649 59.1818 203.607 58.1381 203.607 56.7812V56.6768C203.607 56.0505 203.92 55.4242 204.336 54.9024C204.753 54.4849 205.378 54.1717 206.108 54.1717H257.999C259.25 54.2761 260.396 55.3199 260.396 56.6768Z" fill="#D64820"/>
<path d="M228.823 49.9966L230.178 40.1852L229.136 39.4546C227.677 38.5152 226.844 36.8451 226.844 35.1751C226.844 32.3569 229.136 29.9562 232.054 29.9562C234.867 29.9562 237.264 32.2525 237.264 35.1751C237.264 36.8451 236.43 38.5152 234.971 39.4546L233.929 40.1852L235.284 49.9966H228.823Z" fill="#2D2D2D"/>
<path d="M211.005 50.8317C211.005 51.5623 210.484 52.0842 209.755 52.0842C209.025 52.0842 208.504 51.5623 208.504 50.8317C208.504 50.101 209.025 49.5791 209.755 49.5791C210.484 49.5791 211.005 50.2054 211.005 50.8317Z" fill="#D64820"/>
<path d="M211.005 27.5556C211.005 28.2862 210.484 28.8081 209.755 28.8081C209.025 28.8081 208.504 28.2862 208.504 27.5556C208.504 26.8249 209.025 26.303 209.755 26.303C210.484 26.303 211.005 26.8249 211.005 27.5556Z" fill="#D64820"/>
<path d="M255.394 50.8317C255.394 51.5623 254.873 52.0842 254.144 52.0842C253.415 52.0842 252.894 51.5623 252.894 50.8317C252.894 50.101 253.415 49.5791 254.144 49.5791C254.873 49.5791 255.394 50.2054 255.394 50.8317Z" fill="#D64820"/>
<path d="M255.394 27.5556C255.394 28.2862 254.873 28.8081 254.144 28.8081C253.415 28.8081 252.894 28.2862 252.894 27.5556C252.894 26.8249 253.415 26.303 254.144 26.303C254.873 26.303 255.394 26.8249 255.394 27.5556Z" fill="#D64820"/>
<path d="M260.396 22.0236C260.396 22.7542 260.083 23.2761 259.667 23.798C259.25 24.2155 258.625 24.5286 257.895 24.5286H206.004C204.649 24.5286 203.607 23.4849 203.607 22.128C203.607 21.5017 203.92 20.8754 204.336 20.3535C204.753 19.936 205.378 19.6229 206.108 19.6229H257.999C259.354 19.5185 260.396 20.6667 260.396 22.0236Z" fill="#D64820"/>
<path d="M640.622 171.596V198.838C640.622 200.091 639.58 201.135 638.33 201.135H620.72H617.177H610.404C609.154 201.135 608.112 200.091 608.112 198.838V171.596C608.112 170.343 609.154 169.3 610.404 169.3H638.33C639.58 169.195 640.622 170.239 640.622 171.596Z" fill="#D64820"/>
<path d="M606.028 188.088C605.819 188.088 605.715 187.879 605.715 187.774V169.926C605.715 168.256 607.07 166.899 608.737 166.899H623.637C623.846 166.899 623.95 167.108 623.95 167.212C623.95 167.421 623.742 167.525 623.637 167.525H608.737C607.486 167.525 606.444 168.569 606.444 169.822V187.67C606.444 187.983 606.236 188.088 606.028 188.088Z" fill="#2D2D2D"/>
<path d="M614.572 185.165C614.572 190.593 618.948 194.976 624.367 194.976C629.785 194.976 634.162 190.593 634.162 185.165C634.162 179.737 629.785 175.354 624.367 175.354C618.948 175.354 614.572 179.737 614.572 185.165ZM620.095 188.818C619.782 187.774 619.574 186.626 619.574 185.374H623.95V188.818H620.095ZM622.387 193.933C619.886 193.411 617.802 191.845 616.552 189.549H619.469C619.886 190.697 620.407 191.741 621.137 192.68C621.553 193.098 621.97 193.515 622.387 193.933ZM623.95 189.549V194.141C623.637 193.933 622.7 193.411 621.762 192.158C621.137 191.428 620.72 190.488 620.303 189.549H623.95ZM620.511 180.364C621.553 178.067 623.116 176.606 623.533 176.189C623.637 176.189 623.742 176.189 623.846 176.189V180.364H620.511ZM616.76 180.364C618.011 178.38 619.99 177.024 622.179 176.397C621.762 176.815 621.345 177.337 620.928 177.963C620.407 178.694 619.99 179.529 619.574 180.364H616.76ZM619.574 184.539C619.574 183.391 619.886 182.242 620.199 181.094H623.95V184.539H619.574ZM615.406 184.539C615.51 183.391 615.822 182.242 616.343 181.094H619.365C618.948 182.242 618.74 183.391 618.74 184.539H615.406ZM618.74 185.374C618.74 186.626 618.948 187.774 619.261 188.818H616.135C615.614 187.774 615.406 186.626 615.406 185.374H618.74ZM629.889 185.374H633.328C633.328 186.522 633.015 187.67 632.599 188.818H629.368C629.681 187.67 629.785 186.522 629.889 185.374ZM624.784 180.364V176.189C624.888 176.189 624.992 176.189 624.992 176.189C625.305 176.502 626.138 177.232 626.972 178.38C627.389 179.007 627.805 179.633 628.014 180.364H624.784ZM628.326 181.094C628.743 182.242 628.952 183.391 628.952 184.539H624.679V181.094H628.326ZM628.952 180.364C628.639 179.529 628.118 178.694 627.597 177.963C627.18 177.441 626.763 176.919 626.347 176.397C628.639 176.919 630.619 178.38 631.869 180.364H628.952ZM629.056 185.374C629.056 186.626 628.847 187.774 628.535 188.818H624.784V185.374H629.056ZM629.785 184.539C629.785 183.391 629.577 182.242 629.16 181.094H632.286C632.807 182.138 633.12 183.286 633.224 184.539H629.785ZM632.182 189.549C630.931 191.741 628.743 193.411 626.242 193.933C626.659 193.515 627.076 193.098 627.493 192.68C628.222 191.741 628.743 190.697 629.16 189.549H632.182ZM628.222 189.549C627.18 192.367 625.305 193.724 624.679 194.037V189.549H628.222Z" fill="#F5EFE0"/>
<path d="M608.112 217.731V244.973C608.112 246.226 609.154 247.269 610.404 247.269H628.014H631.557H638.33C639.58 247.269 640.622 246.226 640.622 244.973V217.731C640.622 216.478 639.58 215.434 638.33 215.434H610.404C609.154 215.33 608.112 216.374 608.112 217.731Z" fill="#D64820"/>
<path d="M606.444 234.744C606.236 234.744 606.132 234.535 606.132 234.431V216.583C606.132 214.912 607.486 213.556 609.154 213.556H624.054C624.263 213.556 624.367 213.764 624.367 213.869C624.367 214.077 624.158 214.182 624.054 214.182H609.154C607.903 214.182 606.861 215.226 606.861 216.478V234.327C606.861 234.64 606.653 234.744 606.444 234.744Z" fill="#2D2D2D"/>
<path d="M618.948 240.798L614.259 234.222L617.073 232.135L619.365 235.37L630.827 223.367L633.432 225.768L618.948 240.798Z" fill="#F5EFE0"/>
</g>
<defs>
<clipPath id="clip0_174_152">
<rect width="650" height="434" fill="white"/>
</clipPath>
</defs>
</svg>
