<svg width="72" height="72" viewBox="0 0 72 72" fill="none" xmlns="http://www.w3.org/2000/svg">
<circle cx="36" cy="36" r="36" fill="#B40D1A"/>
<path opacity="0.4" d="M53.25 44.25C53.4489 44.25 53.6397 44.3364 53.7803 44.4903C53.921 44.6441 54 44.8528 54 45.0703V47.8047C54 48.0222 53.921 48.2309 53.7803 48.3847C53.6397 48.5386 53.4489 48.625 53.25 48.625H22.75C22.5511 48.625 22.3603 48.5386 22.2197 48.3847C22.079 48.2309 22 48.0222 22 47.8047V23.1953C22 22.9778 22.079 22.7691 22.2197 22.6153C22.3603 22.4614 22.5511 22.375 22.75 22.375H25.25C25.4489 22.375 25.6397 22.4614 25.7803 22.6153C25.921 22.7691 26 22.9778 26 23.1953V44.25H53.25Z" fill="#FFFCF7"/>
<path d="M46.3813 29.2247L52 42.0626H28V34.9532L33.425 25.0616C33.4884 24.9462 33.5767 24.8497 33.6823 24.7805C33.7878 24.7113 33.9073 24.6716 34.0302 24.6649C34.1531 24.6581 34.2756 24.6845 34.387 24.7418C34.4984 24.7991 34.5951 24.8854 34.6687 24.9932L40 32.7657L45.2938 28.9034C45.3826 28.839 45.4829 28.796 45.5882 28.7773C45.6934 28.7586 45.801 28.7646 45.9039 28.795C46.0068 28.8254 46.1026 28.8795 46.1849 28.9536C46.2673 29.0277 46.3342 29.1201 46.3813 29.2247Z" fill="#FFFCF7"/>
</svg>
