<svg width="72" height="72" viewBox="0 0 72 72" fill="none" xmlns="http://www.w3.org/2000/svg">
<circle cx="36" cy="36" r="36" fill="#B30D19"/>
<g clip-path="url(#clip0_378_633)">
<path opacity="0.4" d="M48.9999 26.9999H41.1249C40.8265 26.9999 40.5404 26.8814 40.3294 26.6704C40.1184 26.4594 39.9999 26.1732 39.9999 25.8749V17.9999H23.6874C23.4663 17.9993 23.2473 18.0423 23.0429 18.1264C22.8385 18.2105 22.6526 18.334 22.4959 18.4899C22.3392 18.6458 22.2147 18.8311 22.1296 19.0351C22.0445 19.2391 22.0004 19.4579 21.9999 19.6789V52.3124C21.9993 52.5334 22.0423 52.7524 22.1264 52.9569C22.2105 53.1613 22.334 53.3472 22.4899 53.5039C22.6458 53.6606 22.8311 53.785 23.0351 53.8701C23.2391 53.9552 23.4579 53.9993 23.6789 53.9999H47.3124C47.5334 54.0004 47.7524 53.9574 47.9569 53.8734C48.1613 53.7893 48.3472 53.6657 48.5039 53.5098C48.6606 53.3539 48.785 53.1687 48.8701 52.9646C48.9553 52.7606 48.9993 52.5419 48.9999 52.3208V26.9999ZM43.1253 42.4236L36.3436 49.1525C36.1191 49.3748 35.8159 49.4994 35.4999 49.4994C35.1839 49.4994 34.8807 49.3748 34.6561 49.1525L27.8766 42.4236C27.1622 41.7156 27.6629 40.4999 28.6669 40.4999H33.2499V34.8749C33.2499 34.5765 33.3684 34.2904 33.5794 34.0794C33.7904 33.8684 34.0765 33.7499 34.3749 33.7499H36.6249C36.9233 33.7499 37.2094 33.8684 37.4204 34.0794C37.6314 34.2904 37.7499 34.5765 37.7499 34.8749V40.4999H42.3329C43.3369 40.4999 43.8376 41.7156 43.1253 42.4236Z" fill="#FFFCF7"/>
<path d="M48.5078 25.3828L41.6242 18.4922C41.4671 18.3356 41.2807 18.2116 41.0756 18.1271C40.8705 18.0427 40.6507 17.9995 40.4289 18H40V25.875C40 26.1734 40.1185 26.4595 40.3295 26.6705C40.5405 26.8815 40.8266 27 41.125 27H49V26.5711C49 26.3504 48.9565 26.1319 48.8721 25.928C48.7876 25.7241 48.6639 25.5389 48.5078 25.3828ZM42.333 40.5H37.75V34.875C37.75 34.5766 37.6315 34.2905 37.4205 34.0795C37.2095 33.8685 36.9234 33.75 36.625 33.75H34.375C34.0766 33.75 33.7905 33.8685 33.5795 34.0795C33.3685 34.2905 33.25 34.5766 33.25 34.875V40.5H28.667C27.663 40.5 27.1623 41.7157 27.8767 42.4237L34.6562 49.1527C34.8808 49.3749 35.184 49.4996 35.5 49.4996C35.816 49.4996 36.1192 49.3749 36.3437 49.1527L43.1254 42.4237C43.8377 41.7157 43.337 40.5 42.333 40.5Z" fill="#FFFCF7"/>
</g>
<defs>
<clipPath id="clip0_378_633">
<rect width="27" height="36" fill="white" transform="translate(22 18)"/>
</clipPath>
</defs>
</svg>
