<svg width="72" height="72" viewBox="0 0 72 72" fill="none" xmlns="http://www.w3.org/2000/svg">
<circle cx="36" cy="36" r="36" fill="#B40D1A"/>
<g clip-path="url(#clip0_378_632)">
<path opacity="0.4" d="M36 47.25C44.0789 47.25 50.625 40.7039 50.625 32.625C50.625 24.5461 44.0789 18 36 18C27.9211 18 21.375 24.5461 21.375 32.625C21.375 40.7039 27.9211 47.25 36 47.25ZM34.4391 24.8484V23.6672C34.4387 23.5138 34.4686 23.3619 34.5272 23.2201C34.5857 23.0783 34.6716 22.9495 34.7801 22.841C34.8886 22.7326 35.0174 22.6466 35.1591 22.5881C35.3009 22.5296 35.4529 22.4996 35.6062 22.5H36.3867C36.5401 22.4996 36.692 22.5296 36.8338 22.5881C36.9756 22.6466 37.1044 22.7326 37.2129 22.841C37.3213 22.9495 37.4073 23.0783 37.4658 23.2201C37.5243 23.3619 37.5543 23.5138 37.5539 23.6672V24.8625C38.6465 24.9172 39.6985 25.294 40.5773 25.9453C40.6701 26.013 40.7469 26.1001 40.8025 26.2005C40.858 26.301 40.891 26.4124 40.899 26.5269C40.9071 26.6414 40.89 26.7563 40.849 26.8635C40.808 26.9707 40.7441 27.0677 40.6617 27.1477L39.5156 28.2375C39.2484 28.4977 38.8477 28.5047 38.5312 28.3078C38.157 28.071 37.7226 27.9465 37.2797 27.9492H34.5445C33.9117 27.9492 33.3984 28.5258 33.3984 29.2359C33.3984 29.8125 33.75 30.3258 34.2492 30.4734L38.6297 31.7883C40.4367 32.3297 41.7023 34.0664 41.7023 36.0141C41.7023 38.4047 39.8461 40.3383 37.5469 40.4016V41.5828C37.5472 41.7362 37.5173 41.8881 37.4588 42.0299C37.4003 42.1717 37.3143 42.3005 37.2058 42.409C37.0974 42.5174 36.9686 42.6034 36.8268 42.6619C36.685 42.7204 36.5331 42.7504 36.3797 42.75H35.5992C35.4458 42.7504 35.2939 42.7204 35.1521 42.6619C35.0103 42.6034 34.8815 42.5174 34.7731 42.409C34.6646 42.3005 34.5786 42.1717 34.5201 42.0299C34.4616 41.8881 34.4317 41.7362 34.432 41.5828V40.3875C33.3395 40.3328 32.2875 39.956 31.4086 39.3047C31.3159 39.237 31.239 39.1499 31.1835 39.0495C31.1279 38.949 31.0949 38.8376 31.0869 38.7231C31.0789 38.6086 31.0959 38.4937 31.1369 38.3865C31.1779 38.2793 31.2418 38.1823 31.3242 38.1023L32.4703 37.0125C32.7375 36.7523 33.1383 36.7453 33.4547 36.9422C33.829 37.179 34.2633 37.3035 34.7063 37.3008H37.4414C38.0742 37.3008 38.5875 36.7242 38.5875 36.0141C38.5875 35.4375 38.2359 34.9242 37.7367 34.7766L33.3562 33.4617C31.5492 32.9203 30.2836 31.1836 30.2836 29.2359C30.2906 26.8453 32.1398 24.9117 34.4391 24.8484Z" fill="#FFFCF7"/>
<path d="M33.3562 33.4617L37.7367 34.7766C38.2359 34.9242 38.5875 35.4375 38.5875 36.0141C38.5875 36.7242 38.0742 37.3008 37.4414 37.3008H34.7063C34.2633 37.3035 33.829 37.179 33.4547 36.9422C33.1383 36.7453 32.7375 36.7524 32.4703 37.0125L31.3242 38.1024C31.2418 38.1823 31.1779 38.2793 31.1369 38.3865C31.0959 38.4937 31.0789 38.6086 31.0869 38.7231C31.0949 38.8377 31.1279 38.949 31.1835 39.0495C31.239 39.1499 31.3159 39.237 31.4086 39.3047C32.2875 39.9561 33.3395 40.3328 34.432 40.3875V41.5828C34.4317 41.7362 34.4616 41.8881 34.5201 42.0299C34.5786 42.1717 34.6646 42.3005 34.7731 42.409C34.8815 42.5174 35.0103 42.6034 35.1521 42.6619C35.2939 42.7204 35.4458 42.7504 35.5992 42.75H36.3797C36.5331 42.7504 36.685 42.7204 36.8268 42.6619C36.9686 42.6034 37.0974 42.5174 37.2058 42.409C37.3143 42.3005 37.4003 42.1717 37.4588 42.0299C37.5173 41.8881 37.5472 41.7362 37.5469 41.5828V40.4016C39.8461 40.3383 41.7023 38.4047 41.7023 36.0141C41.7023 34.0664 40.4367 32.3297 38.6297 31.7883L34.2492 30.4734C33.75 30.3258 33.3984 29.8125 33.3984 29.2359C33.3984 28.5258 33.9117 27.9492 34.5445 27.9492H37.2797C37.7226 27.9465 38.157 28.071 38.5312 28.3078C38.8477 28.5047 39.2484 28.4977 39.5156 28.2375L40.6617 27.1477C40.7441 27.0677 40.808 26.9707 40.849 26.8635C40.89 26.7563 40.9071 26.6414 40.899 26.5269C40.891 26.4124 40.858 26.301 40.8025 26.2005C40.7469 26.1001 40.6701 26.013 40.5773 25.9453C39.6985 25.294 38.6465 24.9172 37.5539 24.8625V23.6672C37.5543 23.5138 37.5243 23.3619 37.4658 23.2201C37.4073 23.0783 37.3213 22.9495 37.2129 22.841C37.1044 22.7326 36.9756 22.6466 36.8338 22.5881C36.692 22.5296 36.5401 22.4996 36.3867 22.5H35.6062C35.4529 22.4996 35.3009 22.5296 35.1591 22.5881C35.0174 22.6466 34.8886 22.7326 34.7801 22.841C34.6716 22.9495 34.5857 23.0783 34.5272 23.2201C34.4686 23.3619 34.4387 23.5138 34.4391 23.6672V24.8484C32.1398 24.9117 30.2906 26.8453 30.2836 29.2359C30.2836 31.1836 31.5492 32.9203 33.3562 33.4617ZM51.75 42.75H49.4648C48.0749 44.5808 46.3289 46.1115 44.332 47.25H48.818C49.1906 47.25 49.493 47.5031 49.493 47.8125V48.9375C49.493 49.2469 49.1906 49.5 48.818 49.5H23.175C22.8023 49.5 22.5 49.2469 22.5 48.9375V47.8125C22.5 47.5031 22.8023 47.25 23.175 47.25H27.6609C25.6654 46.1096 23.9198 44.5792 22.5281 42.75H20.25C19.6533 42.75 19.081 42.9871 18.659 43.409C18.2371 43.831 18 44.4033 18 45V51.75C18 52.3468 18.2371 52.919 18.659 53.341C19.081 53.763 19.6533 54 20.25 54H51.75C52.3467 54 52.919 53.763 53.341 53.341C53.7629 52.919 54 52.3468 54 51.75V45C54 44.4033 53.7629 43.831 53.341 43.409C52.919 42.9871 52.3467 42.75 51.75 42.75Z" fill="#FFFCF7"/>
</g>
<defs>
<clipPath id="clip0_378_632">
<rect width="36" height="36" fill="white" transform="translate(18 18)"/>
</clipPath>
</defs>
</svg>
