<svg width="261" height="59" viewBox="0 0 261 59" fill="none" xmlns="http://www.w3.org/2000/svg">
<g filter="url(#filter0_d_86_150)">
<ellipse cx="15.9904" cy="15.9975" rx="15.9904" ry="15.9975" transform="matrix(-1 0 0 1 42.3529 12.1567)" fill="white"/>
<path d="M9.56253 44.2313L27.1009 44.2875L10.5382 26.4848L9.56253 44.2313Z" fill="white"/>
</g>
<g filter="url(#filter1_d_86_150)">
<ellipse cx="42.265" cy="18.7426" rx="15.9904" ry="15.9975" fill="white"/>
<path d="M59.0649 34.8197L41.5266 34.8759L58.0893 17.0731L59.0649 34.8197Z" fill="white"/>
</g>
<g filter="url(#filter2_d_86_150)">
<path d="M87.7255 28.8824C89.3203 29.2222 90.6013 30.0196 91.5686 31.2745C92.5359 32.5033 93.0196 33.915 93.0196 35.5098C93.0196 37.8105 92.2091 39.6405 90.5882 41C88.9935 42.3333 86.7582 43 83.8824 43H71.0588V15.4706H83.451C86.2484 15.4706 88.4314 16.1111 90 17.3922C91.5948 18.6732 92.3922 20.4118 92.3922 22.6078C92.3922 24.2288 91.9608 25.5752 91.098 26.6471C90.2614 27.719 89.1373 28.4641 87.7255 28.8824ZM77.7647 26.6078H82.1569C83.2549 26.6078 84.0915 26.3725 84.6667 25.902C85.268 25.4052 85.5686 24.6863 85.5686 23.7451C85.5686 22.8039 85.268 22.085 84.6667 21.5882C84.0915 21.0915 83.2549 20.8431 82.1569 20.8431H77.7647V26.6078ZM82.7059 37.5882C83.8301 37.5882 84.6928 37.3399 85.2941 36.8431C85.9216 36.3203 86.2353 35.5752 86.2353 34.6078C86.2353 33.6405 85.9085 32.8824 85.2549 32.3333C84.6274 31.7843 83.7516 31.5098 82.6275 31.5098H77.7647V37.5882H82.7059ZM117.34 31.7059C117.34 32.3333 117.301 32.9869 117.223 33.6667H102.046C102.151 35.0261 102.582 36.0719 103.34 36.8039C104.125 37.5098 105.079 37.8627 106.203 37.8627C107.876 37.8627 109.04 37.1569 109.693 35.7451H116.831C116.465 37.183 115.798 38.4771 114.831 39.6275C113.889 40.7778 112.7 41.6797 111.262 42.3333C109.824 42.9869 108.216 43.3137 106.438 43.3137C104.295 43.3137 102.386 42.8562 100.713 41.9412C99.0397 41.0261 97.7325 39.719 96.7914 38.0196C95.8502 36.3203 95.3796 34.3333 95.3796 32.0588C95.3796 29.7843 95.8371 27.7974 96.7521 26.098C97.6933 24.3987 99.0005 23.0915 100.674 22.1765C102.347 21.2614 104.268 20.8039 106.438 20.8039C108.556 20.8039 110.438 21.2484 112.085 22.1373C113.733 23.0261 115.014 24.2941 115.929 25.9412C116.87 27.5882 117.34 29.5098 117.34 31.7059ZM110.478 29.9412C110.478 28.7908 110.085 27.8758 109.301 27.1961C108.517 26.5163 107.536 26.1765 106.36 26.1765C105.236 26.1765 104.282 26.5033 103.497 27.1569C102.739 27.8105 102.268 28.7386 102.085 29.9412H110.478ZM127.388 24.7647C128.172 23.5621 129.153 22.6209 130.329 21.9412C131.506 21.2353 132.813 20.8824 134.251 20.8824V27.9804H132.407C130.734 27.9804 129.479 28.3464 128.643 29.0784C127.806 29.7843 127.388 31.0392 127.388 32.8431V43H120.682V21.1176H127.388V24.7647ZM146.162 43.3137C144.253 43.3137 142.554 42.9869 141.064 42.3333C139.574 41.6797 138.397 40.7908 137.534 39.6667C136.672 38.5163 136.188 37.2353 136.083 35.8235H142.711C142.789 36.5817 143.142 37.1961 143.77 37.6667C144.397 38.1373 145.168 38.3725 146.083 38.3725C146.92 38.3725 147.56 38.2157 148.005 37.902C148.475 37.5621 148.711 37.1307 148.711 36.6078C148.711 35.9804 148.384 35.5229 147.73 35.2353C147.077 34.9216 146.018 34.5817 144.554 34.2157C142.985 33.8497 141.678 33.4706 140.632 33.0784C139.587 32.6601 138.685 32.0196 137.926 31.1569C137.168 30.268 136.789 29.0784 136.789 27.5882C136.789 26.3333 137.129 25.1961 137.809 24.1765C138.515 23.1307 139.534 22.3072 140.868 21.7059C142.227 21.1046 143.835 20.8039 145.691 20.8039C148.436 20.8039 150.593 21.4837 152.162 22.8431C153.757 24.2026 154.672 26.0065 154.907 28.2549H148.711C148.606 27.4967 148.266 26.8954 147.691 26.451C147.142 26.0065 146.41 25.7843 145.495 25.7843C144.711 25.7843 144.109 25.9412 143.691 26.2549C143.273 26.5425 143.064 26.9477 143.064 27.4706C143.064 28.098 143.391 28.5686 144.044 28.8824C144.724 29.1961 145.77 29.5098 147.181 29.8235C148.802 30.2418 150.123 30.6601 151.142 31.0784C152.162 31.4706 153.051 32.1242 153.809 33.0392C154.593 33.9281 154.998 35.1307 155.025 36.6471C155.025 37.9281 154.658 39.0784 153.926 40.098C153.221 41.0915 152.188 41.8758 150.828 42.451C149.495 43.0261 147.94 43.3137 146.162 43.3137ZM190.343 21.1176L184.421 43H177.009L173.559 28.8039L169.99 43H162.617L156.657 21.1176H163.362L166.46 36.7647L170.147 21.1176H177.245L180.97 36.6863L184.029 21.1176H190.343ZM191.371 32.0196C191.371 29.7712 191.789 27.7974 192.626 26.098C193.488 24.3987 194.652 23.0915 196.116 22.1765C197.58 21.2614 199.214 20.8039 201.018 20.8039C202.56 20.8039 203.907 21.1176 205.057 21.7451C206.233 22.3725 207.135 23.1961 207.763 24.2157V21.1176H214.469V43H207.763V39.902C207.109 40.9216 206.194 41.7451 205.018 42.3725C203.867 43 202.521 43.3137 200.979 43.3137C199.201 43.3137 197.58 42.8562 196.116 41.9412C194.652 41 193.488 39.6797 192.626 37.9804C191.789 36.2549 191.371 34.268 191.371 32.0196ZM207.763 32.0588C207.763 30.3856 207.292 29.0654 206.351 28.098C205.436 27.1307 204.312 26.6471 202.979 26.6471C201.645 26.6471 200.508 27.1307 199.567 28.098C198.652 29.0392 198.194 30.3464 198.194 32.0196C198.194 33.6928 198.652 35.0261 199.567 36.0196C200.508 36.9869 201.645 37.4706 202.979 37.4706C204.312 37.4706 205.436 36.9869 206.351 36.0196C207.292 35.0523 207.763 33.732 207.763 32.0588ZM225.83 24.7647C226.614 23.5621 227.595 22.6209 228.771 21.9412C229.948 21.2353 231.255 20.8824 232.693 20.8824V27.9804H230.85C229.176 27.9804 227.921 28.3464 227.085 29.0784C226.248 29.7843 225.83 31.0392 225.83 32.8431V43H219.124V21.1176H225.83V24.7647ZM234.369 32.0196C234.369 29.7712 234.787 27.7974 235.623 26.098C236.486 24.3987 237.65 23.0915 239.114 22.1765C240.578 21.2614 242.212 20.8039 244.016 20.8039C245.558 20.8039 246.905 21.1176 248.055 21.7451C249.231 22.3725 250.133 23.1961 250.761 24.2157V21.1176H257.467V43H250.761V39.902C250.107 40.9216 249.192 41.7451 248.016 42.3725C246.865 43 245.519 43.3137 243.976 43.3137C242.199 43.3137 240.578 42.8562 239.114 41.9412C237.65 41 236.486 39.6797 235.623 37.9804C234.787 36.2549 234.369 34.268 234.369 32.0196ZM250.761 32.0588C250.761 30.3856 250.29 29.0654 249.349 28.098C248.434 27.1307 247.31 26.6471 245.976 26.6471C244.643 26.6471 243.506 27.1307 242.565 28.098C241.65 29.0392 241.192 30.3464 241.192 32.0196C241.192 33.6928 241.65 35.0261 242.565 36.0196C243.506 36.9869 244.643 37.4706 245.976 37.4706C247.31 37.4706 248.434 36.9869 249.349 36.0196C250.29 35.0523 250.761 33.732 250.761 32.0588Z" fill="white"/>
</g>
<defs>
<filter id="filter0_d_86_150" x="7.99391" y="12.1567" width="35.9277" height="35.2681" filterUnits="userSpaceOnUse" color-interpolation-filters="sRGB">
<feFlood flood-opacity="0" result="BackgroundImageFix"/>
<feColorMatrix in="SourceAlpha" type="matrix" values="0 0 0 0 0 0 0 0 0 0 0 0 0 0 0 0 0 0 127 0" result="hardAlpha"/>
<feOffset dy="1.56863"/>
<feGaussianBlur stdDeviation="0.784314"/>
<feComposite in2="hardAlpha" operator="out"/>
<feColorMatrix type="matrix" values="0 0 0 0 0 0 0 0 0 0 0 0 0 0 0 0 0 0 0.25 0"/>
<feBlend mode="normal" in2="BackgroundImageFix" result="effect1_dropShadow_86_150"/>
<feBlend mode="normal" in="SourceGraphic" in2="effect1_dropShadow_86_150" result="shape"/>
</filter>
<filter id="filter1_d_86_150" x="24.7059" y="2.74512" width="35.9277" height="35.2681" filterUnits="userSpaceOnUse" color-interpolation-filters="sRGB">
<feFlood flood-opacity="0" result="BackgroundImageFix"/>
<feColorMatrix in="SourceAlpha" type="matrix" values="0 0 0 0 0 0 0 0 0 0 0 0 0 0 0 0 0 0 127 0" result="hardAlpha"/>
<feOffset dy="1.56863"/>
<feGaussianBlur stdDeviation="0.784314"/>
<feComposite in2="hardAlpha" operator="out"/>
<feColorMatrix type="matrix" values="0 0 0 0 0 0 0 0 0 0 0 0 0 0 0 0 0 0 0.25 0"/>
<feBlend mode="normal" in2="BackgroundImageFix" result="effect1_dropShadow_86_150"/>
<feBlend mode="normal" in="SourceGraphic" in2="effect1_dropShadow_86_150" result="shape"/>
</filter>
<filter id="filter2_d_86_150" x="69.4902" y="15.4707" width="189.545" height="30.9803" filterUnits="userSpaceOnUse" color-interpolation-filters="sRGB">
<feFlood flood-opacity="0" result="BackgroundImageFix"/>
<feColorMatrix in="SourceAlpha" type="matrix" values="0 0 0 0 0 0 0 0 0 0 0 0 0 0 0 0 0 0 127 0" result="hardAlpha"/>
<feOffset dy="1.56863"/>
<feGaussianBlur stdDeviation="0.784314"/>
<feComposite in2="hardAlpha" operator="out"/>
<feColorMatrix type="matrix" values="0 0 0 0 0 0 0 0 0 0 0 0 0 0 0 0 0 0 0.25 0"/>
<feBlend mode="normal" in2="BackgroundImageFix" result="effect1_dropShadow_86_150"/>
<feBlend mode="normal" in="SourceGraphic" in2="effect1_dropShadow_86_150" result="shape"/>
</filter>
</defs>
</svg>
