<svg width="224" height="51" viewBox="0 0 224 51" fill="none" xmlns="http://www.w3.org/2000/svg">
<g filter="url(#filter0_d_80_49)">
<ellipse cx="13.7286" cy="13.7346" rx="13.7286" ry="13.7346" transform="matrix(-1 0 0 1 36.3621 10.4375)" fill="#B4301A"/>
<path d="M8.20987 37.9749L23.2674 38.0232L9.04749 22.7387L8.20987 37.9749Z" fill="#B4301A"/>
</g>
<g filter="url(#filter1_d_80_49)">
<ellipse cx="36.2866" cy="16.0916" rx="13.7286" ry="13.7346" fill="#F3D067" fill-opacity="0.95"/>
<path d="M50.7101 29.8944L35.6525 29.9426L49.8724 14.6581L50.7101 29.8944Z" fill="#F3D067" fill-opacity="0.95"/>
</g>
<g filter="url(#filter2_d_80_49)">
<path d="M75.3165 24.8793C76.6857 25.1711 77.7855 25.8557 78.616 26.9331C79.4465 27.988 79.8618 29.2001 79.8618 30.5693C79.8618 32.5445 79.166 34.1157 77.7743 35.2829C76.4051 36.4276 74.486 37 72.017 37H61.0074V13.3647H71.6466C74.0483 13.3647 75.9225 13.9146 77.2693 15.0144C78.6385 16.1143 79.3231 17.6069 79.3231 19.4923C79.3231 20.884 78.9527 22.0399 78.212 22.9602C77.4937 23.8805 76.5286 24.5202 75.3165 24.8793ZM66.7647 22.9265H70.5356C71.4783 22.9265 72.1966 22.7245 72.6904 22.3205C73.2066 21.894 73.4647 21.2768 73.4647 20.4687C73.4647 19.6607 73.2066 19.0434 72.6904 18.617C72.1966 18.1905 71.4783 17.9773 70.5356 17.9773H66.7647V22.9265ZM71.0069 32.3537C71.9721 32.3537 72.7128 32.1405 73.2291 31.714C73.7678 31.2651 74.0371 30.6254 74.0371 29.7949C74.0371 28.9644 73.7565 28.3135 73.1954 27.8421C72.6567 27.3708 71.9048 27.1351 70.9396 27.1351H66.7647V32.3537H71.0069ZM100.742 27.3035C100.742 27.8421 100.709 28.4033 100.641 28.9869H87.6116C87.7014 30.1541 88.0717 31.0519 88.7227 31.6804C89.396 32.2864 90.2153 32.5894 91.1805 32.5894C92.617 32.5894 93.6158 31.9834 94.177 30.7713H100.305C99.9904 32.0058 99.418 33.1169 98.5875 34.1045C97.7795 35.0921 96.7582 35.8665 95.5237 36.4276C94.2892 36.9888 92.9088 37.2693 91.3825 37.2693C89.5419 37.2693 87.9034 36.8765 86.4669 36.0909C85.0303 35.3053 83.908 34.1831 83.1 32.7241C82.292 31.2651 81.8879 29.5592 81.8879 27.6065C81.8879 25.6537 82.2807 23.9478 83.0663 22.4888C83.8744 21.0299 84.9967 19.9076 86.4332 19.122C87.8697 18.3364 89.5195 17.9436 91.3825 17.9436C93.2006 17.9436 94.8167 18.3252 96.2307 19.0883C97.6448 19.8515 98.7447 20.9401 99.5303 22.3542C100.338 23.7683 100.742 25.418 100.742 27.3035ZM94.8503 25.7884C94.8503 24.8008 94.5136 24.0152 93.8403 23.4316C93.1669 22.848 92.3252 22.5562 91.3151 22.5562C90.35 22.5562 89.5307 22.8368 88.8573 23.3979C88.2064 23.959 87.8024 24.7559 87.6453 25.7884H94.8503ZM109.369 21.3441C110.042 20.3116 110.884 19.5036 111.894 18.92C112.904 18.3139 114.026 18.0109 115.261 18.0109V24.1049H113.678C112.242 24.1049 111.164 24.4192 110.446 25.0477C109.728 25.6537 109.369 26.7311 109.369 28.2798V37H103.611V18.2129H109.369V21.3441ZM125.487 37.2693C123.848 37.2693 122.389 36.9888 121.11 36.4276C119.831 35.8665 118.821 35.1033 118.08 34.1382C117.339 33.1506 116.924 32.0507 116.834 30.8387H122.524C122.591 31.4896 122.894 32.0171 123.433 32.4211C123.972 32.8251 124.634 33.0271 125.42 33.0271C126.138 33.0271 126.688 32.8924 127.069 32.6231C127.473 32.3313 127.675 31.9609 127.675 31.512C127.675 30.9733 127.395 30.5805 126.834 30.3336C126.272 30.0643 125.363 29.7725 124.106 29.4582C122.76 29.144 121.637 28.8185 120.74 28.4819C119.842 28.1227 119.067 27.5728 118.416 26.8321C117.766 26.0689 117.44 25.0477 117.44 23.7683C117.44 22.6909 117.732 21.7145 118.315 20.8391C118.922 19.9413 119.797 19.2342 120.942 18.718C122.109 18.2017 123.489 17.9436 125.083 17.9436C127.44 17.9436 129.291 18.5272 130.638 19.6944C132.007 20.8615 132.793 22.4103 132.995 24.3406H127.675C127.586 23.6897 127.294 23.1734 126.8 22.7919C126.329 22.4103 125.7 22.2195 124.915 22.2195C124.241 22.2195 123.725 22.3542 123.366 22.6235C123.007 22.8704 122.827 23.2183 122.827 23.6672C122.827 24.2059 123.108 24.61 123.669 24.8793C124.252 25.1487 125.15 25.418 126.362 25.6874C127.754 26.0465 128.887 26.4056 129.763 26.7648C130.638 27.1014 131.401 27.6626 132.052 28.4482C132.726 29.2113 133.074 30.2438 133.096 31.5457C133.096 32.6455 132.782 33.6331 132.153 34.5085C131.547 35.3615 130.661 36.0348 129.493 36.5286C128.349 37.0224 127.013 37.2693 125.487 37.2693ZM163.418 18.2129L158.335 37H151.971L149.008 24.812L145.944 37H139.615L134.497 18.2129H140.255L142.914 31.6467L146.079 18.2129H152.173L155.372 31.5794L157.998 18.2129H163.418ZM164.301 27.5728C164.301 25.6425 164.66 23.9478 165.378 22.4888C166.119 21.0299 167.118 19.9076 168.375 19.122C169.632 18.3364 171.035 17.9436 172.583 17.9436C173.908 17.9436 175.064 18.2129 176.051 18.7516C177.061 19.2903 177.836 19.9974 178.374 20.8728V18.2129H184.132V37H178.374V34.3402C177.813 35.2156 177.028 35.9226 176.018 36.4613C175.03 37 173.874 37.2693 172.55 37.2693C171.023 37.2693 169.632 36.8765 168.375 36.0909C167.118 35.2829 166.119 34.1494 165.378 32.6904C164.66 31.209 164.301 29.5031 164.301 27.5728ZM178.374 27.6065C178.374 26.1699 177.97 25.0364 177.162 24.2059C176.377 23.3755 175.412 22.9602 174.267 22.9602C173.122 22.9602 172.146 23.3755 171.338 24.2059C170.552 25.014 170.159 26.1363 170.159 27.5728C170.159 29.0093 170.552 30.1541 171.338 31.007C172.146 31.8375 173.122 32.2527 174.267 32.2527C175.412 32.2527 176.377 31.8375 177.162 31.007C177.97 30.1765 178.374 29.043 178.374 27.6065ZM193.886 21.3441C194.559 20.3116 195.401 19.5036 196.411 18.92C197.421 18.3139 198.543 18.0109 199.778 18.0109V24.1049H198.195C196.759 24.1049 195.682 24.4192 194.963 25.0477C194.245 25.6537 193.886 26.7311 193.886 28.2798V37H188.129V18.2129H193.886V21.3441ZM201.217 27.5728C201.217 25.6425 201.576 23.9478 202.294 22.4888C203.035 21.0299 204.034 19.9076 205.291 19.122C206.548 18.3364 207.95 17.9436 209.499 17.9436C210.823 17.9436 211.979 18.2129 212.967 18.7516C213.977 19.2903 214.751 19.9974 215.29 20.8728V18.2129H221.047V37H215.29V34.3402C214.729 35.2156 213.943 35.9226 212.933 36.4613C211.946 37 210.79 37.2693 209.466 37.2693C207.939 37.2693 206.548 36.8765 205.291 36.0909C204.034 35.2829 203.035 34.1494 202.294 32.6904C201.576 31.209 201.217 29.5031 201.217 27.5728ZM215.29 27.6065C215.29 26.1699 214.886 25.0364 214.078 24.2059C213.293 23.3755 212.327 22.9602 211.183 22.9602C210.038 22.9602 209.061 23.3755 208.253 24.2059C207.468 25.014 207.075 26.1363 207.075 27.5728C207.075 29.0093 207.468 30.1541 208.253 31.007C209.061 31.8375 210.038 32.2527 211.183 32.2527C212.327 32.2527 213.293 31.8375 214.078 31.007C214.886 30.1765 215.29 29.043 215.29 27.6065Z" fill="black"/>
</g>
<defs>
<filter id="filter0_d_80_49" x="6.8631" y="10.4375" width="30.8457" height="30.2792" filterUnits="userSpaceOnUse" color-interpolation-filters="sRGB">
<feFlood flood-opacity="0" result="BackgroundImageFix"/>
<feColorMatrix in="SourceAlpha" type="matrix" values="0 0 0 0 0 0 0 0 0 0 0 0 0 0 0 0 0 0 127 0" result="hardAlpha"/>
<feOffset dy="1.34674"/>
<feGaussianBlur stdDeviation="0.673371"/>
<feComposite in2="hardAlpha" operator="out"/>
<feColorMatrix type="matrix" values="0 0 0 0 0 0 0 0 0 0 0 0 0 0 0 0 0 0 0.25 0"/>
<feBlend mode="normal" in2="BackgroundImageFix" result="effect1_dropShadow_80_49"/>
<feBlend mode="normal" in="SourceGraphic" in2="effect1_dropShadow_80_49" result="shape"/>
</filter>
<filter id="filter1_d_80_49" x="21.2112" y="2.35693" width="30.8456" height="30.2792" filterUnits="userSpaceOnUse" color-interpolation-filters="sRGB">
<feFlood flood-opacity="0" result="BackgroundImageFix"/>
<feColorMatrix in="SourceAlpha" type="matrix" values="0 0 0 0 0 0 0 0 0 0 0 0 0 0 0 0 0 0 127 0" result="hardAlpha"/>
<feOffset dy="1.34674"/>
<feGaussianBlur stdDeviation="0.673371"/>
<feComposite in2="hardAlpha" operator="out"/>
<feColorMatrix type="matrix" values="0 0 0 0 0 0 0 0 0 0 0 0 0 0 0 0 0 0 0.25 0"/>
<feBlend mode="normal" in2="BackgroundImageFix" result="effect1_dropShadow_80_49"/>
<feBlend mode="normal" in="SourceGraphic" in2="effect1_dropShadow_80_49" result="shape"/>
</filter>
<filter id="filter2_d_80_49" x="59.6606" y="13.3647" width="162.734" height="26.598" filterUnits="userSpaceOnUse" color-interpolation-filters="sRGB">
<feFlood flood-opacity="0" result="BackgroundImageFix"/>
<feColorMatrix in="SourceAlpha" type="matrix" values="0 0 0 0 0 0 0 0 0 0 0 0 0 0 0 0 0 0 127 0" result="hardAlpha"/>
<feOffset dy="1.34674"/>
<feGaussianBlur stdDeviation="0.673371"/>
<feComposite in2="hardAlpha" operator="out"/>
<feColorMatrix type="matrix" values="0 0 0 0 0 0 0 0 0 0 0 0 0 0 0 0 0 0 0.25 0"/>
<feBlend mode="normal" in2="BackgroundImageFix" result="effect1_dropShadow_80_49"/>
<feBlend mode="normal" in="SourceGraphic" in2="effect1_dropShadow_80_49" result="shape"/>
</filter>
</defs>
</svg>
