<svg width="28" height="28" viewBox="0 0 28 28" fill="none" xmlns="http://www.w3.org/2000/svg">
<g clip-path="url(#clip0_86_147)">
<path fill-rule="evenodd" clip-rule="evenodd" d="M28 14C28 21.732 21.732 28 14 28C6.26803 28 0 21.732 0 14C0 6.26803 6.26803 0 14 0C21.732 0 28 6.26803 28 14ZM6.64487 8.8865C6.81596 9.04435 6.90334 9.27611 6.88018 9.51061V17.9544C6.93093 18.259 6.83713 18.5701 6.62743 18.7925L4.66667 21.2267V21.5477H10.2266V21.2267L8.26577 18.7925C8.05461 18.5705 7.95498 18.2614 7.99563 17.9544V10.6519L12.8758 21.5477H13.4423L17.634 10.6519V19.3364C17.634 19.5683 17.634 19.6128 17.4858 19.7644L15.9782 21.2623V21.5833H23.2985V21.2623L21.8431 19.8001C21.7146 19.6999 21.6509 19.5351 21.6775 19.3721V8.62791C21.6509 8.46487 21.7146 8.30013 21.8431 8.19992L23.3333 6.73767V6.41667H18.1743L14.4967 15.8055L10.3137 6.41667H4.90196V6.73767L6.64487 8.8865Z" fill="#FFFCF7"/>
</g>
<defs>
<clipPath id="clip0_86_147">
<rect width="28" height="28" fill="white"/>
</clipPath>
</defs>
</svg>
