<svg width="28" height="28" viewBox="0 0 28 28" fill="none" xmlns="http://www.w3.org/2000/svg">
<path fill-rule="evenodd" clip-rule="evenodd" d="M0 14C0 6.26803 6.26803 0 14 0C21.732 0 28 6.26803 28 14C28 21.732 21.732 28 14 28C6.26803 28 0 21.732 0 14ZM13.5807 11.3794L13.6101 11.8638L13.1205 11.8045C11.3382 11.5771 9.78116 10.806 8.45909 9.51084L7.81282 8.86824L7.64633 9.34278C7.29377 10.4006 7.51899 11.5178 8.25347 12.2691C8.64517 12.6844 8.55703 12.7437 7.88136 12.4965C7.64633 12.4174 7.44065 12.3581 7.42111 12.3878C7.35257 12.457 7.58753 13.3566 7.77362 13.7125C8.02824 14.2069 8.54723 14.6913 9.11522 14.978L9.59507 15.2054L9.02708 15.2153C8.47869 15.2153 8.45909 15.2252 8.51789 15.4328C8.71372 16.0754 9.48733 16.7575 10.3491 17.0542L10.9563 17.2618L10.4274 17.5781C9.64402 18.0329 8.72352 18.2899 7.80302 18.3097C7.36231 18.3196 7 18.3591 7 18.3888C7 18.4876 8.19473 19.0413 8.89 19.2588C10.9758 19.9014 13.4534 19.6246 15.314 18.5272C16.636 17.7462 17.958 16.194 18.575 14.6913C18.9079 13.8905 19.2409 12.4273 19.2409 11.7254C19.2409 11.2706 19.2702 11.2113 19.8186 10.6675C20.1418 10.3512 20.4454 10.0052 20.5042 9.90628C20.6021 9.71845 20.5923 9.71845 20.0929 9.88651C19.2605 10.1831 19.143 10.1436 19.5543 9.69868C19.8578 9.38233 20.2201 8.80892 20.2201 8.64086C20.2201 8.61117 20.0733 8.66063 19.9068 8.74959C19.7305 8.84847 19.3388 8.99675 19.045 9.08577L18.5162 9.25382L18.0364 8.92757C17.772 8.74959 17.3998 8.5519 17.204 8.49257C16.7046 8.35415 15.9407 8.37393 15.4903 8.53212C14.2662 8.97697 13.4926 10.1238 13.5807 11.3794Z" fill="#FFFCF7"/>
</svg>
