<svg width="28" height="28" viewBox="0 0 28 28" fill="none" xmlns="http://www.w3.org/2000/svg">
<g clip-path="url(#clip0_86_144)">
<path fill-rule="evenodd" clip-rule="evenodd" d="M0 14C0 6.26803 6.26803 0 14 0C21.732 0 28 6.26803 28 14C28 21.732 21.732 28 14 28C6.26803 28 0 21.732 0 14ZM21.1546 10.5427C20.9828 9.88295 20.4768 9.36343 19.8343 9.18709C18.6698 8.86667 14 8.86667 14 8.86667C14 8.86667 9.33018 8.86667 8.16567 9.18709C7.52307 9.36343 7.01703 9.88295 6.8453 10.5427C6.53333 11.7384 6.53333 14.2333 6.53333 14.2333C6.53333 14.2333 6.53333 16.7281 6.8453 17.924C7.01703 18.5837 7.52307 19.1032 8.16567 19.2796C9.33018 19.6 14 19.6 14 19.6C14 19.6 18.6698 19.6 19.8343 19.2796C20.4768 19.1032 20.9828 18.5837 21.1546 17.924C21.4667 16.7281 21.4667 14.2333 21.4667 14.2333C21.4667 14.2333 21.4667 11.7384 21.1546 10.5427Z" fill="#FFFCF7"/>
<path fill-rule="evenodd" clip-rule="evenodd" d="M12.6 16.8V12.1333L16.3333 14.4667L12.6 16.8Z" fill="#FFFCF7"/>
</g>
<defs>
<clipPath id="clip0_86_144">
<rect width="28" height="28" fill="white"/>
</clipPath>
</defs>
</svg>
