<svg width="18" height="18" viewBox="0 0 18 18" fill="none" xmlns="http://www.w3.org/2000/svg">
<g clip-path="url(#clip0_519_8087)">
<path d="M12 16.5V13.5975C12.0281 13.2398 11.9798 12.8803 11.8583 12.5428C11.7367 12.2053 11.5447 11.8975 11.295 11.64C13.65 11.3775 16.125 10.485 16.125 6.38995C16.1248 5.34282 15.722 4.33585 15 3.57745C15.3419 2.66133 15.3177 1.64872 14.9325 0.749953C14.9325 0.749953 14.0475 0.487453 12 1.85995C10.281 1.39407 8.46899 1.39407 6.75 1.85995C4.7025 0.487453 3.8175 0.749953 3.8175 0.749953C3.43228 1.64872 3.40811 2.66133 3.75 3.57745C3.0226 4.34148 2.61939 5.35755 2.625 6.41245C2.625 10.4775 5.1 11.37 7.455 11.6625C7.20825 11.9174 7.01795 12.2215 6.89648 12.5549C6.77502 12.8883 6.72511 13.2435 6.75 13.5975V16.5M6.75 14.25C3 15.375 3 12.375 1.5 12L6.75 14.25Z" stroke="#808080" stroke-width="2" stroke-linecap="round" stroke-linejoin="round"/>
</g>
<defs>
<clipPath id="clip0_519_8087">
<rect width="18" height="18" fill="white"/>
</clipPath>
</defs>
</svg>
