<svg width="96" height="96" viewBox="0 0 96 96" fill="none" xmlns="http://www.w3.org/2000/svg">
<circle cx="48" cy="48" r="48" fill="#B40D1A"/>
<g clip-path="url(#clip0_246_3267)">
<path opacity="0.4" d="M47.436 19.0001C35.5541 19.0359 27 28.5646 27 39.2814C26.9931 44.1915 28.7971 48.9353 32.0738 52.6232C33.998 54.7954 37.0077 59.3322 38.1551 63.1614C38.1551 63.1914 38.1632 63.2213 38.1679 63.2513H56.8322C56.8322 63.2213 56.8403 63.1925 56.845 63.1614C57.9923 59.3333 61.0021 54.7954 62.9263 52.6232C65.5241 49.6882 67.2106 46.0739 67.7834 42.2141C68.3562 38.3543 67.791 34.4129 66.1555 30.8631C64.5201 27.3132 61.8839 24.3057 58.5634 22.2014C55.243 20.0972 51.3792 18.9856 47.436 19.0001ZM47.5 30.0626C45.0295 30.0654 42.661 31.0375 40.9141 32.7658C39.1672 34.494 38.1846 36.8373 38.1818 39.2814C38.1818 39.7704 37.9855 40.2393 37.636 40.5851C37.2865 40.9309 36.8125 41.1251 36.3182 41.1251C35.8239 41.1251 35.3499 40.9309 35.0004 40.5851C34.6509 40.2393 34.4546 39.7704 34.4546 39.2814C34.4583 35.8596 35.8339 32.5789 38.2796 30.1593C40.7253 27.7397 44.0413 26.3788 47.5 26.3751C47.9943 26.3751 48.4683 26.5694 48.8178 26.9152C49.1673 27.2609 49.3637 27.7299 49.3637 28.2189C49.3637 28.7079 49.1673 29.1768 48.8178 29.5226C48.4683 29.8684 47.9943 30.0626 47.5 30.0626Z" fill="#FFFCF7"/>
<path d="M38.1886 71.3567L38.1816 66.9375H56.818V71.3567C56.8145 72.0812 56.5953 72.7886 56.1879 73.3906L54.1973 76.3556C53.857 76.8614 53.3957 77.2761 52.8544 77.563C52.313 77.8499 51.7084 78 51.0943 78H43.9065C43.2923 77.9999 42.6876 77.8496 42.1463 77.5625C41.6049 77.2754 41.1437 76.8604 40.8035 76.3545L38.8129 73.3906C38.4076 72.788 38.1904 72.0806 38.1886 71.3567Z" fill="#FFFCF7"/>
</g>
<defs>
<clipPath id="clip0_246_3267">
<rect width="41" height="59" fill="white" transform="translate(27 19)"/>
</clipPath>
</defs>
</svg>
