<svg width="96" height="96" viewBox="0 0 96 96" fill="none" xmlns="http://www.w3.org/2000/svg">
<circle cx="48" cy="48" r="48" fill="#FFFCF7"/>
<g clip-path="url(#clip0_246_3272)">
<path opacity="0.4" d="M31.3333 26H25.7778C25.0411 26 24.3345 26.2963 23.8136 26.8238C23.2927 27.3512 23 28.0666 23 28.8125V34.4375H34.1111V28.8125C34.1111 28.0666 33.8185 27.3512 33.2975 26.8238C32.7766 26.2963 32.07 26 31.3333 26V26ZM23 59.75H34.1111V37.25H23V59.75ZM23 68.1875C23 68.9334 23.2927 69.6488 23.8136 70.1762C24.3345 70.7037 25.0411 71 25.7778 71H31.3333C32.07 71 32.7766 70.7037 33.2975 70.1762C33.8185 69.6488 34.1111 68.9334 34.1111 68.1875V62.5625H23V68.1875ZM67.5851 66.6248L57.816 29.7538L52.5851 31.1724L62.3377 67.981C62.3472 68.0152 62.355 68.0504 62.3628 68.0847L67.5964 66.6652C67.5929 66.6521 67.5885 66.6389 67.5851 66.6248ZM36.8889 68.1875C36.8889 68.9334 37.1815 69.6488 37.7025 70.1762C38.2234 70.7037 38.93 71 39.6667 71H45.2222C45.9589 71 46.6655 70.7037 47.1864 70.1762C47.7073 69.6488 48 68.9334 48 68.1875V62.5625H36.8889V68.1875ZM45.2222 26H39.6667C38.93 26 38.2234 26.2963 37.7025 26.8238C37.1815 27.3512 36.8889 28.0666 36.8889 28.8125V34.4375H47.7214L47.0269 31.8315C46.9071 31.3831 46.9373 30.9071 47.1127 30.4779C47.2881 30.0486 47.5988 29.6902 47.9965 29.4585V28.8125C47.9965 28.0672 47.7043 27.3523 47.1842 26.825C46.664 26.2977 45.9583 26.0009 45.2222 26V26ZM36.8889 59.75H48V37.25H36.8889V59.75Z" fill="#D64820"/>
<path d="M23 62.5624H34.1111V59.7499H23V62.5624ZM23 37.2499H34.1111V34.4374H23V37.2499ZM72.9279 65.1684L62.9644 27.5626C62.824 27.0245 62.4783 26.5649 62.0034 26.2847C61.5284 26.0045 60.963 25.9268 60.4314 26.0685H60.4236L59.0877 26.4394C58.5558 26.5855 58.1027 26.9392 57.8278 27.4228C57.5528 27.9065 57.4783 28.4807 57.6207 29.0198L67.5851 66.6247C67.7255 67.1628 68.0712 67.6225 68.5461 67.9026C69.0211 68.1828 69.5865 68.2606 70.1181 68.1189H70.1259L71.4609 67.748C71.9927 67.6018 72.4455 67.2483 72.7205 66.7649C72.9954 66.2814 73.07 65.7074 72.9279 65.1684ZM36.8889 62.5624H48V59.7499H36.8889V62.5624ZM52.3741 30.3751C52.2337 29.837 51.888 29.3774 51.4131 29.0972C50.9381 28.817 50.3727 28.7393 49.8411 28.881H49.8333L48.4974 29.2519C47.9655 29.398 47.5124 29.7517 47.2375 30.2353C46.9625 30.719 46.888 31.2932 47.0304 31.8323L47.7248 34.4383H36.8889V37.2508H48V35.4921L56.9948 69.4372C57.1352 69.9753 57.4809 70.435 57.9558 70.7151C58.4308 70.9953 58.9962 71.0731 59.5278 70.9314H59.5356L60.8707 70.5605C61.402 70.4143 61.8546 70.0611 62.1295 69.578C62.4044 69.095 62.4792 68.5214 62.3377 67.9826L52.3741 30.3751Z" fill="#B30D19"/>
</g>
<defs>
<clipPath id="clip0_246_3272">
<rect width="50" height="45" fill="white" transform="translate(23 26)"/>
</clipPath>
</defs>
</svg>
