<svg width="32" height="32" viewBox="0 0 32 32" fill="none" xmlns="http://www.w3.org/2000/svg">
<circle opacity="0.8" cx="16" cy="16" r="16" fill="#F2F4F7"/>
<path fill-rule="evenodd" clip-rule="evenodd" d="M9.647 9.64644C9.84227 9.45118 10.1588 9.45119 10.3541 9.64645L16.0004 15.293L21.6465 9.64752C21.8417 9.45227 22.1583 9.45228 22.3536 9.64755C22.5488 9.84282 22.5488 10.1594 22.3535 10.3547L16.7075 16.0002L22.3536 21.6465C22.5488 21.8417 22.5488 22.1583 22.3535 22.3536C22.1583 22.5488 21.8417 22.5488 21.6464 22.3535L16.0004 16.7072L10.3535 22.3536C10.1583 22.5488 9.84168 22.5488 9.64643 22.3535C9.45118 22.1583 9.45119 21.8417 9.64646 21.6464L15.2933 16.0001L9.64698 10.3535C9.45173 10.1583 9.45173 9.8417 9.647 9.64644Z" fill="#99A9A9"/>
</svg>
